<?xml version="1.0" standalone="no"?>
<!DOCTYPE svg PUBLIC "-//W3C//DTD SVG 1.1//EN" "http://www.w3.org/Graphics/SVG/1.1/DTD/svg11.dtd" >
<svg xmlns="http://www.w3.org/2000/svg" xmlns:xlink="http://www.w3.org/1999/xlink" version="1.1">
<metadata>
Created by FontForge 20200427 at Mon Jul 16 18:25:12 2012
 By www
Copyright (c) 2010 by Hannes von Doehren. All rights reserved.
</metadata>
<defs>
<font id="ReklameScriptW00-Medium" horiz-adv-x="550" >
  <font-face 
    font-family="ReklameScriptW00-Medium"
    font-weight="500"
    font-stretch="normal"
    units-per-em="1000"
    panose-1="3 6 6 2 4 6 7 8 13 5"
    ascent="760"
    descent="-240"
    x-height="492"
    cap-height="715"
    bbox="-158.737 -324 1320 1032"
    underline-thickness="50"
    underline-position="-150"
    unicode-range="U+0002-FB02"
  />
<missing-glyph horiz-adv-x="678" 
d="M239 392q6 4 14 10.5t15 13t12 12.5t5 9l-7 9q17 38 48 59.5t62 21.5q20 0 20 -22q0 -24 -16 -47t-37.5 -46.5t-43 -48t-33.5 -49.5q3 -8 10 -17t15 -16t16 -10.5t11 -0.5q15 27 37.5 53t43.5 52.5t35.5 53.5t14.5 54q0 17 -7.5 35t-20 32.5t-29 24t-35.5 9.5
q-27 0 -53.5 -11t-49 -30.5t-39 -47t-22.5 -59.5zM273 149q0 -17 14.5 -29t31.5 -12q13 0 21.5 8.5t13.5 20.5t7.5 24.5t2.5 19.5q0 23 -11.5 31t-19.5 8q-17 0 -28 -8t-18.5 -19.5t-10.5 -23.5t-3 -20zM100 700h478v-700h-478v700z" />
    <glyph glyph-name=".notdef" horiz-adv-x="678" 
d="M239 392q6 4 14 10.5t15 13t12 12.5t5 9l-7 9q17 38 48 59.5t62 21.5q20 0 20 -22q0 -24 -16 -47t-37.5 -46.5t-43 -48t-33.5 -49.5q3 -8 10 -17t15 -16t16 -10.5t11 -0.5q15 27 37.5 53t43.5 52.5t35.5 53.5t14.5 54q0 17 -7.5 35t-20 32.5t-29 24t-35.5 9.5
q-27 0 -53.5 -11t-49 -30.5t-39 -47t-22.5 -59.5zM273 149q0 -17 14.5 -29t31.5 -12q13 0 21.5 8.5t13.5 20.5t7.5 24.5t2.5 19.5q0 23 -11.5 31t-19.5 8q-17 0 -28 -8t-18.5 -19.5t-10.5 -23.5t-3 -20zM100 700h478v-700h-478v700z" />
    <glyph glyph-name="glyph1" horiz-adv-x="0" 
 />
    <glyph glyph-name="uni000D" unicode="&#xd;" horiz-adv-x="0" 
 />
    <glyph glyph-name="uni0002" horiz-adv-x="0" 
 />
    <glyph glyph-name="uni0009" unicode="&#x9;" horiz-adv-x="0" 
 />
    <glyph glyph-name="uni000A" unicode="&#xa;" horiz-adv-x="0" 
 />
    <glyph glyph-name="space" unicode=" " horiz-adv-x="227" 
 />
    <glyph glyph-name="exclam" unicode="!" horiz-adv-x="345" 
d="M163 292q0 46 3.5 107.5t10.5 124t17 119.5t23 96q2 6 8 10t11 4t16 -1t23.5 -3.5t25 -6.5t21.5 -10q4 -3 3.5 -7.5t-2.5 -10t-3 -10t2 -7.5q5 -5 12.5 -9.5t12.5 -10t7 -13t-3 -17.5q-13 -47 -28.5 -94.5t-30 -97t-27 -102t-20.5 -109.5q-5 -6 -18.5 -4.5t-27.5 9
t-25 19t-11 24.5zM88 39q0 12 6 28.5t20.5 31.5t37.5 25.5t56 10.5q9 0 19 -3.5t19 -11.5t15 -20.5t6 -30.5q0 -11 -4 -31t-13.5 -39.5t-26.5 -34t-44 -14.5q-17 0 -33.5 9t-29 22.5t-20.5 29t-8 28.5z" />
    <glyph glyph-name="quotedbl" unicode="&#x22;" horiz-adv-x="492" 
d="M210 545q3 -3 1 -14t-7 -25.5t-12 -29.5t-14 -26q-6 -9 -22.5 -8t-34 7t-31 15t-13.5 16q3 30 6.5 63t7 65t7 60.5t6.5 49.5q0 5 19 2.5t41 -10t39.5 -18.5t16.5 -22q-2 -10 -4 -25t-4 -31.5t-4.5 -32.5t-5.5 -27zM265 483q3 30 7 61.5t8 61.5t7.5 57t6.5 48q1 5 20 2.5
t41 -10t40 -18.5t17 -22q-7 -46 -19.5 -101.5t-18.5 -108.5q-2 -10 -19 -9.5t-37.5 7t-36.5 16t-16 16.5z" />
    <glyph glyph-name="numbersign" unicode="#" horiz-adv-x="646" 
d="M321 573l-15 -64q28 5 55 8.5t51 6.5q14 60 24.5 103.5t18.5 61.5q1 4 1.5 9t3 9.5t8.5 7t19 2.5q9 0 21 -2.5t24 -6.5t22 -9t15 -9q-8 -23 -17.5 -64t-20.5 -92q31 2 49.5 -1.5t36.5 -21.5q4 -4 10 -11t12 -14.5t9 -14t1 -9.5q-7 -7 -42 -11t-95 -10q-6 -31 -12 -62.5
t-11 -63.5h24q6 0 18.5 -14t22 -30.5t11.5 -30t-12 -13.5l-40 -2t-41 -3q-11 -61 -19 -111t-12 -80q-2 -12 -20 -12q-10 0 -25.5 4t-30.5 9.5t-26.5 11t-14.5 8.5q5 33 11 72t14 81l-108 -19q-10 -62 -15.5 -118.5t-7.5 -106.5q0 -11 -18 -10t-39.5 7t-41 14t-22.5 12
q3 39 9.5 84.5t14.5 93.5l-27 -5q-12 -2 -26.5 8.5t-25 25t-14.5 27.5t4 15q52 14 107 27q12 64 27 130l-28 -6q-12 -3 -26 7.5t-24.5 25t-14 27.5t4.5 16q24 8 52 15t58 13q16 66 31.5 122.5t29.5 98.5q12 1 29 -1.5t32.5 -7.5t26.5 -12t11 -15q1 -11 1 -29t-1.5 -34.5
t-5 -28t-9.5 -10.5zM367 304q6 32 12 63t13 61q-26 -3 -52 -6.5t-55 -8.5q-7 -32 -13.5 -63.5t-12.5 -63.5q29 5 56 10t52 8z" />
    <glyph glyph-name="dollar" unicode="$" horiz-adv-x="617" 
d="M147 142q0 -23 17.5 -46t49.5 -30q17 81 36 169.5t39 176.5q-43 37 -89 58t-77 26q-5 1 -11.5 12t-12 24.5t-9.5 25.5t-4 15q-1 15 23 31t62.5 30.5t87 27.5t97.5 22q7 26 13.5 46.5t11.5 37.5q19 4 31 -2t14 -26l-11 -46q34 5 63.5 7t52.5 0q8 -1 18.5 -10.5t19.5 -21.5
t15 -23.5t6 -15.5q0 -17 -14.5 -35.5t-34 -34t-39.5 -25.5t-32 -10q-7 0 -13 4t-6 9q0 3 4 9.5t8.5 14t8.5 14.5t4 11q0 6 -25.5 5t-61.5 -7l-30 -126q31 -23 61 -52.5t54 -65.5t39 -77.5t15 -88.5t-20 -82t-54 -58t-77.5 -34.5t-89.5 -11.5q-6 0 -11.5 0.5t-10.5 0.5
q-2 -8 -3 -16.5t-2 -16.5q5 -1 8.5 -2.5t4.5 -9.5q1 -7 -2 -17.5t-8.5 -21.5t-12 -22t-12.5 -18q-7 -9 -15.5 -9t-16.5 5t-15 12t-10 11q4 25 9 54t11 61q-42 11 -74 31t-54.5 45.5t-34 54t-11.5 55.5q0 19 6 39t16.5 36t26 26t35.5 10q33 0 58 -14t30 -30q-8 -7 -17 -19.5
t-17 -27.5t-13 -31.5t-5 -32.5zM337 361q-17 -75 -32 -149t-27 -143q50 11 82 47.5t32 95.5q0 43 -15 80.5t-40 68.5zM308 494q5 20 9.5 39.5t9.5 38.5q-31 -8 -58 -17t-42 -18q11 -5 32.5 -15.5t48.5 -27.5z" />
    <glyph glyph-name="percent" unicode="%" horiz-adv-x="931" 
d="M207 -55q3 18 7 41.5t9 44.5t12 35.5t15 14.5q5 0 8.5 -1.5t6.5 -1.5q2 0 4 2q37 64 77 131t80 133t79.5 129t75.5 120q-7 -6 -18 -10q-10 -4 -25 -7t-35 -3q-25 0 -49.5 9t-36.5 21q5 -9 6.5 -28.5t1.5 -33.5q0 -10 -3 -31.5t-11 -48t-21.5 -54t-35 -50.5t-52.5 -37.5
t-72 -14.5q-47 0 -78.5 17.5t-51 45t-28 60.5t-8.5 64q0 45 16 86.5t44.5 72.5t67 49.5t83.5 18.5q14 0 30.5 -3.5t24.5 -11.5q3 2 11.5 7.5t12.5 5.5q11 0 23 -13.5t29 -30t40.5 -30t57.5 -13.5q23 0 41.5 4.5t31.5 9.5q15 6 27 15q6 7 14 18t17.5 21.5t20.5 18t23 7.5
q6 0 16.5 -5t20 -12t17 -14.5t7.5 -13.5q0 -7 -5.5 -19.5t-14 -25t-19.5 -23t-23 -13.5q-26 -29 -63 -87t-77.5 -129.5t-82.5 -150t-79 -147.5t-66 -121.5t-44 -73.5q-8 0 -18.5 6t-19.5 15t-15 18.5t-6 16.5zM219 384q20 0 38 26t31 62.5t20.5 76t6.5 65.5q-11 11 -17 17.5
t-8 21.5q-21 0 -40 -15t-34 -40.5t-24 -60t-10 -74.5q-1 -33 7.5 -56t29.5 -23zM509 115q0 40 14 82t36 77t50 59t56 29q11 -4 19.5 -9t10.5 -10q5 2 12 4q5 2 13 3.5t17 1.5q44 0 71.5 -14t43.5 -36.5t21.5 -49.5t5.5 -52q0 -52 -13.5 -99.5t-39.5 -83.5t-64 -57.5
t-87 -21.5q-45 0 -76.5 16.5t-51.5 42t-29 57t-9 61.5zM627 98q-1 -36 6.5 -62t29.5 -26q17 0 30.5 14.5t24.5 37t18.5 49.5t13 52.5t8 46t2.5 30.5q0 15 -3 30.5t-19 15.5q-15 0 -27 -10t-20.5 -24t-14 -31t-7.5 -30q0 -1 -2 -1q-4 0 -10 2.5t-9 4.5q-6 -12 -10 -27
q-4 -13 -7.5 -31.5t-3.5 -40.5z" />
    <glyph glyph-name="ampersand" unicode="&#x26;" horiz-adv-x="684" 
d="M12 173q2 42 50.5 94.5t150.5 126.5q-36 63 -58.5 116t-20.5 85q1 28 19 53t49.5 43.5t75 29.5t95.5 11q35 0 69.5 -14t61.5 -38.5t43 -57t15 -69.5q-2 -43 -55.5 -92.5t-159.5 -115.5q20 -29 40.5 -59t42.5 -60q49 40 88 78t54 61q24 5 43.5 -1t32.5 -17.5t19.5 -27
t6.5 -28.5q0 -11 -13.5 -29.5t-36 -41t-52 -47.5t-63.5 -50q12 -15 23.5 -29t22.5 -27l5 5q6 6 14 6q12 0 20.5 -10.5t15 -25t11 -29.5l7.5 -25q-2 -5 -10 -13.5t-19 -17t-23 -15.5t-22 -8q-15 9 -47.5 45.5t-74.5 90.5q-64 -42 -123 -69.5t-97 -27.5q-43 0 -80 20.5
t-64.5 51t-42.5 65.5t-13 63zM167 78q31 0 82 27t108 66q-21 30 -42 60.5t-41 61.5q-66 -48 -104.5 -88.5t-40.5 -83.5q-1 -21 9.5 -32t28.5 -11zM249 547q-1 -16 9 -42t28 -59q32 23 63 46t55.5 44.5t40 39.5t16.5 32q1 19 -12.5 26.5t-28.5 7.5q-22 0 -51.5 -7.5
t-55.5 -20.5t-44.5 -30.5t-19.5 -36.5z" />
    <glyph glyph-name="quotesingle" unicode="'" horiz-adv-x="296" 
d="M77 481q3 30 7 61.5t7.5 61.5t7.5 57t7 48q0 5 19 2t41.5 -11t40 -19t16.5 -22q-7 -46 -20 -102t-19 -109q-2 -10 -19 -9t-36.5 8t-35.5 17t-16 17z" />
    <glyph glyph-name="parenleft" unicode="(" horiz-adv-x="286" 
d="M323 653q-99 -72 -153.5 -170.5t-54.5 -224.5q0 -42 13 -82.5t32 -76.5t40.5 -64.5t38.5 -45.5q0 -7 -2.5 -16t-9 -17.5t-16.5 -14.5t-24 -7q-23 23 -53.5 62.5t-57.5 91.5t-45.5 113.5t-18.5 129.5q0 70 17.5 130.5t46.5 109t65 85.5t74 60q7 4 22 0t31.5 -12
t32.5 -17.5t25 -15.5z" />
    <glyph glyph-name="parenright" unicode=")" horiz-adv-x="362" 
d="M35 -25q99 73 153.5 181.5t54.5 234.5q0 42 -13 82.5t-31.5 76t-40 64t-39.5 46.5q0 7 2.5 16t8.5 17t16 14t25 7q23 -23 53.5 -62.5t57.5 -91t45.5 -113t18.5 -129.5q0 -70 -17.5 -133.5t-46.5 -116t-65.5 -92.5t-73.5 -63q-7 -5 -21.5 -2t-31 9.5t-32.5 16.5t-26 21z
" />
    <glyph glyph-name="asterisk" unicode="*" horiz-adv-x="495" 
d="M183 514q-20 -3 -39 -8t-36 -9q-12 -2 -24.5 9.5t-21.5 27t-11.5 29.5t5.5 17q22 7 52.5 9t63.5 7q-19 18 -40 30.5t-41 33.5q-9 9 -6.5 19.5t12 18.5t23 12t25.5 1l64 -72q4 23 4.5 51.5t8.5 54.5q3 12 16.5 16.5t29.5 2.5t31.5 -9t24.5 -17q-5 -30 -14 -62.5t-14 -61.5
q11 1 23 4.5t25 6.5t27.5 5t32.5 0q6 0 17 -15.5t18.5 -34t8.5 -34t-12 -15.5q-26 -1 -54 1t-54 0l76 -67q10 -10 6.5 -18t-14 -13t-25.5 -6.5t-27 1.5l-72 77q-3 -27 -1.5 -56.5t-0.5 -52.5q-2 -14 -14.5 -16t-29 2.5t-33 14t-26.5 19.5z" />
    <glyph glyph-name="plus" unicode="+" horiz-adv-x="507" 
d="M110 215q-12 -2 -25.5 10.5t-23.5 29t-13.5 31.5t5.5 18q25 8 61 14.5t77 11.5q5 36 12 72t17 69q3 12 19 14t35 -1.5t37.5 -12t27.5 -17.5q-5 -26 -10 -53.5t-10 -56.5l43 3q3 0 4.5 3t2.5 6t2.5 6t3.5 3q5 0 11.5 -2t13.5 -5t12.5 -6t8.5 -4q9 -3 21.5 -19t20.5 -34
t8 -33t-14 -15q-36 -1 -75 -3t-79 -6q-6 -39 -11 -75t-9 -64q-2 -13 -17 -13.5t-34.5 6t-39 17t-29.5 19.5q4 22 7 46.5t7 50.5q-19 -2 -35.5 -5t-31.5 -5z" />
    <glyph glyph-name="comma" unicode="," horiz-adv-x="309" 
d="M94 41q0 12 5 28.5t17 31.5t32.5 25.5t52.5 10.5q13 0 26.5 -6.5t24 -18.5t17 -30t6.5 -41q0 -42 -9 -78.5t-24.5 -66.5t-36 -52.5t-43.5 -35.5q-18 -10 -35.5 -11.5t-31.5 4.5t-23 19.5t-10 32.5q24 14 43.5 31.5t33.5 35.5t21.5 34.5t8.5 28.5q-9 -2 -22 0t-24.5 9
t-20 19t-8.5 30z" />
    <glyph glyph-name="hyphen" unicode="-" horiz-adv-x="478" 
d="M113 208q-12 -2 -25.5 12.5t-23.5 33t-13 35.5t6 20q34 10 81.5 18t95 13t88.5 7t61 1q6 0 17.5 -18t20 -39t10 -38.5t-12.5 -17.5q-170 -3 -305 -27z" />
    <glyph glyph-name="period" unicode="." horiz-adv-x="309" 
d="M95 45q0 13 6 30.5t20 33.5t37 27t56 11q9 0 19 -4t18.5 -12.5t14.5 -21.5t6 -32q0 -12 -4 -33.5t-13.5 -42t-26.5 -36t-43 -15.5q-27 0 -40.5 9t-11.5 34q-17 6 -27.5 17.5t-10.5 34.5z" />
    <glyph glyph-name="slash" unicode="/" horiz-adv-x="513" 
d="M31 23q4 9 9 11t10 1t9 -2.5t6 1.5q36 61 75.5 136t79 151t78.5 148t73.5 128t63 90t48.5 34q8 0 16.5 -4t15.5 -10t11 -13.5t3 -14.5q-21 -21 -50 -64.5t-62.5 -101.5t-69.5 -126t-72 -137t-70 -135.5t-62 -122t-49.5 -95t-32.5 -55.5q-7 0 -18 5t-21.5 13t-17.5 16.5
t-6 15.5q2 15 5 33.5t7 36.5t9 34t12 27z" />
    <glyph glyph-name="zero" unicode="0" horiz-adv-x="462" 
d="M-10 224q0 91 22 175t56.5 150t76.5 108.5t81 49.5q15 -4 19 -10t11 -14q9 4 19 8q8 3 19 6t23 3q40 0 69 -15.5t48 -43t28.5 -65.5t9.5 -83q0 -56 -6 -117.5t-20.5 -122.5t-37.5 -116t-56.5 -97t-78.5 -67t-103 -25q-51 0 -85.5 24t-55.5 63t-30 88.5t-9 100.5zM111 170
q-2 -63 12 -91t48 -28q27 0 51 22.5t44.5 60.5t36.5 87.5t27.5 103t18.5 108t8 101.5q2 37 -6 62t-31 25q-26 0 -48.5 -27.5t-43.5 -87.5q0 -1 -2 -1t-7.5 1.5t-11.5 3.5t-11 4.5t-6 5.5q1 4 -4 -8t-13 -36t-18.5 -57.5t-19.5 -74t-16 -85t-8 -89.5z" />
    <glyph glyph-name="one" unicode="1" horiz-adv-x="395" 
d="M-12 16q0 5 19.5 14.5t45 19t51.5 18t39 11.5q-5 8 -12.5 12t-5.5 12q8 46 18.5 102.5t21 113.5t20 109.5t15.5 91.5q-12 -11 -33 -26.5t-42.5 -30t-39 -25t-23.5 -10.5q-14 0 -26 8.5t-22 19.5t-15.5 22t-5.5 16t7.5 10.5t18.5 11.5t23.5 13t23.5 14q36 22 65 43.5
t55.5 42.5t52 41.5t54.5 41.5q17 -8 32 -17q13 -8 26 -18t21 -22q-1 -16 -12.5 -32.5t-19.5 -35.5q-3 -6 -8 -30t-12 -61t-15.5 -84t-17 -98.5t-16.5 -104.5t-15 -101q47 13 76.5 19t40.5 6q3 0 11 -12.5t16.5 -28t14.5 -28.5t6 -14q0 -3 -1.5 -8t-1.5 -8
q-38 -8 -86.5 -18.5t-99.5 -23t-100 -25t-88 -24.5q-5 -2 -14.5 6.5t-19 20.5t-16.5 25t-6 21z" />
    <glyph glyph-name="two" unicode="2" horiz-adv-x="470" 
d="M16 65q-2 2 -3 9.5t1 9.5l149 165q33 37 70 79t68 85.5t51.5 86t20.5 80.5q0 17 -10.5 25.5t-24.5 8.5q-28 0 -60.5 -12.5t-63 -33t-56 -47t-39.5 -55.5l10 -19q0 -5 -10 -14.5t-24.5 -19t-30 -18.5t-26.5 -12l-61 59q13 52 44.5 100t75 84.5t94.5 58t103 21.5
q42 0 77 -15t60 -38.5t39 -52.5t14 -57q0 -44 -18.5 -89t-49 -90t-70 -89.5t-82.5 -86.5l-85 -89l201 45q4 8 12.5 14.5t21.5 6.5q6 0 15.5 -13.5t17.5 -31t14 -35.5t6 -27q0 -10 -10 -14.5t-20 -6.5q-39 -8 -95 -17t-110 -18.5t-97.5 -18t-59.5 -14.5q-11 1 -24 8.5
t-24.5 18.5t-19.5 24.5t-9 25.5z" />
    <glyph glyph-name="three" unicode="3" horiz-adv-x="458" 
d="M335 407q22 -1 46.5 -10.5t45 -26.5t33 -41t11.5 -54q-3 -65 -33 -119.5t-76 -93.5t-102.5 -61t-110.5 -22q-34 0 -63.5 13.5t-52 34t-36.5 45t-15 46.5q8 12 17 20q8 7 15.5 11.5t14.5 0.5q17 -14 39 -35t39 -35q36 0 78 17.5t78 48t61 72.5t26 91q1 19 -10 28t-29 9
q-11 0 -20 -1t-18 -4q-19 -15 -39.5 -22t-40.5 -12q-10 3 -21 11.5t-20.5 19t-17.5 22t-12 20.5q3 5 11 12t19.5 14t26 13t30.5 9q18 13 36 32t33 40.5t24.5 44.5t10.5 44q0 16 -7.5 25.5t-25.5 9.5q-30 0 -60 -19t-56.5 -46t-48.5 -58t-37 -55q-10 -1 -23 8t-25 21.5
t-20 24.5t-8 17q1 19 20.5 52.5t54 66.5t81.5 57t102 24q45 0 76.5 -20t50.5 -46.5t27 -53.5t7 -41q-2 -34 -15 -60.5t-29 -45.5q-18 -22 -42 -40v-3z" />
    <glyph glyph-name="four" unicode="4" horiz-adv-x="471" 
d="M-9 287q-1 9 4.5 38.5t15 70t22 87.5t25.5 91t26 80t23 55q4 6 22.5 3t38.5 -11.5t37 -19t18 -17.5q-36 -106 -63.5 -198.5t-40.5 -153.5q4 0 25.5 5.5t46 13t46 15t27.5 10.5q6 28 15 75t18.5 98t17.5 99t12 78q9 2 27 -1.5t36.5 -10.5t33.5 -17.5t17 -22.5
q0 -4 -1.5 -17.5t-4 -33.5t-6.5 -44l-8 -48q-10 -57 -22 -128q1 0 5.5 1t9.5 2.5t9.5 2.5t6.5 1q9 -2 19 -14.5t18.5 -28t14 -31t5.5 -24.5l-115 -29q-5 -27 -10 -61.5t-11 -71.5t-13 -75t-15 -72q-3 -7 -7 -9.5t-14 -0.5q-5 0 -20.5 5.5t-33 12t-31.5 13.5t-14 11v3l40 221
l-2 1q-15 -4 -37 -10t-45.5 -12t-46 -11t-39.5 -7z" />
    <glyph glyph-name="five" unicode="5" horiz-adv-x="420" 
d="M132 491q20 11 46 18t54 7q39 0 74.5 -17t62 -46t42.5 -68t16 -82q0 -64 -24 -122.5t-63.5 -103.5t-90.5 -71.5t-104 -26.5q-31 0 -61.5 15t-56 37t-43 48t-21.5 48q11 14 22 24q9 8 18 14t16 1q12 -9 24 -21.5t24 -25.5t23 -24t22 -18q31 8 66 31t65 58t49.5 81.5
t19.5 102.5q0 32 -14 49.5t-40 17.5q-21 0 -42.5 -6.5t-41.5 -15.5t-36.5 -18.5t-26.5 -14.5q-12 6 -25 15t-25.5 19.5t-22.5 21t-14 19.5q1 16 3.5 38t5 44.5t4.5 43t2 34.5q2 20 1.5 42.5t0.5 28.5q2 12 15.5 19t31 11.5t35 6t28.5 1.5v-24q12 3 37 9t54.5 13t59 14.5
t50.5 13.5q10 -5 22 -15t23.5 -22t21 -24.5t12.5 -21.5l-6 -21q-23 -7 -60.5 -16t-79 -18t-80.5 -17.5t-64 -13.5z" />
    <glyph glyph-name="six" unicode="6" horiz-adv-x="463" 
d="M-10 240q0 58 13 115t34.5 109t51 96.5t62 77t67 51t67.5 18.5q27 0 57.5 -12t58 -30.5t47.5 -41t25 -44.5q-10 -15 -21 -26q-9 -9 -18.5 -16t-17.5 -2q-12 9 -22.5 19.5t-20.5 21.5t-19.5 20.5t-19.5 15.5q-27 -5 -56 -30.5t-54.5 -60t-45.5 -73t-28 -69.5
q29 27 62.5 50t71.5 23q35 0 66.5 -16t55.5 -40t38.5 -51.5t14.5 -51.5q0 -53 -18.5 -109t-51 -102t-77 -75.5t-96.5 -29.5q-59 0 -101.5 24t-70.5 61.5t-41 84.5t-13 93zM128 170q-2 -55 10 -83.5t33 -28.5q30 0 58 28t49.5 69.5t34.5 89t14 86.5q1 37 -25 37
q-29 0 -51.5 -16t-39.5 -35.5t-28.5 -35.5t-17.5 -16q-18 0 -26 7q-3 -10 -5 -25q-4 -25 -6 -77z" />
    <glyph glyph-name="seven" unicode="7" horiz-adv-x="481" 
d="M117 265q-12 -2 -26 7.5t-24 23t-14 26.5t2 18q6 4 22.5 9t39.5 10t50 10t56 10q26 47 49.5 87.5t40.5 70.5q20 35 38 64q-20 -5 -51 -11t-65 -11t-66.5 -8.5t-54.5 -3.5q7 -23 15 -55.5t8 -55.5q0 -10 -1.5 -18.5t-13.5 -8.5q-21 5 -39 10q-15 5 -29.5 10.5t-19.5 13.5
q-14 44 -26.5 83.5t-25.5 78.5q-11 26 -1 38.5t44 12.5q39 0 97 3.5t119 10.5t115 17.5t84 24.5q15 -6 25.5 -18t18 -26t12.5 -28.5t7 -25.5l-41 -16l19 -25q-20 -30 -50.5 -77t-69.5 -119l17 2q21 2 37.5 2.5t22.5 -9.5q3 -5 6.5 -6.5t8 -2t9 -1.5t10.5 -5q3 -2 8 -9
t10 -15t8.5 -15.5t3.5 -9.5q0 -5 -3 -10t-16 -5q-37 -1 -82.5 -5.5t-92.5 -11.5q-35 -71 -75 -160.5t-85 -202.5q-7 -5 -26 -1.5t-39 12t-36.5 20t-18.5 21.5q25 64 61.5 139t76.5 150z" />
    <glyph glyph-name="eight" unicode="8" horiz-adv-x="473" 
d="M-23 173q1 43 48.5 98t147.5 132q-30 27 -56 51.5t-44.5 47.5t-29 46t-10.5 47q1 31 25 56t64.5 43t94.5 28t115 10q7 -2 9.5 -6.5t2.5 -10.5v-11.5t2 -7.5l8 2t7.5 2t8.5 1q19 0 41 -14.5t40 -36t29.5 -45t11.5 -41.5q-1 -23 -14.5 -47.5t-36 -50t-50.5 -51t-58 -49.5
q32 -29 60 -56t49 -54t32.5 -54.5t11.5 -58.5q-1 -35 -27 -63t-66 -47.5t-89.5 -30.5t-96.5 -11q-52 0 -94.5 18t-73 45t-46.5 59t-16 60zM108 120q-1 -21 10 -32t28 -11q22 0 56 9.5t66 24.5t55.5 34t23.5 39q1 26 -20.5 55t-61.5 72q-73 -60 -115 -108t-42 -83zM163 550
q0 -14 16.5 -35.5t58.5 -61.5q28 22 52.5 44t42.5 41.5t29 36t11 28.5q0 17 -13.5 25.5t-30.5 8.5q-25 0 -54 -7t-53.5 -19t-41.5 -28t-17 -33z" />
    <glyph glyph-name="nine" unicode="9" horiz-adv-x="468" 
d="M-10 106q10 14 21 25q9 9 18 15.5t15 2.5q25 -18 47.5 -41t47.5 -38q27 6 56 27t54.5 51.5t46 68t31.5 76.5q-33 -30 -70.5 -52.5t-77.5 -22.5q-33 0 -64 15.5t-55 39.5t-39 52.5t-15 54.5q0 50 16 107.5t47 106.5t77.5 81.5t106.5 32.5q52 0 93.5 -25.5t70.5 -65
t45 -87.5t16 -93q0 -91 -26 -175t-68 -148.5t-93.5 -103.5t-102.5 -39q-32 0 -65 12.5t-60.5 32.5t-47 43.5t-25.5 46.5zM159 304q29 0 53 17t42.5 38t31 38t18.5 17q9 0 15 -3t11 -7q1 10 3 23q2 11 2.5 26t1.5 34q1 20 -0.5 43.5t-5 43.5t-10.5 33.5t-18 13.5
q-38 0 -68.5 -28.5t-52.5 -71t-34.5 -91t-13.5 -87.5q-1 -20 4.5 -29.5t20.5 -9.5z" />
    <glyph glyph-name="colon" unicode=":" horiz-adv-x="309" 
d="M189 337q-17 6 -29.5 16.5t-12.5 32.5q0 12 6 29t20 32t36.5 25.5t55.5 10.5q9 0 19 -3.5t18.5 -11.5t14.5 -20.5t6 -30.5q0 -12 -3.5 -32t-13.5 -39.5t-26.5 -34t-42.5 -14.5q-27 0 -41 8t-7 32zM98 67q0 12 6 29t20 32t36.5 25.5t55.5 10.5q8 0 18 -3.5t19 -11.5
t15 -20.5t6 -30.5q0 -12 -4 -32t-13.5 -39.5t-26.5 -34t-43 -14.5q-17 0 -33 9t-28.5 22.5t-20 29t-7.5 28.5z" />
    <glyph glyph-name="semicolon" unicode=";" horiz-adv-x="309" 
d="M188 336q-17 6 -29.5 16.5t-12.5 32.5q0 12 6 29t20 32t36.5 25.5t55.5 10.5q8 0 18 -3.5t19 -11.5t15 -20.5t6 -30.5q0 -12 -4 -32t-13.5 -39.5t-26.5 -34t-43 -14.5t-40 8t-7 32zM96 37q0 12 4.5 28.5t16.5 31t32 25t52 10.5q12 0 25 -6.5t23 -18.5t16.5 -29.5
t6.5 -39.5q0 -41 -8.5 -77.5t-23.5 -66t-35 -51.5t-43 -35q-17 -10 -34 -11t-31 5t-23 19t-10 32q24 13 43 30.5t32.5 35.5t21.5 34.5t9 27.5q-9 -2 -21.5 0t-24.5 8.5t-20 18t-8 29.5z" />
    <glyph glyph-name="less" unicode="&#x3c;" horiz-adv-x="390" 
d="M56 297q32 34 70.5 69.5t73.5 63.5t62.5 46t38.5 18q12 0 23.5 -12t20.5 -27.5t13.5 -31t1.5 -22.5q-14 -8 -36 -24t-47 -38t-50.5 -47.5t-46.5 -50.5q32 -51 68 -88.5t67 -73.5q10 -11 7 -22t-10 -17l-24 -22q-5 -5 -15.5 -4.5t-23.5 14.5q-18 19 -43.5 45.5t-53.5 56
t-55 60t-47 57.5z" />
    <glyph glyph-name="equal" unicode="=" horiz-adv-x="565" 
d="M178 322q-12 -3 -25.5 9t-23 28t-13 30.5t4.5 17.5q19 6 55.5 14t75 15t71 11.5t43.5 4.5q18 0 29 -3t19.5 -8.5t15 -13.5t14.5 -18q3 -4 8 -11.5t6 -15t-4 -13.5t-20 -6q-32 -1 -67 -5.5t-69 -11t-65 -13t-55 -11.5zM107 244q30 10 65 18.5t70 15t68.5 10t60.5 3.5
q6 0 18 -15t21 -33.5t10.5 -33.5t-12.5 -15q-32 0 -66.5 -3.5t-67.5 -9t-61 -12t-47 -10.5q-12 -3 -26 9t-24 28t-13.5 30.5t4.5 17.5z" />
    <glyph glyph-name="greater" unicode="&#x3e;" horiz-adv-x="355" 
d="M320 225q-13 -14 -32.5 -34.5t-41.5 -43.5t-45 -45.5t-44 -40.5t-38 -29t-26 -10q-13 0 -24.5 12.5t-19 29t-10.5 31.5t1 20q35 32 75 73.5t84 95.5q-23 37 -56 78t-65 72q-12 11 -7.5 22t9.5 18l18 22q6 8 19 5.5t27 -15.5q12 -12 35.5 -37.5t50.5 -55.5t54 -61t45 -54z
" />
    <glyph glyph-name="question" unicode="?" horiz-adv-x="506" 
d="M63 488q13 53 45 97.5t76 77t97 51t108 18.5q38 0 72 -15.5t59.5 -39.5t40.5 -53.5t15 -57.5q0 -30 -14 -59t-36 -58t-50.5 -58t-58 -58t-57 -58t-47.5 -58q-6 -6 -21.5 0.5t-32.5 18.5t-32 26.5t-20 26.5q15 28 40 54.5t54 53t58 52t52.5 51t38.5 51t15 51.5
q0 17 -10 26.5t-27 9.5q-29 0 -60 -9t-60 -26.5t-54 -42t-41 -54.5l14 -14q0 -5 -9.5 -15t-24 -21.5t-30.5 -22.5t-29 -17zM157 23q0 12 6 32t20 38.5t37 32t56 13.5q8 0 19 -3t21 -10t17 -19.5t7 -30.5q0 -12 -4.5 -32t-15.5 -39.5t-29 -34t-44 -14.5q-17 0 -33 5.5
t-29 14.5t-20.5 21t-7.5 26z" />
    <glyph glyph-name="at" unicode="@" horiz-adv-x="840" 
d="M497 117q-7 -13 -18.5 -26t-27 -23.5t-34 -17t-40.5 -6.5q-33 0 -62 13t-50.5 37.5t-34.5 59t-13 78.5q0 64 16 121.5t45 100.5t69.5 68t88.5 25q22 0 45 -6t42.5 -17t32 -27.5t12.5 -38.5q0 -9 -1 -17t-3 -13l-3 -12q0 -2 8.5 -4t18 -6.5t16.5 -12t4 -19.5
q-6 -29 -13 -58.5t-14 -56.5t-12.5 -48.5t-6.5 -33.5q-2 -16 0.5 -31.5t9 -27.5t18 -19.5t26.5 -7.5q25 0 47.5 24.5t39.5 63.5t26.5 87.5t9.5 96.5q0 61 -16 113t-48 89.5t-79.5 58.5t-109.5 21q-103 0 -175.5 -41t-118.5 -109t-67.5 -156t-21.5 -181q0 -57 17 -103.5
t47 -79.5t71.5 -51t90.5 -18q45 0 78.5 12.5t56.5 27.5q26 18 45 41q24 -16 27.5 -40.5t-14 -48t-55 -40t-96.5 -16.5q-81 0 -145 30.5t-109 81t-68.5 114.5t-23.5 132q0 94 26 184.5t79.5 161.5t135 114.5t192.5 43.5q86 0 152.5 -29t112 -78.5t69 -116.5t23.5 -143
q0 -29 -4 -63t-13 -68.5t-23 -66t-34 -56t-46.5 -39.5t-59.5 -15q-36 0 -60.5 10t-39.5 24t-22.5 29t-10.5 25h-5zM342 198q-1 -42 6 -59t24 -17q19 0 36.5 27t30.5 62.5t20.5 68.5t7.5 45q-9 1 -16 4q-16 5 -23 15q17 23 25 51t9 51q0 7 -1.5 18.5t-14.5 11.5
q-24 0 -42.5 -30.5t-32 -74t-21 -91t-8.5 -82.5z" />
    <glyph glyph-name="A" unicode="A" horiz-adv-x="496" 
d="M341 109q-2 30 -2 60.5t1 62.5q-44 -2 -91 -7.5t-90 -12.5q-24 -63 -44.5 -134.5t-35.5 -152.5q-2 -11 -21.5 -10t-42.5 8t-43 17.5t-22 18.5q5 48 23 109t45 130q-9 7 -16 19t-10.5 24.5t-3.5 22.5t6 14q8 5 26.5 11t43.5 12q33 70 73 138t83 125.5t88 100.5t88 63
q14 1 30 -1.5t30 -8.5t26 -13.5t18 -14.5q-22 -100 -31 -206.5t-9.5 -204t4 -176.5t10.5 -123q-2 -11 -21 -10t-41.5 7.5t-42.5 17t-25 18.5q-11 20 -15 46t-3 47zM373 583q-35 -38 -78 -102t-86 -154l50 5q11 1 24 2t24.5 1t20 -2t10.5 -7q3 -5 6 -7q4 64 12 129t22 134z
" />
    <glyph glyph-name="B" unicode="B" horiz-adv-x="580" 
d="M66 -77q0 7 1 10q-15 2 -26 5t-16 8q-23 20 -19.5 41t18.5 45q5 -1 20 -6t36 -10q8 52 17.5 110.5t19.5 116t20.5 112t19.5 99.5t17 78t14 47q7 18 22 25.5t32.5 7t35.5 -7t32 -15.5q-8 -29 -19 -85.5t-23 -127.5h12t12 -1q67 23 106 65t39 102q0 50 -38 81t-104 31
q-39 0 -68.5 -7.5t-51.5 -20t-38 -28t-28 -30.5q-2 -2 1.5 -6t1.5 -6q-3 -3 -11.5 -10t-19 -14t-19.5 -12.5t-13 -5.5q-10 0 -22 6t-23 14.5t-18 17.5t-6 15q27 43 70 76q18 14 42 28t54 25t66.5 17.5t80.5 6.5q63 0 113 -15.5t84.5 -42t52.5 -61.5t18 -73q0 -54 -37.5 -100
t-100.5 -78q67 -25 109 -70.5t42 -109.5q0 -57 -31 -103t-81.5 -77.5t-115 -48.5t-132.5 -17h-18q-2 -8 -2 -13q-4 -16 -11.5 -20t-20.5 -4q-13 1 -29 5.5t-30 10.5t-24.5 11.5t-12.5 8.5zM254 297q-13 -80 -25.5 -158t-21.5 -138q45 3 85.5 16t72 37t50 58.5t18.5 80.5
q0 28 -13.5 49t-36 34t-53 19t-63.5 4q-3 0 -6 -0.5t-7 -1.5z" />
    <glyph glyph-name="C" unicode="C" horiz-adv-x="489" 
d="M12 236q0 47 10 101.5t29 108t46.5 102.5t62.5 86.5t76.5 60t88.5 22.5q28 0 56.5 -11.5t51.5 -32.5t38 -49t15 -61q0 -35 -11 -67t-27.5 -56t-35.5 -38.5t-35 -14.5q-14 0 -25.5 5.5t-20 14t-14.5 17.5t-9 17q17 24 31 51q12 23 22 52.5t12 60.5q0 16 -10.5 24.5
t-21.5 8.5q-17 0 -38.5 -18.5t-44 -50.5t-44 -75t-38.5 -92t-27 -102t-10 -104q0 -77 24.5 -113.5t66.5 -36.5q41 0 69.5 25.5t47 62t28.5 78t15 74.5q6 2 14 4q7 2 15.5 3t19.5 1q21 0 38.5 -17.5t17.5 -62.5q0 -36 -13.5 -82t-42 -87t-72 -69.5t-103.5 -28.5
q-58 0 -104.5 20.5t-79.5 58.5t-50.5 91t-17.5 119z" />
    <glyph glyph-name="D" unicode="D" horiz-adv-x="620" 
d="M99 96q6 -21 17.5 -41t29.5 -35t42.5 -24t55.5 -9q51 0 97.5 31t82 87.5t56 135t20.5 173.5q0 75 -30.5 124.5t-83.5 67.5q-9 -41 -19 -91t-19.5 -103t-19 -105.5t-17.5 -99t-14 -84t-9 -59.5q-4 -17 -12 -23t-21 -6q-16 0 -32.5 4t-30.5 9.5t-23.5 11t-12.5 8.5
q8 59 21.5 131.5t28.5 146t31 141.5t29 118q-29 -10 -49.5 -28.5t-34 -41t-21.5 -47.5t-13 -48q0 -1 -5 -1q-4 0 -19 1.5t-31.5 6t-30.5 12t-17 19.5q10 57 40 103q13 19 31 38t43.5 34t58 25t73.5 11q1 10 7 22.5t29 12.5q25 0 49 -8.5t34 -16.5l-7 -23q52 -14 94.5 -42.5
t72.5 -69t46.5 -91t16.5 -108.5q0 -108 -28 -192.5t-76 -143.5t-112.5 -90t-136.5 -31q-66 0 -123.5 21t-101 54t-70 74t-28.5 81q6 9 19 19.5t28 18t30 10t24 -4.5q6 -5 15.5 -14t18 -19.5t14.5 -20.5t7 -17q0 -3 -2 -4.5t-5 -3t-5.5 -2.5t-1.5 -4z" />
    <glyph glyph-name="E" unicode="E" horiz-adv-x="464" 
d="M92 540q-10 -2 -23 8.5t-23 24.5t-14 26.5t4 15.5q32 11 67 20.5t70 17.5q8 20 16.5 38t17.5 34q26 -3 56 -10t44 -18l-7 -19q37 7 67.5 11t50.5 6q14 1 28 3t27.5 2t25.5 -4t22 -13q2 -2 6.5 -10.5t9 -18t8 -18.5t3.5 -12t-10.5 -11.5t-23.5 -18t-26 -18t-17 -11.5
q-9 -4 -19.5 -6.5t-18.5 -3t-13 1.5t-5 6q0 5 1 10t3 10t4 11q-41 -3 -77 -8t-78 -12q-12 -45 -22.5 -89.5t-18.5 -89.5l50 5q35 2 60 3t34 -7q7 -6 14 -15t12.5 -17t9 -15t3.5 -10q0 -5 -2.5 -13t-15.5 -8q-43 -1 -90.5 -6.5t-91.5 -12.5q-8 -49 -13 -99t-10 -103
q102 24 177 36t122 10q6 0 18 -15t20.5 -33t10 -33t-12.5 -15q-68 -2 -151 -14t-192 -33l-2 -40q-1 -9 -13 -9t-29 4t-35.5 11t-30.5 13l-6 -2q-12 -2 -25.5 8.5t-23.5 24.5t-13 27t5 15l54 14q4 49 10.5 102t14.5 108h-3q-12 -2 -25 7t-22 21.5t-12 24.5t3 17q8 5 28 11.5
t46 13.5q9 47 19 92t21 87q-11 -2 -23 -5t-25 -5z" />
    <glyph glyph-name="F" unicode="F" horiz-adv-x="494" 
d="M66 531q-12 -3 -25.5 9t-23 27.5t-13 30t4.5 17.5q41 13 94 24.5t110 21.5q7 16 13 30.5t13 26.5q26 -3 54 -13.5t42 -21.5q-1 -2 -1 -4q52 7 93 11t63 6q11 1 23.5 2.5t24.5 1.5t24.5 -2t23.5 -9l11 -11t18.5 -21t17.5 -24t8 -19q0 -9 -7 -15t-20 -6q-53 -2 -134 -7
t-177 -17q-13 -48 -24 -97t-22 -100q32 5 60.5 8.5t46.5 5.5q10 1 22 1.5t22 0.5t17.5 -2t10.5 -7t6.5 -6.5t8 -1.5t9.5 -1t10 -6q2 -2 7 -10t10.5 -17t9.5 -17.5t4 -11.5q0 -5 -3.5 -13t-15.5 -8q-50 -1 -117 -8t-129 -15q-15 -82 -27 -166t-23 -173q-2 -11 -19.5 -9.5
t-39.5 8.5t-41 15.5t-22 12.5q8 60 20 135.5t27 156.5q-2 0 -4 -0.5t-4 -0.5q-12 -2 -25.5 8t-23 24t-13 27t3.5 18q8 5 30.5 11.5t54.5 14.5q11 54 23 106t25 99q-29 -5 -56.5 -10t-55.5 -10z" />
    <glyph glyph-name="G" unicode="G" horiz-adv-x="512" 
d="M221 300q0 12 12 19.5t30 11t38.5 3t37.5 -4.5q18 6 38 10t40 7t37.5 4.5t29.5 1.5q22 0 30.5 -2.5t14.5 -8.5q7 -6 14 -14.5t13 -16t9.5 -14t3.5 -9.5q0 -5 -3 -13t-15 -8q-53 -2 -101 -9q15 -16 25.5 -39t10.5 -55q0 -28 -14.5 -65.5t-44 -71t-74 -56.5t-104.5 -23
q-59 0 -105 20.5t-78 58t-49 89.5t-17 116q0 43 9.5 96t28 107t45 105t60.5 90.5t75 63.5t88 24q34 0 64.5 -12t53.5 -33t37 -49t14 -60q0 -33 -8.5 -61t-22.5 -49t-32 -33t-37 -12q-15 0 -28.5 6t-24 14.5t-16.5 16.5t-6 12t10 14.5t22 28t22 42.5t10 58q0 21 -11.5 29.5
t-22.5 8.5q-17 0 -39 -19t-45 -51t-44.5 -75.5t-39 -93t-28 -102t-10.5 -102.5q0 -73 26 -115.5t74 -42.5q30 0 55.5 10t44 29t29 45.5t10.5 58.5q0 19 -5 33t-13 25q-20 -5 -36 -8t-29 -5q-10 -2 -20.5 7t-19 22t-14 26t-5.5 20z" />
    <glyph glyph-name="H" unicode="H" horiz-adv-x="556" 
d="M259 592q-14 -50 -26.5 -101t-23.5 -104q34 5 65.5 9.5t56.5 6.5t41 2.5t20 -2.5t8.5 -8t9.5 -10q17 95 35 179.5t36 142.5q6 14 14 24t27 11q9 1 23 -1.5t27.5 -6.5t25.5 -9.5t18 -9.5q-15 -59 -30 -127t-29 -138.5t-26.5 -141t-21.5 -133.5t-14.5 -115.5t-5.5 -87.5
q0 -14 -18.5 -13.5t-41 7t-42.5 15.5t-23 13q-8 11 -13 26.5t-7.5 31.5t-1.5 30t6 22q2 3 5 2.5t6.5 -2t6 -2t3.5 3.5q6 48 13 99t15 103q-44 -3 -99 -10.5t-109 -16.5q-17 -99 -27.5 -190.5t-12.5 -166.5q0 -13 -18.5 -13t-41 6.5t-43 16.5t-24.5 16q2 64 12 144t24 165
l-46 -9q-12 -2 -25 9.5t-22 27t-12.5 30.5t2.5 20q5 4 39.5 11.5t83.5 16.5q22 106 46 199t47 151q9 2 25.5 0t34.5 -6.5t33.5 -10t22.5 -11.5q1 -17 -1.5 -45t-10.5 -45z" />
    <glyph glyph-name="I" unicode="I" horiz-adv-x="453" 
d="M133 119q9 60 21 125.5t25 129t26.5 120t25.5 98.5q-30 -6 -63.5 -12.5t-74.5 -14.5q-12 -2 -25 10t-22 28t-12 30.5t5 17.5q52 17 106 28.5t103.5 19t91 11t68.5 5.5q35 2 61.5 -1.5t44.5 -20.5q2 -2 6.5 -8t9 -13.5t8 -14.5t3.5 -10t-7 -8.5t-16 -11.5t-18.5 -11.5
t-15.5 -7.5q-9 -4 -15.5 -2.5t-11.5 5t-10.5 7.5t-12.5 4q-38 -3 -76 -9q-13 -48 -27.5 -114t-28 -135.5t-24.5 -134.5t-18 -110q56 10 98.5 14.5t75.5 2.5q6 0 18.5 -15.5t21.5 -34t10.5 -34t-12.5 -15.5q-42 -1 -87.5 -4.5t-99.5 -11t-117.5 -18.5t-141.5 -26
q-12 -2 -25 8t-21.5 24.5t-11 27.5t5.5 17q10 5 20 12t19 12.5t16.5 8t14.5 -0.5q8 -4 11.5 -8t6.5 -3l101 24q-12 5 -20.5 10t-9.5 10z" />
    <glyph glyph-name="J" unicode="J" horiz-adv-x="511" 
d="M-13 129q0 38 6.5 65.5t19.5 54.5q8 9 23.5 12t33.5 -1.5t35 -16t28 -31.5q6 -10 12.5 -25.5t3.5 -20.5q-2 -3 -6 -2.5t-9 1.5t-9.5 1t-6.5 -4q-5 -10 -8 -31t-1 -40q2 -36 20 -62t47 -26q36 0 68.5 28.5t56 96.5t35.5 180t8 280q-49 -8 -93 -16.5t-76 -16.5
q-11 -3 -23 7.5t-22 25.5t-17 30.5t-7 23.5q0 6 5.5 9t11.5 5q31 8 76.5 17t96.5 16.5t102 13.5t93 9t70 3t34 -5q1 -2 7.5 -9.5t14 -16.5t15 -18.5t11.5 -13.5l-13 -21q-18 -3 -45.5 -5t-53.5 -7l-87 -14q24 -11 34 -21q4 -190 -9.5 -317t-44 -204t-76.5 -109.5t-107 -32.5
q-53 0 -99 17t-80.5 45.5t-54.5 66.5t-20 79z" />
    <glyph glyph-name="K" unicode="K" horiz-adv-x="517" 
d="M5 -4q5 50 12.5 109t17 122t20.5 126.5t23 123t25.5 111t28.5 90.5q7 17 14.5 27t29.5 11q30 1 55.5 -9t36.5 -20q-14 -54 -29 -112t-29 -121q36 30 84 67t98 69t96 54t78 22q27 0 40.5 -16.5t9.5 -35.5q-30 -21 -81.5 -55t-107 -71.5t-105.5 -75t-77 -65.5
q26 -32 60 -67t71 -71.5t73.5 -75t67.5 -77.5q10 -10 13.5 -17.5t3 -13t-3.5 -10t-7 -8.5q-4 -5 -13.5 -12.5t-19.5 -15t-19 -13.5t-13 -8q-6 -3 -17.5 -3t-23.5 13q-35 36 -69 72t-66.5 70.5t-61 65.5t-52.5 56q-6 -37 -11.5 -75t-10.5 -78q8 0 13 -2q11 -4 6 -17
q-2 -5 -8 -20.5t-11 -31.5q-7 -19 -14 -41q-5 -10 -24 -8t-41 9t-40.5 15.5t-21.5 12.5z" />
    <glyph glyph-name="L" unicode="L" horiz-adv-x="395" 
d="M-17 22q17 5 32.5 8.5t30.5 8.5q7 46 16.5 105.5t20.5 124t23 130t24.5 125t25 108.5t23.5 80q10 6 29 3.5t38.5 -8.5t37 -14t24.5 -14q-14 -47 -32.5 -119.5t-37 -156.5t-35 -171t-27.5 -162q88 19 151.5 25.5t108.5 4.5q6 0 19.5 -15.5t24 -34t13.5 -33.5t-11 -15
q-66 -2 -140.5 -9.5t-177.5 -24.5q-1 -11 -1.5 -21t-0.5 -19t-13 -9t-31 4t-37 11t-31 13l-7 -2q-12 -2 -26.5 9t-24.5 25t-14 27.5t5 15.5z" />
    <glyph glyph-name="M" unicode="M" horiz-adv-x="734" 
d="M388 266q12 40 28.5 92t35.5 107t39.5 108t39.5 95t36.5 67.5t30.5 25.5q11 0 25 -2.5t27.5 -6.5t24.5 -9.5t16 -10.5q-11 -221 0 -421.5t42 -375.5q1 -9 -13 -13t-35.5 -2.5t-45.5 8t-41 16.5q-8 5 -14 37t-10.5 81.5t-7.5 111.5t-4.5 126.5t-1.5 127t2 112.5
q-26 -62 -52 -130.5t-47.5 -138.5t-36 -137.5t-18.5 -126.5q-3 -7 -15 -9t-26 -2q-32 0 -55.5 15t-28.5 37q-6 57 -11 112.5t-7.5 111.5t-2 114.5t5.5 120.5l-5 5q-15 -26 -33.5 -71t-37 -103.5t-36 -128t-29.5 -143.5q-1 -7 3.5 -8.5t9.5 -2t9 -2.5t2 -11
q-2 -10 -7.5 -24.5t-12.5 -30.5t-14 -30.5t-12 -24.5t-23 -8.5t-38.5 8.5t-37.5 15.5t-20 12.5q2 53 15.5 124.5t35 149t50.5 156t62 146t69 118.5t72 73q10 -2 24 -5t27.5 -7.5t25 -11t16.5 -13.5q-7 -46 -10 -108t-3 -123.5t2.5 -113.5t7.5 -79h8z" />
    <glyph glyph-name="N" unicode="N" horiz-adv-x="549" 
d="M372 207q10 49 22.5 109t27 121t30 119.5t30 103.5t27.5 72.5t24 27.5q19 0 38 -2.5t35 -6.5t27.5 -9.5t15.5 -11.5q-48 -117 -81 -222.5t-55 -200t-35 -177t-22 -154.5q-2 -7 -12 -8t-18 -1q-12 0 -28.5 3t-32 9t-28 14t-17.5 19q-17 59 -32.5 131.5t-29 142
t-23.5 128.5t-16 92l-7 5q-11 -27 -23 -75t-22.5 -110t-17 -134t-7.5 -148q0 -5 1.5 -6.5t4 -2t6 -1t8.5 -3.5q7 -4 2.5 -19.5t-12.5 -33.5t-16 -34.5t-9 -22.5q-2 -11 -20 -8.5t-40.5 11t-42 18t-23.5 13.5q2 59 10 132.5t20 150.5t27.5 153.5t34.5 142t40.5 116t44.5 75.5
q12 -2 27 -5.5t29.5 -8.5t26.5 -12t20 -14q3 -33 8.5 -75.5t12 -89.5t14.5 -94.5t15.5 -89.5t15.5 -76t14 -53h11z" />
    <glyph glyph-name="O" unicode="O" horiz-adv-x="538" 
d="M12 271q0 73 20 146.5t53 134.5t74 103t83 52q16 -4 21.5 -10t13.5 -14q10 4 21 8q10 3 22.5 6t26.5 3q62 0 102.5 -20t64 -54t32.5 -79t9 -94q0 -33 -5.5 -83.5t-18 -106.5t-34.5 -112.5t-55 -101.5t-79 -73t-106 -28q-66 0 -112.5 29.5t-76 76.5t-43 104t-13.5 113z
M142 231q-1 -39 3.5 -73.5t15 -60t27 -40.5t39.5 -15q35 0 62.5 29t48 74.5t35 100.5t23 106.5t12.5 94t5 61.5q1 21 -1.5 42t-9 37t-17.5 26t-27 10q-28 0 -49 -18t-36 -45t-25 -59t-16 -60q-2 -8 -9 -6q-5 1 -17 6.5t-17 10.5l-6.5 -15.5t-15 -44t-16 -69.5t-9.5 -92z" />
    <glyph glyph-name="P" unicode="P" horiz-adv-x="524" 
d="M67 -41q8 57 19.5 128t25.5 143q-20 2 -37.5 6t-28.5 9q-16 6 -21.5 18.5t-4 26t9 25t18.5 16.5q7 -1 24.5 -10.5t54.5 -15.5q9 48 18 91.5t17 79t14.5 61t11.5 36.5q3 8 5 14.5t6.5 11.5t12 8t20.5 3q9 0 20.5 -2t23.5 -6t22 -9t15 -11q-6 -19 -13.5 -48.5t-15 -66
t-15 -77.5t-15.5 -84q40 8 73.5 26t57.5 44.5t37 60.5t13 74q0 64 -48.5 99.5t-133.5 35.5q-44 0 -76.5 -9.5t-55 -24t-36.5 -32t-22 -33.5q-1 -1 -3 -2q-5 -2 -9 -1q-7 1 -18 8.5t-21.5 17.5t-18 21t-8.5 20q17 30 53 54q31 20 84.5 37.5t137.5 17.5q63 0 119 -13.5t98 -40
t66 -65t24 -87.5q0 -53 -23 -101.5t-66 -87t-103 -65t-135 -33.5l-29 -170q-2 -7 3 -8t10.5 -1.5t9 -3.5t-0.5 -14q-10 -24 -19 -50.5t-20 -41.5q-4 -5 -8 -8.5t-12 -3.5q-10 0 -27 4t-34 9.5t-30.5 11t-15.5 8.5z" />
    <glyph glyph-name="Q" unicode="Q" 
d="M21 282q0 43 8.5 89.5t23 91.5t35 86.5t44.5 74.5t51 55t55 28q33 -8 48 -23q10 4 21 8q10 3 22.5 5.5t26.5 2.5q62 0 102.5 -19.5t64 -53t32.5 -77t9 -91.5q0 -32 -5 -80t-17.5 -101.5t-33.5 -107.5t-53 -98q37 -48 69 -96q9 -11 11.5 -19.5t1.5 -15.5t-3.5 -11.5
t-5.5 -7.5q-11 -14 -28 -27.5t-25 -18.5q-6 -3 -18.5 -3.5t-22.5 13.5l-73 103q-44 -22 -95 -22q-66 0 -112.5 24.5t-76 67t-43 100t-13.5 123.5zM236 165q-11 16 -7 31t16.5 28t29.5 22t31 12q14 -20 30.5 -40.5t33.5 -41.5q16 39 27 83.5t18 87t10 79.5t3 61
q0 28 -3.5 53.5t-11 44.5t-19.5 30t-28 11q-25 0 -44 -11t-32.5 -27.5t-22 -36t-12.5 -35.5q0 -4 -6 -2q-5 0 -16 4.5t-16 9.5q-18 -39 -33 -86q-13 -40 -23.5 -93.5t-12.5 -114.5q-1 -39 5.5 -72t19.5 -57t31 -37.5t41 -13.5q29 0 56 19z" />
    <glyph glyph-name="R" unicode="R" horiz-adv-x="525" 
d="M20 -31q5 39 14 89.5t19 107.5t21.5 117t23.5 117.5t23 110t20 93.5q-35 -13 -55.5 -34.5t-30.5 -41.5q-2 -3 -4 -5q-5 -5 -10 -5q-7 0 -17.5 6.5t-21 16t-18.5 19.5t-8 17q11 25 35 47q20 19 56 36.5t94 25.5q2 5 2.5 10t2.5 8q5 17 13 27.5t34 10.5q9 0 20.5 -2.5
t23.5 -6t22 -8.5t15 -11l-8 -27q58 -6 107.5 -25t85.5 -47.5t56.5 -65t20.5 -78.5q0 -41 -16 -74.5t-45 -60.5t-68.5 -46.5t-87.5 -30.5q33 -33 70 -72t68 -76l11 4q12 4 23 -5.5t20 -24.5t15 -30t8 -22q8 -21 0 -33q-3 -5 -14 -14.5t-25 -19.5t-27.5 -17.5t-20.5 -8.5
q-25 26 -60 65t-72.5 81t-74.5 81.5t-65 65.5l-29 -168q-1 -7 0.5 -11.5t3.5 -9t3 -11.5t-1 -18q-3 -13 -7 -26.5t-9 -25t-11.5 -18.5t-14.5 -7q-10 0 -27.5 4t-35 9t-31.5 10t-16 8zM269 614q-13 -59 -27.5 -134t-28.5 -152q95 2 150 40t55 113q0 27 -11.5 49.5t-31.5 39.5
t-47 28t-59 16z" />
    <glyph glyph-name="S" unicode="S" horiz-adv-x="495" 
d="M101 102q0 -14 4.5 -28.5t14.5 -26t24.5 -18.5t34.5 -7q32 0 59.5 10.5t47.5 30.5t31.5 50t11.5 68q0 67 -28.5 119.5t-69 89.5t-84.5 58t-75 26q-5 1 -11 14t-11.5 29t-9.5 30t-4 17q-1 16 23 33t63 33t88 29.5t98.5 23.5t94.5 14.5t76 2.5q8 -1 18 -11t19 -23t15 -25.5
t6 -16.5q0 -18 -14 -38t-33.5 -37.5t-39.5 -28.5t-32 -11q-7 0 -13.5 4.5t-6.5 9.5q0 3 3.5 10t8 15t8 15.5t3.5 11.5q0 5 -12.5 5t-33 -4t-45.5 -11.5t-50 -16.5t-47.5 -18.5t-36.5 -18.5q13 -6 39 -20t57.5 -36t64 -53t59.5 -71t44 -88.5t17 -105.5q0 -50 -20 -87.5
t-53.5 -62.5t-77 -37t-89.5 -12q-62 0 -110 19.5t-81.5 50.5t-51 68t-17.5 73q0 21 6 42t16.5 38t26 28t34.5 11q34 0 60 -15t30 -32q-7 -8 -15.5 -21t-16 -29.5t-12.5 -34t-5 -34.5z" />
    <glyph glyph-name="T" unicode="T" horiz-adv-x="464" 
d="M78 522q-12 -3 -25.5 11.5t-23.5 33t-14 35t4 19.5q52 17 115 28t124 18l9.5 28.5t9.5 25.5q10 5 26 2.5t32 -8.5t30 -14t21 -14l-3 -9l66 4q36 2 62.5 0t34.5 -10q2 -2 9.5 -11t15.5 -20t14.5 -21.5t6.5 -15.5q0 -9 -7 -15t-20 -6q-40 -1 -93 -4.5t-114 -10.5
q-13 -60 -24 -119.5t-21 -120.5t-19.5 -125t-19.5 -133q6 0 17 2.5t13 -4.5q2 -9 -5 -29t-17 -40q-11 -24 -27 -51q-4 -11 -24 -9.5t-43 8.5t-43 15.5t-23 12.5q9 59 20.5 131.5t25 149t28.5 152.5t31 143q-38 -6 -75.5 -13.5t-73.5 -15.5z" />
    <glyph glyph-name="U" unicode="U" horiz-adv-x="536" 
d="M143 153q-2 -35 1 -58t10 -37t18.5 -20t25.5 -6q37 0 60.5 41t41.5 120.5t34 196t38 268.5q4 22 10 33t27 11q8 0 23.5 -3.5t32 -8t30 -10t18.5 -9.5q-8 -63 -18.5 -131.5t-21 -135t-19.5 -127t-13 -107.5q-3 -35 -2.5 -57.5t5 -35.5t13 -18t19.5 -5q16 0 28 10t20 24.5
t13 30.5t8 28q14 0 25 -4q10 -4 18 -13.5t8 -26.5q0 -20 -7 -44t-22.5 -44.5t-39.5 -34t-57 -13.5q-40 0 -65 25t-36 56q-8 -18 -22.5 -38t-35.5 -37t-48 -28t-61 -11q-88 0 -139 64t-51 193q0 37 5 83.5t13.5 95.5t19 99t21 94.5t20.5 80.5t17 59q6 16 26.5 17t44 -5.5
t43.5 -16t26 -15.5q-10 -30 -21 -71.5t-22 -89.5t-21.5 -98.5t-19 -99.5t-14.5 -93t-7 -78z" />
    <glyph glyph-name="V" unicode="V" horiz-adv-x="390" 
d="M333 611q1 3 -1.5 6t-5.5 7t-5 8t1 9q6 12 17.5 26.5t24 27.5t25.5 21.5t22 8.5q14 0 27 -4t23.5 -9.5t17 -11.5t6.5 -11q-22 -41 -50 -102.5t-57 -133.5t-57 -149.5t-50.5 -149.5t-37.5 -133.5t-18 -101.5q-4 -4 -9 -7t-11 -5t-15 -2q-16 0 -37.5 6.5t-41 18.5t-34 30.5
t-16.5 42.5q-2 27 -6.5 84.5t-9.5 129t-10 150t-8 148t-3.5 122t3.5 73.5q2 8 8.5 15t20.5 7q11 0 29 -3.5t35.5 -9.5t30 -14.5t12.5 -18.5q-5 -70 -5 -147t2.5 -150.5t6.5 -137.5t9 -108h8q3 11 11 39.5t20 67.5t27.5 86t32 95t34 95t34.5 85z" />
    <glyph glyph-name="W" unicode="W" horiz-adv-x="696" 
d="M354 398q-14 -33 -28.5 -91t-27.5 -124t-23 -130.5t-14 -110.5q-3 -4 -16.5 -4.5t-31 2.5t-36.5 8.5t-34 14.5q-24 28 -39 81.5t-23.5 121.5t-11 144.5t0.5 151t9.5 141.5t16.5 115q4 10 22 12t39 -2.5t40 -15t27 -25.5q-11 -88 -17.5 -171t-8 -153.5t1.5 -125t12 -85.5
l6 3q9 63 24.5 129t35 130t41 123t42.5 107q7 13 28 12t43 -9t40 -18.5t20 -15.5q-14 -120 -9.5 -233.5t27.5 -234.5q7 49 20 110.5t29 125t34 125t35.5 110t34.5 79.5t30 34q17 2 35.5 -2.5t33 -12.5t23 -18t6.5 -18q-41 -84 -73.5 -173t-59.5 -183.5t-49 -196.5t-41 -212
q-8 -1 -21 -1.5t-30 1t-36.5 6.5t-39.5 15q-9 5 -17 30t-15.5 63t-14.5 85.5t-12.5 97.5t-10.5 99t-8 89h-9z" />
    <glyph glyph-name="X" unicode="X" horiz-adv-x="518" 
d="M494 -59q-3 -1 -8.5 -2.5t-11 -1.5t-11 3t-9.5 11q-11 19 -27.5 49t-38 66t-46 77.5t-51.5 83.5l-120 -149q14 1 25 0q9 -1 17 -4.5t7 -10.5q-1 -8 -23.5 -22t-50.5 -29q-33 -18 -73 -37q-8 0 -24.5 11t-33 26t-27 29.5t-5.5 21.5q17 21 41.5 52.5t54 70t63 81.5t68.5 87
q-41 63 -76.5 113t-58.5 76q-3 3 -14 14.5t-23 25.5t-20.5 29.5t-5.5 26.5q1 6 7 14.5t12.5 16.5t13.5 14t12 7q8 2 20 0t25 -16q14 -15 32.5 -39t41 -55.5t47.5 -68.5t52 -77q43 53 83.5 101.5t74 85t57.5 58t35 21.5q12 0 28 -10.5t30.5 -24t24 -27.5t6.5 -21
q-13 -14 -39 -45t-61 -73t-75.5 -91.5t-81.5 -100.5l121 -190q2 -2 9 0t10 0q9 -5 20 -26.5t19.5 -46t11 -45t-4.5 -23.5z" />
    <glyph glyph-name="Y" unicode="Y" horiz-adv-x="495" 
d="M46 35q4 9 10 11t11 1.5t9.5 -2t6.5 1.5q28 48 57.5 103t59.5 114q-45 86 -81.5 153t-65.5 112q-2 4 -5.5 3.5t-7.5 -2t-7.5 -2t-6.5 2.5q-6 7 -15 24t-17.5 35t-13.5 33.5t-2 19.5q7 11 19 22t25.5 17.5t27 6.5t23.5 -10q13 -13 35 -46.5t47.5 -77t52.5 -91.5t50 -89
q36 69 70 131.5t65.5 110t59 76t49.5 28.5q13 0 29 -8.5t29.5 -19.5t22 -23t7.5 -19q-24 -20 -54.5 -62t-64 -98t-69.5 -121.5t-71 -132.5t-67.5 -131t-60 -118t-48 -92.5t-31.5 -54.5q-7 0 -27 6t-41 15t-36.5 18.5t-14.5 16.5q2 15 6.5 33t9.5 36.5t11.5 36.5t13.5 32z
" />
    <glyph glyph-name="Z" unicode="Z" horiz-adv-x="439" 
d="M67 295q-14 -2 -26 6.5t-20 21t-10 24.5t5 16t24 9t41 10t53 10.5t59 10.5q47 60 87.5 108t63.5 70q-27 0 -69.5 -5t-86.5 -12.5t-83.5 -16.5t-60.5 -18q-7 -3 -13.5 10t-12 31.5t-9 36.5t-3.5 25q-1 13 30.5 24.5t79 22t104.5 19t108.5 14t90 8.5t49.5 3q8 0 15.5 -11.5
t13 -25.5t8.5 -27.5t3 -18.5q-8 -7 -25.5 -27t-42 -50t-54 -66.5t-60.5 -76.5q10 1 18.5 1.5t15.5 0.5q23 1 31 -2.5t14 -13.5q3 -6 6 -7.5t6 -2t7 -1.5t10 -6q2 -3 10 -11.5t12.5 -18t1 -17t-23.5 -6.5q-41 2 -88 -2t-93 -10q-29 -39 -55.5 -75t-47.5 -65.5t-34.5 -51
t-16.5 -30.5q35 9 78 17t88 14.5t89.5 9.5t83.5 1q15 -2 24.5 -19t15.5 -36.5t8.5 -36.5t2.5 -20q0 -7 -27.5 -11.5t-71.5 -9t-99 -10.5t-111 -15q-40 -6 -87.5 -17t-82.5 -23q-16 -1 -26 8t-15.5 22.5t-8 28.5t-2.5 24q0 15 12.5 43t34.5 65t51 79.5t61 86.5z" />
    <glyph glyph-name="bracketleft" unicode="[" horiz-adv-x="420" 
d="M50 -155q1 48 7 109.5t15.5 130t21.5 140t25.5 140.5t28 132t28.5 113q-9 6 -9 19t5 26.5t12.5 24.5t14.5 13q34 8 68.5 13.5t66 9.5t58 5.5t45.5 1.5q7 0 18.5 -14t20.5 -30.5t12 -30.5t-8 -14q-37 0 -62.5 -1.5t-46.5 -4.5t-39 -6.5t-40 -6.5q-35 -154 -67 -330
t-45 -357q32 5 63.5 9.5t66.5 4.5q6 0 17.5 -14t20 -30.5t10 -30.5t-12.5 -14q-40 0 -91 -6t-102 -14q-14 -2 -28 -5.5t-27.5 -4.5t-25.5 3.5t-21 18.5z" />
    <glyph glyph-name="backslash" unicode="\" horiz-adv-x="513" 
d="M389 -158q-8 16 -21.5 55.5t-31 95t-38 122t-42.5 135.5t-45 137t-44.5 126t-42 101.5t-37.5 64.5q0 7 5.5 14.5t13.5 13.5t17.5 10t17.5 4q19 0 41 -34.5t45 -91.5t47.5 -130.5t49 -151t49 -153t48.5 -136.5q1 -3 4.5 -1.5t7 2.5t7.5 -1t6 -11q9 -21 9.5 -56t-0.5 -65
q0 -7 -8 -15.5t-18.5 -16.5t-21.5 -13t-18 -5z" />
    <glyph glyph-name="bracketright" unicode="]" horiz-adv-x="418" 
d="M-60 -103q35 5 60.5 7.5t46.5 4.5t39.5 3.5t40.5 3.5q17 76 34 160t31.5 172t26.5 177.5t20 177.5q-34 -1 -63.5 -4t-62.5 -8q-6 -1 -18 11.5t-21.5 28.5t-12 30t11.5 17q21 4 50 7.5t61.5 7t64 7t56.5 6.5q29 3 42 -8t19 -22q-3 -19 -9.5 -65t-15.5 -108.5t-19.5 -135.5
t-22 -146.5t-23 -142.5t-22 -122t-19.5 -85t-15 -33q-69 -8 -131.5 -14.5t-102.5 -15.5q-6 -2 -18.5 11.5t-22 30t-13 31t7.5 16.5z" />
    <glyph glyph-name="asciicircum" unicode="^" horiz-adv-x="355" 
d="M15 510q-8 7 -14.5 19t5.5 26t30 36t39.5 45.5t44.5 46t46 37.5l64 -12q26 -15 53 -38.5t50.5 -48t40.5 -45.5t24 -32q6 -8 2.5 -21.5t-11.5 -25t-18 -18t-16 -0.5q-40 38 -72.5 76.5t-65.5 65.5q-12 -13 -27.5 -30t-32 -35.5t-31.5 -36.5t-26 -33q-10 -13 -23 -11t-22 8
z" />
    <glyph glyph-name="underscore" unicode="_" horiz-adv-x="486" 
d="M39 -40q23 6 58 11t75.5 8.5t83 6t80 3.5t66.5 1.5t42 -0.5q6 0 18 -14t21 -30.5t10.5 -30t-13.5 -13.5q-42 -1 -94 -2t-105 -3.5t-101.5 -5.5t-82.5 -7q-12 -2 -26 9t-24 25t-13.5 27t5.5 15z" />
    <glyph glyph-name="grave" unicode="`" 
d="M191 725q-7 10 -4.5 20t14.5 14q6 1 18 3.5t25 2.5t25 -2.5t17 -10.5q7 -13 18.5 -34.5t22.5 -42.5t19.5 -37.5t10.5 -20.5q5 -8 1 -17t-12 -11q-14 -5 -34 -6t-28 11z" />
    <glyph glyph-name="a" unicode="a" horiz-adv-x="463" 
d="M302 46q-8 -13 -19.5 -26t-27.5 -23.5t-34.5 -17t-39.5 -6.5q-37 0 -68 13.5t-53.5 39.5t-35 63.5t-12.5 84.5q0 67 15.5 131t45 114.5t72 81.5t95.5 31q34 0 61 -7.5t46 -19.5t28.5 -27t9.5 -30q0 -2 -0.5 -4.5t-0.5 -4.5q-1 -3 -1 -4q4 -2 14 -3t19.5 -3.5t16.5 -7.5
t4 -13q-23 -76 -37.5 -149t-15.5 -130q-2 -32 5 -53.5t29 -21.5q17 0 28.5 10.5t19 28t11.5 39.5t7 46q17 1 30 -3q11 -4 21 -13.5t10 -29.5q0 -22 -9 -49.5t-27 -52t-45 -41t-63 -16.5q-26 0 -43 8t-28 19.5t-16 24t-6 21.5h-6zM142 136q-2 -44 5 -62.5t24 -18.5
q13 0 25.5 16.5t24.5 42.5t22 57t17.5 59.5t12 51t5.5 30.5q-9 2 -16 5q-16 5 -24 16q30 42 33 93v8t-1.5 10.5t-5 9t-9.5 3.5q-16 0 -30 -17t-26.5 -44.5t-22.5 -62.5t-17 -70.5t-11.5 -68.5t-5.5 -58z" />
    <glyph glyph-name="b" unicode="b" horiz-adv-x="416" 
d="M16 175q0 42 8 100t20.5 120.5t28 124t30 110t26 78.5t17.5 31q14 1 31.5 -3t33.5 -10.5t26.5 -15t10.5 -15.5q-5 -17 -16 -52t-23 -75.5t-23 -79.5t-15 -62q23 43 49.5 66.5t56.5 23.5q28 0 54.5 -16t47 -41t32.5 -56.5t12 -62.5q0 -20 -4.5 -55.5t-15 -77t-26.5 -84.5
t-39.5 -77.5t-54.5 -56.5t-71 -22q-96 0 -146 54t-50 154zM146 232q1 0 -5 -28t-8 -79q-1 -28 10.5 -47.5t31.5 -19.5q26 0 45.5 23.5t33.5 58.5t23.5 76.5t15 77.5t8 61t2.5 28q0 10 0.5 20.5t-1.5 18.5t-7 13t-14 5q-21 0 -40 -25t-34.5 -59.5t-26 -70t-13.5 -56.5
q0 -1 -2 -1.5t-3 -0.5z" />
    <glyph glyph-name="c" unicode="c" horiz-adv-x="372" 
d="M11 171q0 49 13 107t39.5 108.5t67 84t95.5 33.5q24 0 49.5 -8.5t45.5 -24t33 -36.5t13 -46q0 -70 -26 -106.5t-60 -36.5q-26 0 -40 12.5t-16 33.5q-1 2 -1 6q10 14 18 32q7 15 12.5 35t6.5 43q2 23 -15 23q-18 0 -36 -23.5t-32.5 -62.5t-23.5 -90.5t-9 -106.5
q0 -69 21.5 -94.5t54.5 -25.5q30 0 54.5 17.5t43 44t30 56.5t14.5 55q5 1 10 3l10 2t12 1q19 0 34 -15t15 -50q0 -19 -11.5 -51.5t-37 -64.5t-67 -55.5t-102.5 -23.5q-45 0 -84 15.5t-68.5 45t-46 71t-16.5 92.5z" />
    <glyph glyph-name="d" unicode="d" horiz-adv-x="460" 
d="M292 57q-6 -14 -17 -32.5t-26.5 -35t-35 -28t-43.5 -11.5q-41 0 -70.5 19t-48.5 48.5t-27.5 65t-8.5 69.5t5.5 74.5t17.5 81t30 78.5t42.5 67.5t55.5 47t69 17.5q19 0 35 -5.5t27 -11.5q13 -8 23 -17q5 27 10 58.5t9.5 62t8 56t5.5 40.5q9 49 29 49q14 0 32.5 -3t35 -9
t27 -15t8.5 -21q-4 -27 -13 -77t-19.5 -111t-21.5 -126.5t-20 -123t-15 -101.5t-6 -61q0 -45 29 -45q14 0 25 12.5t19.5 31.5t14 42t8.5 44q16 3 28 -1q11 -3 19.5 -12t8.5 -29q0 -23 -12 -52.5t-33 -55t-51 -43t-66 -17.5q-42 0 -63 25t-21 55h-4zM133 98v-17.5t2 -20
t5.5 -16.5t10.5 -7q12 0 25.5 16.5t27.5 42.5t27 57.5t23.5 61t17 53.5t6.5 34q-7 2 -13.5 5t-13.5 14q6 19 15.5 46t10.5 50q0 11 -2.5 22t-13.5 11q-16 0 -31.5 -17t-29.5 -45t-26 -64.5t-20.5 -75.5t-14 -78t-6.5 -72z" />
    <glyph glyph-name="e" unicode="e" horiz-adv-x="334" 
d="M-3 117q0 44 7 92.5t20 95.5t31.5 89.5t41.5 75t49.5 52t56.5 19.5q18 0 39.5 -7.5t40.5 -24t31.5 -42.5t12.5 -64q0 -48 -10 -90.5t-27.5 -75t-40.5 -51.5t-50 -19q-20 0 -34 7t-22 15q-10 10 -16 23q-6 -16 -10 -35q-4 -17 -7 -40.5t-3 -51.5q0 -36 15.5 -56.5
t47.5 -20.5t59 19t47 47t31.5 58.5t13.5 53.5q1 2 4 5q2 2 6 3.5t10 1.5q23 0 39.5 -14t16.5 -40q0 -32 -12.5 -70t-37.5 -72t-64 -56.5t-91 -22.5q-37 0 -72 13t-62.5 38t-44 61.5t-16.5 83.5zM139 267q0 -7 4 -12q2 -5 7 -8.5t13 -3.5q12 0 23.5 17.5t19.5 44t13.5 59
t5.5 62.5q0 29 -3.5 36.5t-7.5 7.5q-3 0 -6.5 -3.5t-8.5 -13.5q-17 -38 -34.5 -88.5t-25.5 -97.5z" />
    <glyph glyph-name="f" unicode="f" horiz-adv-x="328" 
d="M37 387q-6 5 -12 13.5t-10 18t-6.5 19t-2.5 16.5q0 8 0.5 12t9 7.5t27 7t54.5 9.5q6 33 13.5 71.5t14.5 75.5t13 68.5t10 49.5q4 1 9 2t11 1.5t14 0.5q41 0 65 -13.5t24 -39.5q0 -18 -4.5 -43t-11 -52t-14 -55t-13.5 -53q65 9 109.5 17.5t71.5 8.5q13 0 24.5 -10t19 -24
t12 -28.5t4.5 -22.5q0 -4 -3 -7q-5 -7 -21 -8q-22 -2 -50 -5t-59.5 -7t-64 -8.5t-63.5 -8.5l-1 -5q25 -26 43.5 -51.5t30.5 -53.5t18 -61.5t6 -76.5q0 -78 -24.5 -140.5t-59 -106.5t-71 -67.5t-59.5 -23.5q-47 0 -68 31t-21 80q0 20 2 43t5 47q6 54 15 104t18.5 94.5
t17.5 81.5t12 64zM136 13q-2 -18 -4.5 -38.5t-3.5 -37.5t2 -27.5t12 -10.5q5 0 18 13t27.5 40.5t25.5 69.5t13 100q1 22 -0.5 46.5t-6 48.5t-13.5 47t-24 43q-3 -21 -8 -52.5t-11.5 -70t-13.5 -82.5t-13 -89z" />
    <glyph glyph-name="g" unicode="g" horiz-adv-x="432" 
d="M66 -84q6 -11 16.5 -22.5t22 -21.5t22 -17.5t17.5 -11.5q21 7 39.5 28t34 50t27.5 64.5t20 71.5q-8 -9 -18 -20.5t-22 -21t-25.5 -16.5t-26.5 -7q-76 0 -114.5 53t-40.5 145q-2 68 13.5 129t45 107t72 73t96.5 27q28 0 53 -6t44.5 -18t31.5 -29.5t12 -40.5v-9v-5
q3 0 12 -1t18.5 -4t17 -8t6.5 -14q-10 -60 -23 -156.5t-42 -211.5q-32 -129 -83.5 -192t-118.5 -63q-29 0 -55.5 5.5t-48.5 14t-37.5 18.5t-22.5 20q-14 14 -15 31t7.5 31t25.5 22.5t39 5.5zM144 154q-1 -44 12 -64.5t31 -20.5t36 23.5t33 59t25 76.5t13 76q-4 -1 -8 1
t-7.5 4.5t-8.5 8.5q4 9 6.5 21.5t4.5 26t3.5 26.5t1.5 21q0 15 -7 26.5t-20 11.5q-17 0 -31.5 -15t-27.5 -40t-23 -56.5t-17.5 -64.5t-11.5 -65t-4 -56z" />
    <glyph glyph-name="h" unicode="h" horiz-adv-x="468" 
d="M269 324q-7 -9 -23 -46t-33.5 -87.5t-32.5 -106.5t-18 -104l-10 -6q-12 -5 -29 -5q-20 0 -38.5 6.5t-33 18t-23 26t-8.5 31.5q0 18 2.5 55.5t7 87.5t10.5 108.5t13.5 117t16 114.5t17.5 101t18.5 75.5t18.5 38.5q7 6 25.5 5t38 -7t34.5 -15t15 -19q0 -41 -10.5 -73.5
t-18.5 -64.5q-4 -14 -9.5 -42.5t-11.5 -64t-12.5 -74.5t-11.5 -73.5t-8 -61t-3 -36.5l9 -2q5 15 15.5 43.5t24 62t29 68.5t31 63.5t30 47t25.5 18.5q23 0 44.5 -5.5t38.5 -14t27.5 -18.5t10.5 -18q0 -19 -10 -62t-21.5 -95t-21.5 -106.5t-10 -96.5q0 -29 9.5 -48t32.5 -19
q13 0 24.5 10t21.5 26.5t17.5 37t11.5 41.5q16 1 28 -3q11 -4 20 -12.5t9 -26.5q0 -27 -14 -52.5t-37.5 -45.5t-54.5 -32t-66 -12t-59 13.5t-39 36t-21.5 50.5t-6.5 57q0 23 3.5 52.5t8.5 57.5t10 51t8 32z" />
    <glyph glyph-name="i" unicode="i" horiz-adv-x="245" 
d="M175 555q-8 0 -18.5 4t-19.5 12.5t-15 21.5t-6 32q0 11 4 31.5t14 41t27 35.5t44 15q26 0 40 -8t6 -34q16 -7 29 -17.5t13 -33.5q0 -13 -6 -30.5t-19.5 -33t-36.5 -26t-56 -10.5zM14 91q0 36 9 91t22 112.5t27 108t23 77.5q3 8 9.5 10.5t13.5 2.5q5 0 24 -3t39 -9.5
t34 -17.5t10 -26q-10 -35 -23 -83.5t-24.5 -98t-20 -94t-8.5 -71.5q-1 -26 7 -38.5t19 -12.5q21 0 36 16.5t25 39t15 46t6 37.5q17 0 31 -4q12 -4 22 -14t10 -30q0 -25 -12.5 -55t-36.5 -55.5t-58.5 -43t-77.5 -17.5q-57 0 -89 32.5t-32 99.5z" />
    <glyph glyph-name="j" unicode="j" horiz-adv-x="209" 
d="M152 572q-8 0 -18 3.5t-19 11t-15 20t-6 29.5q0 10 3.5 29.5t13 38t26.5 32.5t43 14q27 0 47 -11.5t22 -37.5q8 -3 12.5 -5t6 -5.5t1.5 -9.5v-17q0 -12 -5.5 -28t-19 -30t-36.5 -24t-56 -10zM78 419q3 31 10 52t31 21q33 0 61.5 -10t44.5 -27q-12 -74 -21 -153.5
t-18.5 -156t-22.5 -145.5t-33.5 -121.5t-51.5 -83t-76 -30.5q-32 0 -68 5t-57 13q-21 7 -29 22t-6.5 30.5t12 28t27.5 15.5q22 -12 51 -23t54 -17q10 10 19.5 41.5t18.5 77.5t17 103t15 118t12.5 123t9.5 117z" />
    <glyph glyph-name="k" unicode="k" horiz-adv-x="419" 
d="M17 6q-1 20 -1 53t4 98q3 58 13 132.5t22.5 152.5t26.5 151.5t25 129.5q3 18 10.5 22.5t12.5 4.5q9 0 21 -2t24.5 -5t24.5 -7t20 -8q15 -7 15 -14t-2 -19q-10 -41 -20 -92t-19.5 -99.5t-17.5 -89.5t-13 -63q21 22 51 51.5t63 56t67 45t65 18.5q18 0 30 -6t18 -14
t7.5 -17.5t-0.5 -16.5q-57 -34 -122.5 -83.5t-120.5 -107.5q24 -29 52.5 -63t59 -70.5t60.5 -75t57 -77.5q14 -18 15 -27.5t-8 -16.5q-5 -3 -14 -8t-20 -10t-22 -9.5t-18 -7.5q-7 -2 -18.5 -3t-22.5 13q-27 37 -55 76t-54.5 75t-50 65.5t-39.5 46.5q-2 -22 -3.5 -47
t-1.5 -51t0.5 -51.5t1.5 -46.5q0 -19 -5.5 -26t-12.5 -6t-18.5 3.5t-23.5 5t-21.5 4.5t-12.5 3q-18 5 -22.5 10.5t-6.5 22.5z" />
    <glyph glyph-name="l" unicode="l" horiz-adv-x="200" 
d="M24 0q-3 5 -3.5 15.5t0 23t2 26t2.5 25.5q3 39 9 90t14.5 109t19 119.5t22 120.5t23 113t22.5 97q2 6 8 7.5t11 1.5q11 0 29 -5.5t34.5 -13.5t27.5 -16.5t10 -15.5q-34 -159 -62.5 -325.5t-41.5 -331.5q-2 -20 -3.5 -40.5t-2.5 -40.5q-5 -6 -24 -3t-39.5 10.5t-38 17.5
t-19.5 16z" />
    <glyph glyph-name="m" unicode="m" horiz-adv-x="625" 
d="M234 295q-12 -31 -25.5 -71.5t-25.5 -82.5t-20 -83t-9 -74q-6 -4 -13 -8q-6 -3 -14.5 -5.5t-17.5 -2.5q-48 0 -73.5 34t-25.5 96q0 43 4.5 91t11.5 94.5t16.5 89t19 75t19 51.5t16.5 19q15 0 30.5 -4t28.5 -10.5t20 -13.5t6 -13q-8 -35 -17.5 -73t-17 -75t-13 -69.5
t-6.5 -54.5h4q29 78 55.5 152t49.5 127q3 6 14 8t19 2q19 0 37.5 -4.5t33 -12t22 -17.5t6.5 -21q-3 -25 -7 -55.5t-8 -63.5t-8 -65t-5 -60h4q28 78 56.5 163.5t69.5 161.5q3 6 14 9t22 3q18 0 38 -5t36 -13t25.5 -19t8.5 -23q-5 -38 -16.5 -84t-23.5 -93.5t-21 -94t-9 -85.5
q0 -71 38 -71q12 0 22.5 10t18.5 24t13.5 29t8.5 24q13 1 24 -3q9 -3 17 -11t8 -24q0 -18 -9 -40.5t-26.5 -42.5t-44 -33.5t-61.5 -13.5q-36 0 -60 12t-38 32.5t-19.5 48t-4.5 57.5q0 15 3.5 39t8 50t10 51.5t9.5 43.5h-11q-15 -31 -31 -76.5t-28.5 -94t-21 -94.5t-9.5 -79
q-6 -4 -13 -7q-14 -7 -33 -7q-49 0 -69.5 30.5t-19.5 84.5q1 58 5 121.5t10 119.5h-8z" />
    <glyph glyph-name="n" unicode="n" horiz-adv-x="413" 
d="M238 296q-16 -31 -32.5 -73t-30.5 -87t-23 -88t-9 -76q-6 -4 -15 -8q-8 -3 -18.5 -5.5t-23.5 -2.5q-22 0 -36 9.5t-22.5 27t-12 41t-3.5 52.5q0 80 7 156t20.5 135.5t33 96t43.5 36.5q9 0 20 -2t20.5 -6.5t15.5 -11t5 -15.5q-14 -68 -29 -133.5t-17 -135.5h4
q29 78 61 159t74 157q5 14 31 14q13 0 31.5 -4.5t35.5 -12t28 -18t10 -22.5q-4 -39 -15.5 -84t-24 -92t-22 -95t-9.5 -92q0 -71 39 -71q12 0 22.5 10.5t19 25t14.5 29.5t9 24q13 0 24 -4q9 -4 16.5 -12.5t7.5 -24.5t-10 -38.5t-29 -42.5t-45.5 -34.5t-60.5 -14.5
q-36 0 -60 13t-38 34t-19 48t-5 56q1 15 4 38.5t7.5 49.5t9.5 51t9 43h-12z" />
    <glyph glyph-name="o" unicode="o" horiz-adv-x="407" 
d="M11 212q2 49 17.5 102t39 98.5t53 77.5t59.5 39q13 -5 22 -11.5t11 -13.5q6 3 13 6q6 2 14 4t19 2q51 0 81.5 -17t47 -45t21.5 -65t4 -76q-2 -28 -7 -64.5t-16 -75.5t-27.5 -77t-40.5 -67.5t-56.5 -48t-73.5 -18.5q-51 0 -86 23.5t-57 60t-31 80.5t-7 86zM124 177
q-2 -27 0.5 -50.5t9 -41t17 -27.5t24.5 -10q22 0 40 19t31.5 48t24 65t17 70t10 62t4.5 42q1 10 2 26t-1 31t-8.5 26t-20.5 11q-21 0 -39.5 -26.5t-34 -62.5t-26 -72.5t-14.5 -56.5q-1 -3 -12 1t-15 7q-2 -7 -4 -17q-2 -8 -3 -19.5t-2 -24.5z" />
    <glyph glyph-name="p" unicode="p" horiz-adv-x="421" 
d="M108 22q-5 -30 -9 -64.5t-7.5 -66.5t-6.5 -58.5t-5 -39.5q-4 -16 -10 -18.5t-14 -3.5q-4 0 -16 2.5t-26 7t-27.5 9t-20.5 8.5q-9 3 -6 37.5t12.5 88t23 121t26.5 136.5q1 31 4 68t7.5 75t10.5 73t12.5 62.5t14.5 44t17 16.5q11 0 27 -5t30.5 -12t24.5 -14t10 -11
q-2 -9 -3 -18l-2 -18q23 33 49.5 52t54.5 19q40 0 68.5 -16.5t46.5 -44t26 -63.5t7 -74q-1 -34 -7.5 -72.5t-18.5 -77t-30 -74.5t-42 -63.5t-53.5 -44t-65.5 -16.5q-40 0 -64.5 15t-37.5 40zM147 180q-1 -27 1 -50.5t8 -41t15.5 -27.5t23.5 -10q21 0 38 18.5t30.5 48
t23.5 65t16.5 69.5t10 61.5t4.5 41.5q1 10 2 26t-1 31t-8.5 26t-19.5 11q-20 0 -38 -26.5t-33 -62t-25.5 -72t-14.5 -56.5q-1 -2 -10 1.5t-13 7.5q-2 -9 -4 -19q-2 -8 -3.5 -19.5t-2.5 -22.5z" />
    <glyph glyph-name="q" unicode="q" horiz-adv-x="421" 
d="M12 162q0 71 16 137t47 116.5t75.5 80.5t100.5 30q22 0 45.5 -5t42 -15.5t30.5 -27t12 -39.5q0 -2 -0.5 -4.5t-0.5 -4.5v-5q3 0 13 -1t20.5 -4t18 -8t6.5 -14q-6 -30 -13.5 -65t-16 -69.5t-17 -65.5t-15.5 -53q-13 -66 -23 -126t-21 -128q0 -3 2.5 -4.5t6.5 -2t7 -1.5
t3 -4q1 -14 -4.5 -34.5t-12.5 -39.5q-8 -22 -19 -45q-21 1 -41 4q-17 2 -36 6.5t-32 11.5q-7 4 -7 28t5 58.5t13 74t16 73.5q-17 -18 -37 -30.5t-43 -12.5q-70 0 -105.5 52t-35.5 137zM142 135q-2 -43 5.5 -61.5t24.5 -18.5q13 0 26.5 16.5t25.5 41.5t22.5 55t18.5 58
t12.5 50t4.5 30q-5 0 -10 3q-5 2 -9.5 5.5t-9.5 9.5q12 20 18 46.5t7 43.5q1 15 -3 26t-17 11q-17 0 -31.5 -16.5t-27 -43.5t-23 -61t-18 -69.5t-11.5 -68.5t-5 -57z" />
    <glyph glyph-name="r" unicode="r" horiz-adv-x="342" 
d="M162 307q9 22 17.5 48.5t16 52t14 49t11.5 40.5q6 20 27 27t52 0q26 -6 35 -17.5t8 -25.5q0 -13 -8 -30.5t-17 -39t-16.5 -46t-8.5 -49.5q0 -10 7.5 -19t18.5 -9q17 0 29.5 11t20.5 24.5t13 25t7 11.5t8.5 -1t13 -4t11.5 -9t5 -16q0 -18 -8 -38t-22 -37t-34 -28t-45 -11
q-28 0 -45.5 9t-27.5 23.5t-14 32.5t-5 35q-9 -20 -21 -54t-24 -77.5t-21 -94t-11 -104.5q-11 -5 -33 -2t-44.5 10t-39 17t-16.5 18q0 11 2 30t5.5 53t8 85.5t10.5 126.5q2 32 5 65.5t9 61t15.5 45t26.5 17.5q12 0 26 -4.5t26 -9.5q14 -6 28 -14q-3 -38 -11 -86t-11 -89z
" />
    <glyph glyph-name="s" unicode="s" horiz-adv-x="358" 
d="M146 354q57 -25 102 -61q19 -16 37.5 -35.5t32.5 -43.5t23 -52t9 -61q0 -43 -13.5 -73t-36 -49t-52 -27.5t-62.5 -8.5q-40 0 -78 17t-67.5 43t-47.5 57.5t-18 61.5q0 18 5.5 38.5t15 38.5t23.5 30t31 12q13 0 26 -5.5t23 -12.5t16.5 -14t6.5 -10q0 -11 -7.5 -29.5
t-15.5 -36.5t-15 -32t-7 -17t2.5 -11.5t10 -17.5t20 -15.5t32.5 -6.5q43 0 64.5 29t21.5 77q0 36 -17.5 66.5t-43.5 54t-56.5 38t-56.5 17.5q-6 5 -12 17t-10.5 26.5t-7 28.5t-1.5 24t24 23t57.5 26t74.5 25.5t75.5 22t61 15.5t30.5 6q4 0 12.5 -8t16 -19t13.5 -22t6 -18
q0 -14 -12 -30.5t-29.5 -30.5t-35.5 -23t-30 -9q-5 0 -8.5 4t-6.5 9.5t-6 9.5t-8 4q-12 0 -30 -5t-35.5 -11.5t-31 -12.5t-16.5 -9z" />
    <glyph glyph-name="t" unicode="t" horiz-adv-x="373" 
d="M57 392q-12 -2 -24 8.5t-19.5 25t-9.5 28.5t5 19q11 7 45.5 15t79.5 16q17 51 32.5 86t26.5 41q8 4 25 -0.5t34 -12.5t29 -16.5t11 -12.5l-20 -66l39 3q21 2 37.5 2.5t22.5 -9.5q5 -11 15.5 -13.5t23.5 -9.5q3 -2 7 -8.5t8.5 -14.5t7.5 -15.5t3 -9.5q0 -5 -3 -10t-16 -5
q-37 -1 -82.5 -5t-92.5 -9q-12 -45 -23.5 -90t-20.5 -87.5t-14 -80t-5 -66.5q0 -43 31 -43q26 0 50.5 13.5t44 34t32 43.5t14.5 42q17 1 31 -4q11 -5 21 -18t10 -41q0 -32 -19.5 -61t-49.5 -50.5t-67 -34t-73 -12.5q-32 0 -60 12.5t-48 35t-31.5 55t-11.5 71.5q0 21 4 50.5
t10.5 64t15.5 72t20 75.5z" />
    <glyph glyph-name="u" unicode="u" horiz-adv-x="438" 
d="M261 130q-6 -17 -17 -42.5t-26 -48.5t-34 -39.5t-41 -16.5q-21 0 -45 12t-44.5 32t-34 44.5t-13.5 50.5q0 29 5 68.5t13 81t19 82t23 72.5t24.5 51.5t24.5 19.5q31 0 55 -11.5t30 -21.5q-14 -43 -27.5 -92.5t-23.5 -99t-15.5 -96.5t-2.5 -84l13 -4q25 33 49 86.5
t44 112.5t35 114.5t21 93.5q1 7 9 10t20 3q14 0 29.5 -5t29 -12.5t22 -16t8.5 -14.5q-2 -16 -9 -57t-15.5 -89.5t-15 -95t-7.5 -72.5q-1 -11 0.5 -24t6 -24t12 -18.5t19.5 -7.5q16 0 28 15t20 34q10 21 16 49q3 0 11.5 -0.5t17.5 -4t16 -11.5t7 -23q0 -18 -11 -41.5
t-30.5 -44.5t-46 -36t-56.5 -15q-36 0 -57 13t-32.5 33t-14.5 44t-1 45z" />
    <glyph glyph-name="v" unicode="v" horiz-adv-x="316" 
d="M161 165q4 24 14 64.5t22.5 87.5t28 95t31 87t30 63.5t27.5 24.5q4 0 15.5 -2.5t23.5 -7.5t21.5 -12.5t9.5 -17.5q0 -11 -5 -23t-12.5 -24.5l-15 -25t-11.5 -23.5q-18 -48 -39 -109t-40 -127.5t-32.5 -134.5t-16.5 -131q-5 -4 -11 -7q-12 -7 -28 -7q-52 0 -81.5 23.5
t-34.5 59.5q-4 26 -15 92.5t-11 171.5q0 32 1 73.5t3 78.5q2 43 4 88q3 22 29 22q7 0 23.5 -4t33.5 -10t29.5 -14.5t12.5 -17.5q-6 -29 -9.5 -61t-5.5 -61.5t-3 -53t-1 -35.5q-2 -43 1.5 -76t4.5 -46h7z" />
    <glyph glyph-name="w" unicode="w" horiz-adv-x="490" 
d="M236 254q-24 -57 -41.5 -128t-23.5 -134q-5 -6 -15.5 -8.5t-20.5 -2.5q-35 -1 -55.5 25.5t-31.5 67t-14 88.5t-3 91q0 18 1.5 44.5t4.5 55.5t7.5 58.5t11.5 53t15.5 38t20.5 14.5q14 0 30.5 -5t30 -12t22 -15.5t7.5 -15.5q-14 -54 -21.5 -107.5t-8.5 -107.5
q0 -14 1 -25.5t1 -19.5h6q14 37 28 76t26 77.5t22 75.5t18 70q5 14 13 19.5t25 5.5q14 0 29 -4.5t26.5 -11t18 -14.5t5.5 -14q-15 -74 -24.5 -158t-6.5 -156h7q3 14 11 47.5t19.5 76t26 89.5t31 86.5t34.5 68t36 33.5q5 1 16.5 -1t23 -6.5t20 -12.5t8.5 -18
q0 -17 -15.5 -39.5t-28.5 -51.5q-23 -53 -46 -114t-41.5 -125.5t-31 -130t-15.5 -127.5q-4 -4 -10 -7q-12 -7 -29 -7q-27 0 -47 10t-33 25.5t-19.5 34.5t-7.5 37q-1 11 -2 43t-2.5 67t-2 65t-0.5 36h-6z" />
    <glyph glyph-name="x" unicode="x" horiz-adv-x="390" 
d="M364 -50q-8 -6 -21 -6.5t-21 14.5q-22 38 -50 89t-60 108q-23 -29 -42.5 -52.5t-31.5 -37.5l6 -19q-26 -26 -46 -40t-34 -21q-17 -8 -29 -10q-8 0 -21.5 10.5t-26 24.5t-19.5 28.5t-2 20.5q30 37 76 95.5t97 120.5q-29 44 -57.5 82t-57.5 66q-13 11 -8 19.5t10 14.5
l31 37q5 5 18.5 1.5t27.5 -17.5q22 -23 46.5 -56.5t50.5 -73.5q28 32 53.5 60t47.5 48.5t39 32.5t27 12q8 0 22 -11t27 -25.5t21.5 -29t5.5 -21.5q-14 -8 -33 -26t-41.5 -42.5t-47 -54.5t-48.5 -60q34 -58 63.5 -112.5t51.5 -96.5q7 -13 10.5 -27.5t-6.5 -22.5z" />
    <glyph glyph-name="y" unicode="y" horiz-adv-x="385" 
d="M6 140q0 91 21 180.5t50 164.5q7 13 18.5 18t28.5 5q13 0 27 -4t25 -10t18.5 -14.5t8.5 -17.5q-26 -82 -48 -167.5t-25 -170.5q0 -19 3.5 -33.5t16.5 -14.5q11 0 23.5 15t24 36t20.5 44t13 39q2 9 6.5 35t10 59.5t12.5 70t14.5 67t15 50.5t14.5 20q18 0 37 -4t34 -10
t24.5 -14t9.5 -16q0 -36 -8 -74t-18.5 -75t-21 -70.5t-14.5 -59.5q-7 -38 -16 -92.5t-18 -111.5t-15.5 -110t-9.5 -89q-2 -16 -8 -19t-14 -3q-6 0 -18 3t-25.5 7.5t-26.5 9.5t-20 8q-8 4 -10.5 8.5t-2.5 16.5q0 14 5.5 43t12.5 63.5t14.5 70.5t10.5 65q-12 -23 -35 -43
t-55 -20q-34 0 -55.5 14t-33.5 35.5t-16.5 47t-4.5 47.5z" />
    <glyph glyph-name="z" unicode="z" horiz-adv-x="363" 
d="M-16 44q0 26 26.5 67.5t64.5 87t80 89t72 73.5q-21 -2 -46.5 -8t-51.5 -13.5t-50 -14.5t-42 -11q-3 -1 -9 10.5t-11 26.5t-9 30t-4 22q0 12 23.5 23.5t59.5 21.5t79 18t82.5 14t70 9t40.5 3q8 0 15.5 -9.5t13 -22.5t9 -25t3.5 -17q-12 -11 -33.5 -34t-48 -52.5
t-54.5 -62.5t-53 -63.5t-44 -55.5t-27 -39q22 5 49.5 10.5t55 10t54.5 7.5t48 3q12 -2 21 -16.5t14.5 -32.5t8.5 -33t3 -18q0 -7 -24.5 -12t-56.5 -8.5t-65 -6.5t-49 -6q-20 -4 -43 -9.5t-47 -11.5t-46 -13t-40 -14q-16 -2 -24 7t-11.5 23t-3.5 29v24z" />
    <glyph glyph-name="braceleft" unicode="{" horiz-adv-x="420" 
d="M240 252q42 -6 68.5 -22.5t26.5 -54.5q0 -24 -8 -50.5t-17.5 -52t-17.5 -48.5t-8 -40q0 -23 10 -37t26.5 -19.5t39 -3.5t46.5 10q6 1 16 -10t18.5 -26t11 -28.5t-7.5 -16.5q-17 -6 -45.5 -10t-61 -4t-66.5 6t-61 21t-44 41.5t-17 67.5q0 28 9 55.5t19.5 53.5t19.5 49
t9 41q0 21 -11.5 31.5t-27 15.5t-30.5 5.5t-21 0.5q-10 0 -21.5 12.5t-19 29t-9.5 33t7 24.5q51 -1 91 7q17 3 33.5 9t29 14.5t20.5 20.5t8 28q0 24 -5 48.5t-10.5 49.5t-10.5 50t-5 49q0 54 25.5 81t65.5 37.5t88 8.5t92 -6q7 -1 17.5 -15.5t17.5 -31.5t8.5 -31t-9.5 -12
q-40 4 -73 8t-56 1t-36 -17t-13 -45q0 -26 4 -51.5t9.5 -51.5t9.5 -52.5t4 -55.5q0 -30 -14 -50t-34.5 -33t-45 -19t-45.5 -9z" />
    <glyph glyph-name="bar" unicode="|" horiz-adv-x="350" 
d="M137 2q0 9 2 11.5t5 2.5t6 -1t4 2q3 61 4 133.5t0.5 146.5t0 144.5t3.5 128.5t10 98t20 53q11 10 27.5 1t21.5 -23q-5 -24 -8 -68.5t-4.5 -102.5t-2 -125.5t-1 -135.5t-0.5 -133.5v-120.5t-1 -94.5t-3 -56.5q-5 -2 -13 -1.5t-16 2.5t-14.5 6.5t-9.5 11.5q-5 15 -11 32
t-11 33t-7.5 30.5t-1.5 25.5z" />
    <glyph glyph-name="braceright" unicode="}" horiz-adv-x="420" 
d="M302 297q-19 2 -41 6.5t-40.5 14t-30.5 25t-12 39.5q0 30 10.5 56.5t23 53t23 55t10.5 63.5q0 15 -5 24.5t-17.5 13.5t-35 3.5t-57.5 -5.5q-10 0 -19 8t-16 19.5t-11.5 23t-4.5 19.5q0 4 12 7.5t29 5.5t35 3t30 1q38 0 74 -8.5t64.5 -25.5t46 -43t17.5 -61
q0 -27 -12.5 -53.5t-27.5 -53t-27.5 -51.5t-12.5 -47q0 -23 12.5 -35.5t30 -19t35.5 -8t29 -1.5h10q9 -5 17.5 -17.5t15 -27.5t11 -28.5t4.5 -19.5q0 -4 -12.5 -5t-31 -2.5t-40.5 -4.5t-40.5 -10.5t-31 -20.5t-12.5 -35q0 -31 9.5 -68.5t9.5 -85.5q0 -45 -18.5 -79.5
t-54.5 -56t-89.5 -28t-122.5 5.5q-8 1 -16 13t-14.5 26t-10.5 27t-4 17l5 8q34 -8 69.5 -12.5t64 1t46.5 25.5t18 62q0 35 -9.5 79t-9.5 87q0 31 8.5 52t24.5 34t39 20t52 11z" />
    <glyph glyph-name="asciitilde" unicode="~" horiz-adv-x="498" 
d="M91 220q-8 0 -15 8.5t-11 20t-4 23.5t5 19q6 7 17.5 20.5t27.5 26.5t34 22.5t36 9.5q28 0 48.5 -9.5t37 -21.5t31 -21.5t29.5 -9.5t26.5 7t21 15.5t17.5 15.5t16 7q6 0 12 -8.5t9 -21t1.5 -26.5t-9.5 -24q-7 -8 -19 -20t-28 -23.5t-36 -20t-43 -8.5q-24 0 -45 10.5
t-39 23t-33.5 23t-28.5 10.5q-7 0 -14.5 -7.5t-15 -16.5t-15 -16.5t-13.5 -7.5z" />
    <glyph glyph-name="uni00A0" unicode="&#xa0;" horiz-adv-x="0" 
 />
    <glyph glyph-name="exclamdown" unicode="&#xa1;" horiz-adv-x="345" 
d="M255 197q0 -47 -4 -108t-11 -123.5t-17 -119.5t-23 -96q-2 -6 -8 -10t-11 -4t-16 1t-23.5 3.5t-24.5 6.5t-21 10q-5 3 -4 7.5t3 10t3 10t-2 7.5q-5 5 -12.5 9.5t-13 10t-7.5 12.5t3 18q13 46 28.5 94t30 97.5t27 102t20.5 109.5q5 6 18.5 4.5t28 -9t25.5 -19t11 -24.5z
M329 450q0 -12 -6 -28.5t-20.5 -31.5t-37.5 -25.5t-56 -10.5q-9 0 -19 3.5t-19 11.5t-15 20.5t-6 30.5q0 11 4 31t14 39.5t27 34t43 14.5q17 0 33.5 -9t29 -22.5t20.5 -29t8 -28.5z" />
    <glyph glyph-name="cent" unicode="&#xa2;" horiz-adv-x="372" 
d="M141 -148q4 24 8.5 50.5t9.5 54.5q-66 20 -107 75t-41 139q0 49 15.5 106.5t48.5 108t84.5 84t122.5 34.5q7 26 13.5 49t13.5 42q19 4 30.5 -2t13.5 -26q-5 -17 -8.5 -34t-7.5 -34q51 -11 85.5 -40t34.5 -71q0 -19 -6.5 -34t-18.5 -23t-29 -7.5t-39 12.5q-1 5 0.5 19.5
t-0.5 31t-11 31.5t-31 20q-23 -100 -45 -200.5t-41 -208.5q27 4 49 23t38.5 44t26.5 53t13 52q5 1 10 3l10 2t12 1q19 0 34 -15t15 -50q0 -19 -11.5 -51.5t-37 -64.5t-67 -55.5t-102.5 -23.5h-4l-3 -23q5 -4 6 -12.5t-1 -16.5q-4 -14 -10.5 -31t-15.5 -31q-7 -9 -15.5 -9
t-16.5 5t-15 12t-10 11zM122 148q0 -46 15.5 -72t37.5 -37q20 99 42.5 202.5t45.5 192.5q-31 -12 -57 -40t-44.5 -66.5t-29 -85t-10.5 -94.5z" />
    <glyph glyph-name="sterling" unicode="&#xa3;" horiz-adv-x="608" 
d="M89 238q-12 -2 -24 5t-20 17.5t-10.5 21t4.5 15.5q12 8 37 15t57 12q6 71 18 141.5t38 126.5t71.5 90.5t117.5 34.5q38 0 74.5 -11.5t64.5 -33t45 -52.5t16 -70q-1 -33 -14 -62.5t-31.5 -52t-39.5 -35.5t-39 -13q-15 0 -26 5.5t-19.5 14t-14 17.5t-8.5 17q22 21 40 46
q15 21 28 48t15 56q0 20 -11.5 34.5t-34.5 14.5q-38 0 -65.5 -26t-48 -68.5t-34.5 -97t-24 -110.5q25 2 43.5 -1.5t36.5 -17.5q2 -2 6.5 -8t9 -13t8 -13.5t3.5 -8.5q0 -5 -3 -8t-16 -3q-28 -1 -53 -2t-48 -3q-7 -48 -12.5 -89.5t-10.5 -70.5q21 2 60.5 9.5t83 16t83 16.5
t58.5 11q11 2 25.5 -13t26 -34.5t18 -37.5t0.5 -21q-10 -6 -36.5 -11.5t-62.5 -10.5t-77.5 -9.5t-80 -8t-71.5 -6t-51 -3.5q-22 -28 -39.5 -43.5t-31 -21t-24.5 -3t-20 11.5q-17 14 -26 32.5t-7 37.5t17 36t47 27q8 32 12 76t8 94z" />
    <glyph glyph-name="currency" unicode="&#xa4;" horiz-adv-x="626" 
d="M134 248q2 29 15 60t33 57q-14 17 -29 31t-29 27q-12 9 -8 18t9 14l25 24q7 7 19 3t25 -15q10 -9 22 -22t24 -28q16 10 34 13q11 -2 19 -3.5t13 -5.5q3 0 7 1t10 1.5t15 0.5q26 0 49 -5q31 26 54.5 41t35.5 15q7 0 18.5 -8.5t21.5 -20t16.5 -22.5t3.5 -17
q-14 -7 -33.5 -21t-42.5 -34q5 -21 3 -45q-2 -26 -11.5 -62t-31.5 -68q17 -22 31.5 -41.5t25.5 -36.5q11 -19 -3 -30l-25 -19q-5 -5 -17 -4.5t-20 12.5l-45 67q-36 -22 -85 -22q-26 0 -47 5.5t-38 15.5q-23 -20 -38 -32t-24 -19q-11 -8 -17 -12q-8 0 -19.5 9t-21.5 21
t-15.5 23.5t-0.5 17.5q14 14 34 31.5t43 39.5q-6 24 -5 45zM236 233q-1 -26 8.5 -45t29.5 -19q24 0 41 20t27.5 45.5t15.5 50.5t6 36v13t-2.5 15.5t-8 12.5t-15.5 5q-18 0 -36 -10t-32.5 -27.5t-23.5 -42t-10 -54.5z" />
    <glyph glyph-name="yen" unicode="&#xa5;" horiz-adv-x="638" 
d="M158 181q-12 -2 -25 6t-22 19.5t-12 23t4 16.5q10 7 46 14.5t82 15.5q-43 81 -78 145t-63 108q-3 4 -6.5 3.5t-7 -2t-7 -2t-6.5 2.5q-6 7 -15 24t-17.5 35t-13.5 33.5t-2 19.5q7 11 18 21.5t23.5 16.5t25 5.5t22.5 -10.5q13 -13 35 -46t48 -76t53.5 -90.5t50.5 -89.5
q37 71 71.5 134t66 110.5t59 75t50.5 27.5q13 0 28.5 -8t29 -19.5t21.5 -23t7 -18.5q-20 -17 -46 -53t-55.5 -84t-61 -104t-62.5 -113l33 3q21 2 37.5 2.5t22.5 -9.5q3 -5 6.5 -6.5t7.5 -2t9 -1.5t11 -5q2 -2 6.5 -7.5t9 -12t8 -12.5t3.5 -8q0 -5 -3.5 -10t-15.5 -5
q-35 -1 -79 -4.5t-90 -8.5l-4 -44q8 1 16.5 1.5t15.5 0.5q26 2 45.5 -2.5t38.5 -19.5q3 -2 7.5 -7.5t9 -11.5t7.5 -12t3 -8q0 -5 -3.5 -10t-15.5 -5q-31 -1 -64.5 -3t-68.5 -5l-20 -196q-7 0 -28 6t-43.5 14.5t-39.5 18t-16 16.5l13 125q-19 -3 -34 -5.5t-26 -4.5
q-12 -2 -24.5 5.5t-20.5 18.5t-11 22t4 16q11 7 44.5 14.5t75.5 14.5l5 43q-24 -4 -43 -7t-30 -5z" />
    <glyph glyph-name="brokenbar" unicode="&#xa6;" horiz-adv-x="350" 
d="M154 375q0 63 2 120.5t7 104t13.5 78.5t22.5 43q6 4 13.5 4t14.5 -3.5t13 -9.5t8 -13q-6 -18 -9.5 -49.5t-6 -72t-3.5 -89.5t-1 -103q-2 -5 -10 -8t-19.5 -4.5t-23.5 -1t-21 3.5zM134 2q0 9 2 11.5t5 2.5t6 -1t3 2q3 43 3.5 91t0.5 99q20 13 37.5 17t34.5 -7v-118.5
v-105.5t-1 -82.5t-4 -48.5h-15t-17 2t-15 6t-10 11q-11 30 -20.5 64.5t-9.5 56.5z" />
    <glyph glyph-name="section" unicode="&#xa7;" horiz-adv-x="635" 
d="M495 573q-3 24 -23.5 45t-60.5 21q-65 0 -103.5 -32t-31.5 -95q4 -35 20.5 -65t41 -55.5t54 -46t59.5 -35.5t57.5 -24t47.5 -11q4 -1 10.5 -11t12.5 -23t10.5 -24t4.5 -14q2 -16 -11 -34t-35 -34.5t-48 -30.5t-49 -21q26 -32 44 -69t23 -79t-11 -72.5t-46.5 -51
t-71 -30.5t-85.5 -10q-59 0 -107.5 16t-84 41t-56 56t-24.5 60q-2 18 2 35.5t12.5 31.5t22.5 23t33 9q31 0 57 -13t32 -27q-15 -12 -27 -37.5t-10 -53.5q3 -24 24 -45t61 -21q65 0 104 31t32 94q-6 54 -38.5 96t-75 71.5t-87 46t-74.5 20.5q-5 1 -12 11.5t-13.5 24t-12 25
t-5.5 14.5q-3 16 11 33.5t36.5 33.5t50 29t52.5 19q-29 33 -49 71t-25 83q-5 41 11 71.5t46.5 51t71 30.5t85.5 10q59 0 108 -16t84 -41t56 -56t24 -60q2 -17 -1.5 -35t-12.5 -32t-23 -23t-33 -9q-32 0 -57.5 13t-31.5 27q7 6 14 16t12 22.5t8 26.5t1 28zM188 271
q10 -4 30.5 -14.5t46.5 -26t55 -35.5t58 -44q12 3 26 8.5t27.5 13t25 18t17.5 23.5q-11 4 -32 13.5t-48 24.5t-57.5 34.5t-59.5 43.5q-11 -4 -24 -9.5t-25.5 -13t-23 -16.5t-16.5 -20z" />
    <glyph glyph-name="dieresis" unicode="&#xa8;" 
d="M138 636q-15 5 -26.5 14.5t-11.5 29.5q0 11 5.5 25.5t18 28t32.5 23t50 9.5q7 0 16.5 -3.5t17 -10.5t13 -18t5.5 -27q0 -10 -3 -27.5t-11.5 -34t-24.5 -28.5t-42 -12q-19 0 -29.5 5.5t-9.5 25.5zM291 668q0 10 5 25t17 28t31.5 22.5t48.5 9.5q7 0 17 -3t18.5 -10
t14.5 -18t6 -27q0 -10 -3.5 -28t-12.5 -35.5t-24 -30.5t-38 -13q-15 0 -29.5 8t-25.5 20t-18 26t-7 26z" />
    <glyph glyph-name="copyright" unicode="&#xa9;" horiz-adv-x="810" 
d="M63 321q0 64 23.5 132t70.5 123.5t117.5 91.5t164.5 36q28 0 55 -5t50.5 -14.5t42.5 -23t31 -30.5q8 3 16.5 3.5t13.5 -4.5q48 -45 73.5 -110t25.5 -147q0 -79 -27 -146.5t-76 -117.5t-116.5 -78.5t-149.5 -28.5q-77 0 -136 25.5t-99 69.5t-60 101.5t-20 122.5zM130 279
q0 -49 17 -90.5t47 -71.5t69.5 -46.5t84.5 -16.5q76 0 138 22.5t105.5 66.5t67 109.5t23.5 152.5q0 54 -14 99.5t-38 69.5q-18 -5 -25.5 0.5t-10.5 10.5q-16 26 -51 46t-81 20q-89 0 -151.5 -30.5t-103 -81.5t-59 -118.5t-18.5 -141.5zM395 414q7 5 13 14q5 8 9 18.5t4 25.5
t-15 15t-29 -18t-24.5 -46t-17 -62.5t-7.5 -66.5q-1 -41 11.5 -56t35.5 -15q21 0 39 11.5t31.5 28.5t22.5 35.5t11 32.5l12 2q5 1 10.5 2t10.5 1q14 0 27 -9t12 -35q-1 -13 -9.5 -35t-26.5 -43.5t-47 -37.5t-69 -16q-38 0 -69 11t-53 31.5t-33.5 49.5t-10.5 64q1 34 10.5 74
t30 75t52.5 58.5t77 23.5q18 0 36 -6.5t32.5 -17.5t23.5 -26.5t9 -33.5q-2 -48 -21 -69.5t-43 -21.5t-35 12t-10 26v4z" />
    <glyph glyph-name="ordfeminine" unicode="&#xaa;" horiz-adv-x="434" 
d="M275 350q-11 -17 -33.5 -32.5t-52.5 -15.5q-60 0 -96 36.5t-36 96.5q0 43 10.5 84.5t31.5 74t51.5 52.5t70.5 20q25 0 46.5 -6t37.5 -15.5t25 -23t9 -28.5q0 -7 -2 -13q-1 -3 -1 -5q3 -1 10.5 -1.5t15 -2.5t13 -5t4.5 -8q-6 -22 -11.5 -46t-10 -45.5t-7.5 -37.5t-4 -23
q-2 -20 2 -33.5t17 -13.5q20 0 27.5 23.5t10.5 55.5q16 2 29 -2q11 -3 20 -12t9 -27q0 -15 -6.5 -32t-20 -32t-33.5 -24.5t-48 -9.5q-21 0 -35 5.5t-22 14t-11.5 17t-4.5 14.5h-5zM162 412q-2 -27 1.5 -38.5t13.5 -11.5q12 0 24 21.5t22.5 49.5t17.5 53.5t8 33.5q-6 1 -10 3
q-11 4 -15 9q11 15 16 28.5t7 29.5q0 4 -1 11t-8 7q-15 0 -28 -22t-23 -53.5t-17 -65t-8 -55.5zM128 156q-10 -2 -21 9t-18.5 25.5t-10 27t4.5 14.5q28 7 67 12.5t78 9.5t72.5 5.5t49.5 0.5q5 0 14.5 -13t16.5 -28.5t8 -28.5t-11 -13q-68 -2 -131.5 -6.5t-118.5 -14.5z" />
    <glyph glyph-name="guillemotleft" unicode="&#xab;" horiz-adv-x="540" 
d="M58 294q29 28 61.5 56t62 51t52 37.5t31.5 14.5q10 0 21 -9t19.5 -21t13.5 -23.5t2 -17.5q-13 -9 -31.5 -24t-39.5 -33t-43 -39t-42 -43q31 -44 64 -74t62 -61q8 -9 7 -18.5t-9 -14.5l-20 -15q-8 -7 -17.5 -7t-21.5 11q-17 16 -40.5 38t-48.5 47t-49 50.5t-42 47.5z
M272 279q29 28 58 54.5t54 47.5t44 33.5t28 12.5t19 -9t17.5 -21t11.5 -23.5t1 -17.5q-23 -22 -55.5 -50.5t-71.5 -73.5q16 -22 27 -37t20.5 -27t19.5 -24t24 -27q9 -9 11 -21.5t-4 -18.5l-18 -20q-15 -16 -39 5q-17 16 -37 37t-40 45t-40 48.5t-38 46.5z" />
    <glyph glyph-name="logicalnot" unicode="&#xac;" horiz-adv-x="486" 
d="M123 275q-12 -2 -25.5 12.5t-23 33.5t-13 35.5t5.5 18.5q36 8 81 15t92 12.5t92 8.5t81 3q16 0 23.5 -16.5t8 -41.5t-3.5 -55.5t-11 -59.5t-15 -53t-15 -35q-2 -5 -14 -3.5t-25.5 7.5t-24 14.5t-8.5 19.5q7 32 11.5 58t6.5 49q-25 -2 -55 -4.5t-60 -5.5t-58 -6t-50 -7z
" />
    <glyph glyph-name="uni00AD" unicode="&#xad;" horiz-adv-x="478" 
d="M113 208q-12 -2 -25.5 12.5t-23.5 33t-13 35.5t6 20q34 10 81.5 18t95 13t88.5 7t61 1q6 0 17.5 -18t20 -39t10 -38.5t-12.5 -17.5q-170 -3 -305 -27z" />
    <glyph glyph-name="registered" unicode="&#xae;" horiz-adv-x="601" 
d="M83 529q0 37 15.5 77t46.5 73t77.5 54t109.5 21q36 0 69 -11.5t50 -31.5q14 5 21 -1q32 -26 48.5 -64t16.5 -86q0 -47 -18 -87t-50.5 -69t-77.5 -46t-99 -17q-52 0 -91 15t-65.5 41t-39.5 60t-13 72zM142 499q0 -29 10.5 -50.5t28.5 -36.5t41.5 -22.5t48.5 -7.5
q46 0 85.5 13t68.5 39t45.5 63.5t16.5 87.5q0 29 -10 51t-24 35q-11 -2 -15 0.5t-6 4.5q-9 14 -30 24t-47 10q-57 0 -97 -16t-66 -44.5t-38 -67t-12 -83.5zM232 446q1 14 5 34t9 43t10.5 46t10.5 43q-12 -3 -18 -8t-8 -10h-2q-2 0 -6 2.5t-9 6.5t-8.5 7t-3.5 5q4 8 12 15
q7 6 19.5 11.5t32.5 8.5l5 18q2 2 2.5 5t8.5 3q5 0 20.5 -4t20.5 -6q-2 -3 -2.5 -7t-2.5 -9q34 -6 57 -23.5t23 -40.5q0 -24 -17.5 -38.5t-49.5 -19.5q10 -10 21 -21.5t20 -21.5t14 -17t4 -7q-1 -1 -6 -5t-11.5 -8t-12.5 -7t-10 -2q-11 12 -30 32.5t-36 37.5
q-2 -13 -4 -23.5t-3 -18.5q0 -3 0.5 -8t0 -10.5t-3 -9.5t-7.5 -4q-3 0 -10.5 1t-15 3t-13.5 3.5t-6 3.5zM304 552q21 3 34 12t13 26q0 21 -32 26z" />
    <glyph glyph-name="macron" unicode="&#xaf;" 
d="M129 683q26 7 61.5 11t71.5 5.5t68.5 1t52.5 -1.5q6 0 17 -13t18.5 -28.5t8 -28t-13.5 -12.5q-66 0 -126 0.5t-106 -4.5q-12 -2 -25 8t-22 23t-11.5 25t6.5 14z" />
    <glyph glyph-name="degree" unicode="&#xb0;" horiz-adv-x="463" 
d="M63 567q0 31 11.5 64t35.5 60t61 44.5t87 17.5q78 0 119.5 -44.5t41.5 -116.5q0 -38 -13.5 -71t-39 -57.5t-61 -38.5t-79.5 -14q-39 0 -69 12.5t-51 34t-32 50t-11 59.5zM169 566q0 -33 18 -49.5t42 -16.5q38 0 63.5 26t25.5 72q0 30 -17 49t-43 19q-45 0 -67 -30
t-22 -70z" />
    <glyph glyph-name="plusminus" unicode="&#xb1;" horiz-adv-x="525" 
d="M124 366q-12 -2 -26 10.5t-24 29t-13.5 31t5.5 17.5q26 8 63.5 14.5t79.5 11.5q5 34 12 69t18 73q3 12 18 14t33 -1.5t35.5 -12t26.5 -17.5l-20 -111l44 3q3 0 4 3l2 6t2.5 6t3.5 3q5 0 11.5 -2t13.5 -5t12.5 -6t8.5 -4q9 -3 21.5 -19t20.5 -34t8.5 -32.5t-13.5 -14.5
q-37 -1 -76.5 -3t-80.5 -6l-14 -96q-2 -13 -16 -13.5t-32.5 6t-37 17t-28.5 19.5q2 14 4 27.5t4 27.5zM128 107q-12 -2 -26 10.5t-24 29t-13.5 31.5t5.5 18q17 5 43.5 11t58 12t65.5 11t65 8.5t57 4t42 -2.5q10 -2 22 -18t20.5 -34.5t8.5 -33.5t-14 -15q-85 -2 -163.5 -11
t-146.5 -21z" />
    <glyph glyph-name="uni00B2" unicode="&#xb2;" horiz-adv-x="381" 
d="M191 534q-2 2 -2.5 9.5t0.5 8.5l110 87q24 19 48 39t42.5 38t30 34.5t11.5 29.5q0 8 -6 11.5t-13 3.5q-16 0 -36 -6t-39 -16t-34.5 -21.5t-22.5 -22.5l2 -12q0 -3 -8 -10t-19 -14.5t-23.5 -13t-21.5 -4.5l-46 48q9 28 31.5 54t53 46.5t66 32.5t71.5 12q34 0 61 -9.5
t45.5 -24.5t28.5 -33t10 -36q0 -22 -11.5 -43.5t-32 -43t-48 -42.5t-58.5 -42l-62 -42l135 28q3 5 9.5 8.5t16.5 3.5q4 0 11 -10.5t13.5 -24.5t11.5 -27t5 -18t-7 -7.5t-15 -4.5q-28 -4 -68 -9.5l-80 -11t-72 -10.5t-44 -8q-8 1 -17.5 7.5t-18 16t-15 20t-6.5 19.5z" />
    <glyph glyph-name="uni00B3" unicode="&#xb3;" horiz-adv-x="368" 
d="M423 694q14 -2 30.5 -9t30.5 -18t22.5 -25.5t7.5 -32.5q-3 -35 -22.5 -61t-49.5 -44t-67.5 -27t-74.5 -9q-32 0 -57.5 9t-42.5 22.5t-26.5 28.5t-10.5 27q6 8 12 15q5 5 11 10t11 3t13 -6.5t16 -10.5l16 -12t13 -10q26 0 53 6.5t50 18.5t38 29t17 38q1 8 -5 13t-15 5
q-7 0 -13 -1t-11 -3q-14 -10 -30 -15t-30 -7q-16 5 -28.5 23t-16.5 33q5 5 22.5 14.5t40.5 11.5q9 5 22 15.5t24 22.5t19.5 24t8.5 21q0 15 -17 15t-38 -10.5t-42 -25.5t-39.5 -32t-30.5 -30q-8 0 -17.5 7.5t-18 17.5t-14 19t-5.5 12q2 10 17.5 28.5t41 36t60 30.5t74.5 13
q33 0 55.5 -12t36.5 -28t19.5 -32t4.5 -24q-2 -19 -12 -33.5t-22 -25.5q-14 -12 -31 -23v-2z" />
    <glyph glyph-name="acute" unicode="&#xb4;" 
d="M250 583q-6 -6 -21 -2.5t-29.5 11t-24 16t-5.5 13.5q13 16 26.5 34.5t27 35.5t26.5 30.5t25 19.5q17 7 38 2.5t37.5 -13.5t25 -20.5t1.5 -17.5q-42 -35 -74.5 -62.5t-52.5 -46.5z" />
    <glyph glyph-name="paragraph" unicode="&#xb6;" horiz-adv-x="612" 
d="M237 -215q6 42 14.5 92.5t19.5 106.5t23.5 115t26.5 118q-46 34 -90.5 53t-71.5 21q-4 0 -9.5 12.5t-10 28t-8 29t-3.5 16.5q-1 16 22 32.5t60.5 32.5t85.5 30t97 24q8 27 15.5 50.5t15.5 41.5q20 4 34.5 -2t16.5 -26q-18 -75 -40 -162t-43 -178.5t-39.5 -184
t-30.5 -178.5q15 3 15 -10q0 -9 -3.5 -19.5t-9 -22t-12 -22t-12.5 -17.5q-7 -9 -16.5 -9t-19 5t-17 12t-10.5 11zM375 -106q15 82 30 170.5t32 173.5t36 161t41 133q17 -3 33.5 -7t25.5 -15q-26 -86 -44.5 -157.5t-32.5 -143.5t-25.5 -152.5t-23.5 -182.5q0 -11 -10.5 -10.5
t-23.5 6t-24.5 13t-13.5 11.5z" />
    <glyph glyph-name="periodcentered" unicode="&#xb7;" horiz-adv-x="309" 
d="M139 300q-17 6 -29 17.5t-12 34.5q0 13 6 30t19.5 33t35.5 27t55 11q8 0 17.5 -4t18 -12.5t14.5 -21.5t6 -32q0 -12 -3.5 -33t-13.5 -41.5t-26.5 -35.5t-41.5 -15q-26 0 -39.5 8t-6.5 34z" />
    <glyph glyph-name="cedilla" unicode="&#xb8;" 
d="M384 -179q0 -44 -32.5 -69.5t-80.5 -25.5q-27 0 -47 8t-33 20.5t-19 27t-6 26.5q0 15 9 23t23 8q5 0 8.5 -1t6.5 -2q4 -1 6 -2q1 -11 5 -22t10.5 -21t16 -16t23.5 -6q15 0 25.5 8t10.5 27q0 22 -13.5 36t-30 22.5t-32 13t-18.5 8.5q-6 6 3 22t24 33.5t30.5 32.5t21.5 19
q9 8 18.5 9.5t16.5 -1t11.5 -8.5t4.5 -12q0 -7 -7 -14.5t-17 -15.5t-19.5 -16t-15.5 -14q15 -4 32 -12t31.5 -20t24 -28.5t9.5 -37.5z" />
    <glyph glyph-name="uni00B9" unicode="&#xb9;" horiz-adv-x="328" 
d="M170 508q0 3 13 8t30 10t34.5 9t27.5 6q-5 8 -9.5 10.5t-2.5 7.5q6 23 13.5 49.5t15 52t14 49.5t11.5 43q-9 -8 -22 -16.5t-26 -15.5t-24 -11.5t-15 -4.5q-10 0 -19.5 5.5t-17.5 13.5t-13 17t-5 15t18 13t34 15q26 12 45.5 23.5t37 22t34 21t37.5 21.5q16 -6 31 -11
q12 -5 24 -11t17 -13q-2 -8 -7.5 -21.5t-13.5 -26.5q-2 -3 -8 -23.5t-14.5 -51.5t-17.5 -70t-18 -79q34 8 51.5 11.5t25.5 3.5q2 0 8 -10.5t12 -23t10.5 -23l4.5 -10.5q0 -2 -1.5 -5.5t-1.5 -5.5q-28 -4 -63 -10.5t-72 -14t-72.5 -15t-64.5 -13.5q-3 -1 -10 6.5t-14 18
t-12 20.5t-5 14z" />
    <glyph glyph-name="ordmasculine" unicode="&#xba;" horiz-adv-x="345" 
d="M58 456q2 32 14 67t30 65t41 50.5t47 25.5q10 -4 16.5 -8t8.5 -9l10 4t11 3t14 1q40 0 64 -11t37 -29.5t16.5 -42.5t2.5 -49q-2 -27 -10.5 -66.5t-28 -76t-52 -62t-80.5 -25.5q-40 0 -67.5 15.5t-44 39t-23.5 52.5t-6 56zM160 436q-3 -33 4 -56t25 -23q20 0 35 24.5
t25.5 56.5t16 63t6.5 43q0 7 1 17t0 19.5t-4.5 16t-12.5 6.5q-12 0 -24 -16.5t-22 -38.5t-17.5 -44.5t-10.5 -34.5q0 -2 -7 0.5t-9 4.5q-2 -5 -3 -11q-1 -5 -2 -12t-1 -15zM102 164q-9 -2 -18 8.5t-15.5 24t-8.5 25t4 13.5q23 7 55.5 12.5t64.5 9t59.5 5t41.5 0.5
q4 0 12 -12.5t14 -27.5t7 -27t-9 -12q-57 -2 -109 -6.5t-98 -12.5z" />
    <glyph glyph-name="guillemotright" unicode="&#xbb;" horiz-adv-x="573" 
d="M538 208q-29 -28 -61 -56t-61.5 -51t-52 -37.5t-32.5 -14.5q-9 0 -20 9t-19.5 21t-13.5 23.5t-2 17.5q12 9 30.5 24t39.5 33t43.5 39t42.5 43q-31 44 -64 74t-62 61q-8 9 -7 18.5t8 14.5l21 15q17 15 38 -4q18 -16 41.5 -38t48.5 -47t49 -50.5t42 -47.5zM325 223
q-29 -28 -58 -54.5t-54 -47.5t-44 -33.5t-28 -12.5q-10 0 -20 9t-17.5 21t-11 23.5t-1.5 17.5q23 22 56 50.5t71 73.5q-15 22 -26 37t-20.5 27t-19.5 24t-24 27q-9 9 -11 21.5t4 18.5l17 20q15 17 39 -5q18 -16 37.5 -37t40 -45t40.5 -48.5t38 -46.5z" />
    <glyph glyph-name="onequarter" unicode="&#xbc;" horiz-adv-x="967" 
d="M543 158q-1 5 3 21t11 38.5t16 48.5t19 50t19 43.5t17 30.5q4 6 20 4t33 -7t31 -11.5t15 -10.5q-27 -58 -46.5 -102t-28.5 -77q3 0 15 3t25.5 6.5t25.5 7.5t16 6q4 15 11 39t14 49.5t13 50t9 40.5q6 1 21 -1t31 -7t28 -11.5t14 -14.5q1 -4 -4 -25t-11 -45q-7 -28 -16 -63
q2 0 9 2t10 2q10 -1 18 -10t13.5 -20t8 -22t1.5 -17l-77 -16q-7 -27 -15 -69t-19 -79q-2 -6 -5.5 -9t-14.5 -1q-3 1 -16 5t-28 8.5t-27 9t-12 6.5v2l30 113l-2 1q-22 -6 -55.5 -14.5t-58.5 -10.5zM256 62q4 9 9.5 11.5t10 2.5h8.5t6 3q36 61 75 132.5t78.5 143t77.5 137.5
t71.5 117t60.5 81.5t45 30.5q8 0 16.5 -3.5t15 -9.5t9.5 -13t2 -14q-21 -21 -50 -62.5t-62 -95.5t-68.5 -117.5t-71 -127.5t-68.5 -126t-61 -113.5t-49 -89t-32 -53.5q-7 0 -16.5 4.5t-18 11t-14.5 14.5t-5 15q5 30 12 64t19 57zM64 380q0 3 13 8t30 10t34.5 9t27.5 6
q-5 8 -10 10.5t-3 7.5q6 23 13.5 49.5t15.5 52t14.5 49.5t11.5 43q-9 -8 -22.5 -16.5t-26.5 -15.5t-24 -11.5t-15 -4.5q-10 0 -19.5 5.5t-17.5 13.5t-13 17t-5 15q0 3 5.5 6.5t13.5 7t17 7t17 7.5q26 12 45.5 23.5t36.5 22t33.5 21t37.5 21.5q17 -6 32 -11q13 -5 24 -11
t16 -13q-1 -8 -7 -21.5t-14 -26.5q-2 -3 -8 -23.5t-14 -51.5t-17 -70t-18 -79q33 8 50.5 11.5t25.5 3.5q3 0 8.5 -10.5t11.5 -23t10.5 -23l4.5 -10.5q0 -2 -1.5 -5.5t-1.5 -5.5q-28 -4 -63 -10.5t-71.5 -14t-72 -15t-64.5 -13.5q-3 -1 -10.5 6.5t-14.5 18t-12 20.5t-4 14z
" />
    <glyph glyph-name="onehalf" unicode="&#xbd;" horiz-adv-x="967" 
d="M257 62q5 9 10 11.5t10 2.5h8.5t5.5 3q36 61 75.5 132.5l79 143t77.5 137.5t71.5 117t61 81.5t44.5 30.5q8 0 16 -3.5t14.5 -9.5t10 -13t2.5 -14q-21 -21 -50 -62.5t-62 -95.5t-68.5 -117.5t-71 -127.5t-68.5 -126t-61 -113.5t-49.5 -89t-32.5 -53.5q-7 0 -16.5 4.5
t-18 11t-14 14.5t-4.5 15q5 30 12 64t18 57zM65 380q0 3 13 8t30 10t34.5 9t27.5 6q-5 8 -9.5 10.5t-2.5 7.5q6 23 13.5 49.5t15 52t14 49.5t11.5 43q-9 -8 -22 -16.5t-26 -15.5t-24 -11.5t-15 -4.5q-10 0 -19.5 5.5t-17.5 13.5t-13 17t-5 15t18 13t34 15q26 12 45.5 23.5
t37 22t34 21t37.5 21.5q16 -6 31 -11q12 -5 24 -11t17 -13q-2 -8 -7.5 -21.5t-13.5 -26.5q-2 -3 -8 -23.5t-14.5 -51.5t-17.5 -70t-18 -79q34 8 51.5 11.5t25.5 3.5q2 0 8 -10.5t12 -23t10.5 -23l4.5 -10.5q0 -2 -1.5 -5.5t-1.5 -5.5q-28 -4 -63 -10.5t-72 -14t-72.5 -15
t-64.5 -13.5q-3 -1 -10 6.5t-14 18t-12 20.5t-5 14zM562 55q-2 2 -2.5 10t0.5 9l110 87q24 19 48 38.5t43 37.5t30.5 34.5t11.5 29.5q0 8 -6.5 12t-13.5 4q-15 0 -35 -6t-39 -16t-35 -21.5t-23 -22.5l2 -13q0 -3 -8 -10t-19 -14t-23.5 -12.5t-21.5 -5.5l-46 48q9 28 31.5 54
t53 46.5t66 32.5t71.5 12q34 0 61 -9.5t45.5 -24t28.5 -33t10 -36.5q0 -22 -11.5 -43.5t-32 -43t-48 -42.5t-58.5 -42l-62 -41l135 27q3 5 9.5 8.5t16.5 3.5q4 0 11 -10.5t14 -24.5t11.5 -27t4.5 -18t-7 -7.5t-14 -4.5q-28 -4 -68.5 -9.5t-80 -11t-72 -10t-44.5 -7.5
q-8 0 -17.5 6.5t-18 16t-15 20t-6.5 19.5z" />
    <glyph glyph-name="threequarters" unicode="&#xbe;" horiz-adv-x="967" 
d="M546 158q-1 5 3.5 21t11 38.5t16 48.5t19 50t19 43.5t16.5 30.5q4 6 20 4t33 -7t31 -11.5t15 -10.5q-26 -58 -45.5 -102t-28.5 -77q3 0 15 3t25.5 6.5t25.5 7.5t16 6q4 15 11 39t14 49.5t13 50t9 40.5q6 1 20.5 -1t30.5 -7t28.5 -11.5t14.5 -14.5q0 -4 -5 -25t-11 -45
q-7 -28 -16 -63q2 0 9.5 2t10.5 2q10 -1 18 -10t13 -20t7.5 -22t1.5 -17l-77 -16q-6 -27 -14.5 -69t-19.5 -79q-2 -6 -5.5 -9t-13.5 -1q-3 1 -16.5 5t-28.5 8.5t-26.5 9t-11.5 6.5v2l29 113l-2 1q-22 -6 -55 -14.5t-58 -10.5zM319 544q14 -2 30.5 -9t30.5 -18t22.5 -25.5
t7.5 -32.5q-3 -35 -22.5 -61t-49.5 -44t-67.5 -27t-74.5 -9q-33 0 -58 9t-42.5 22.5t-26.5 28.5t-10 27q5 8 11 15q5 5 11 10t12 3q5 -2 12.5 -6.5t16 -10.5t16 -12l12.5 -10q26 0 53.5 6.5t50 18.5t38 29t17.5 38q0 18 -20 18q-7 0 -13.5 -1t-11.5 -3q-14 -10 -29.5 -15
t-29.5 -7q-17 5 -29 23t-16 33q5 5 22.5 14.5t40.5 11.5q9 5 22 15.5t24 22.5t19.5 24t8.5 21q0 15 -17 15t-38 -10.5t-42 -25.5t-40 -32t-31 -30q-8 0 -17.5 7.5t-17.5 17.5t-13.5 19t-5.5 12q2 10 17.5 28.5t41 36t60 30.5t74.5 13q33 0 55.5 -12t36.5 -28t19.5 -32
t4.5 -24q-2 -19 -12 -33.5t-22 -25.5q-14 -12 -31 -23v-2zM259 62q5 9 10 11.5t10 2.5h8.5t5.5 3q36 61 75 132.5t79 143t78 137.5t71.5 117t61 81.5t44.5 30.5q8 0 16 -3.5t14.5 -9.5t9.5 -13t2 -14q-21 -21 -49.5 -62.5t-61.5 -95.5t-69 -117.5t-71 -127.5t-68 -126
t-61 -113.5t-49.5 -89t-32.5 -53.5q-7 0 -16.5 4.5t-18 11t-14 14.5t-4.5 15q5 30 11.5 64t18.5 57z" />
    <glyph glyph-name="questiondown" unicode="&#xbf;" horiz-adv-x="506" 
d="M487 -5q-13 -53 -45 -97.5t-76 -77t-97 -51t-108 -18.5q-38 0 -71.5 15.5t-59.5 39.5t-41 53.5t-15 58.5q0 30 14 59t36 58t50.5 57.5t58 57.5t56.5 58t48 58q6 6 21.5 0t33 -18t32 -26.5t19.5 -26.5q-15 -28 -40 -55t-54 -53l-58 -52t-52.5 -51.5t-38.5 -51t-15 -51.5
q0 -17 10 -26.5t27 -9.5q29 0 60 9t60 26.5t53.5 42t41.5 54.5l-14 15q0 5 9.5 15t24 21t30.5 22t29 17zM394 461q0 -12 -6 -32t-20.5 -39t-37.5 -32.5t-56 -13.5q-8 0 -19 3t-21 10.5t-17 19.5t-7 30q0 12 4.5 32t15.5 39.5t29 34t44 14.5q17 0 33.5 -5t29 -14t20.5 -21
t8 -26z" />
    <glyph glyph-name="Agrave" unicode="&#xc0;" horiz-adv-x="496" 
d="M341 109q-2 30 -2 60.5t1 62.5q-44 -2 -91 -7.5t-90 -12.5q-24 -63 -44.5 -134.5t-35.5 -152.5q-2 -11 -21.5 -10t-42.5 8t-43 17.5t-22 18.5q5 48 23 109t45 130q-9 7 -16 19t-10.5 24.5t-3.5 22.5t6 14q8 5 26.5 11t43.5 12q33 70 73 138t83 125.5t88 100.5t88 63
q14 1 30 -1.5t30 -8.5t26 -13.5t18 -14.5q-22 -100 -31 -206.5t-9.5 -204t4 -176.5t10.5 -123q-2 -11 -21 -10t-41.5 7.5t-42.5 17t-25 18.5q-11 20 -15 46t-3 47zM373 583q-35 -38 -78 -102t-86 -154l50 5q11 1 24 2t24.5 1t20 -2t10.5 -7q3 -5 6 -7q4 64 12 129t22 134z
M346 897q-7 10 -4.5 20t14.5 14q6 1 18 3.5t25 2.5t25 -2.5t17 -10.5q7 -13 18.5 -34.5t22.5 -42.5t19.5 -37.5t10.5 -20.5q5 -8 1 -17t-12 -11q-14 -5 -34 -6t-28 11z" />
    <glyph glyph-name="Aacute" unicode="&#xc1;" horiz-adv-x="496" 
d="M341 109q-2 30 -2 60.5t1 62.5q-44 -2 -91 -7.5t-90 -12.5q-24 -63 -44.5 -134.5t-35.5 -152.5q-2 -11 -21.5 -10t-42.5 8t-43 17.5t-22 18.5q5 48 23 109t45 130q-9 7 -16 19t-10.5 24.5t-3.5 22.5t6 14q8 5 26.5 11t43.5 12q33 70 73 138t83 125.5t88 100.5t88 63
q14 1 30 -1.5t30 -8.5t26 -13.5t18 -14.5q-22 -100 -31 -206.5t-9.5 -204t4 -176.5t10.5 -123q-2 -11 -21 -10t-41.5 7.5t-42.5 17t-25 18.5q-11 20 -15 46t-3 47zM373 583q-35 -38 -78 -102t-86 -154l50 5q11 1 24 2t24.5 1t20 -2t10.5 -7q3 -5 6 -7q4 64 12 129t22 134z
M477 756q-6 -6 -21 -2.5t-29.5 11t-24 16t-5.5 13.5q13 16 26.5 34.5t27 35.5t26.5 30.5t25 19.5q17 7 38 2.5t37.5 -13.5t25 -20.5t1.5 -17.5q-42 -35 -74.5 -62.5t-52.5 -46.5z" />
    <glyph glyph-name="Acircumflex" unicode="&#xc2;" horiz-adv-x="496" 
d="M341 109q-2 30 -2 60.5t1 62.5q-44 -2 -91 -7.5t-90 -12.5q-24 -63 -44.5 -134.5t-35.5 -152.5q-2 -11 -21.5 -10t-42.5 8t-43 17.5t-22 18.5q5 48 23 109t45 130q-9 7 -16 19t-10.5 24.5t-3.5 22.5t6 14q8 5 26.5 11t43.5 12q33 70 73 138t83 125.5t88 100.5t88 63
q14 1 30 -1.5t30 -8.5t26 -13.5t18 -14.5q-22 -100 -31 -206.5t-9.5 -204t4 -176.5t10.5 -123q-2 -11 -21 -10t-41.5 7.5t-42.5 17t-25 18.5q-11 20 -15 46t-3 47zM373 583q-35 -38 -78 -102t-86 -154l50 5q11 1 24 2t24.5 1t20 -2t10.5 -7q3 -5 6 -7q4 64 12 129t22 134z
M312 795q-25 15 4 37q11 9 26.5 21t33 25.5t34.5 26t31 22.5l49 -7q10 -13 25 -34t29 -42t25 -37t13 -19q5 -8 1 -16.5t-12 -10.5q-15 -4 -30 -3.5t-23 8.5q-5 6 -12.5 16t-15.5 21t-15.5 21t-12.5 16q-17 -14 -34.5 -28t-37.5 -31q-8 -7 -18 -11t-21 3z" />
    <glyph glyph-name="Atilde" unicode="&#xc3;" horiz-adv-x="496" 
d="M341 109q-2 30 -2 60.5t1 62.5q-44 -2 -91 -7.5t-90 -12.5q-24 -63 -44.5 -134.5t-35.5 -152.5q-2 -11 -21.5 -10t-42.5 8t-43 17.5t-22 18.5q5 48 23 109t45 130q-9 7 -16 19t-10.5 24.5t-3.5 22.5t6 14q8 5 26.5 11t43.5 12q33 70 73 138t83 125.5t88 100.5t88 63
q14 1 30 -1.5t30 -8.5t26 -13.5t18 -14.5q-22 -100 -31 -206.5t-9.5 -204t4 -176.5t10.5 -123q-2 -11 -21 -10t-41.5 7.5t-42.5 17t-25 18.5q-11 20 -15 46t-3 47zM373 583q-35 -38 -78 -102t-86 -154l50 5q11 1 24 2t24.5 1t20 -2t10.5 -7q3 -5 6 -7q4 64 12 129t22 134z
M334 764q-6 0 -11.5 5.5t-9.5 13.5t-4.5 16.5t2.5 14.5q4 7 12.5 17t20 19t25 15.5t27.5 6.5q21 0 36 -6t27.5 -13.5t23 -13.5t21.5 -6q10 0 19 4.5t16.5 10t14 10t12.5 4.5q5 0 10 -5t8 -12.5t3.5 -17t-3.5 -17.5q-3 -7 -12 -17t-21.5 -19t-28.5 -15t-33 -6q-18 0 -33 6
t-28.5 13t-25 13t-22.5 6q-7 0 -13.5 -4t-12 -9.5t-11 -9.5t-9.5 -4z" />
    <glyph glyph-name="Adieresis" unicode="&#xc4;" horiz-adv-x="496" 
d="M341 109q-2 30 -2 60.5t1 62.5q-44 -2 -91 -7.5t-90 -12.5q-24 -63 -44.5 -134.5t-35.5 -152.5q-2 -11 -21.5 -10t-42.5 8t-43 17.5t-22 18.5q5 48 23 109t45 130q-9 7 -16 19t-10.5 24.5t-3.5 22.5t6 14q8 5 26.5 11t43.5 12q33 70 73 138t83 125.5t88 100.5t88 63
q14 1 30 -1.5t30 -8.5t26 -13.5t18 -14.5q-22 -100 -31 -206.5t-9.5 -204t4 -176.5t10.5 -123q-2 -11 -21 -10t-41.5 7.5t-42.5 17t-25 18.5q-11 20 -15 46t-3 47zM373 583q-35 -38 -78 -102t-86 -154l50 5q11 1 24 2t24.5 1t20 -2t10.5 -7q3 -5 6 -7q4 64 12 129t22 134z
M308 786q-15 5 -26.5 14.5t-11.5 29.5q0 11 5.5 25.5t18 28t32.5 23t50 9.5q7 0 16.5 -3.5t17 -10.5t13 -18t5.5 -27q0 -10 -3 -27.5t-11.5 -34t-24.5 -28.5t-42 -12q-19 0 -29.5 5.5t-9.5 25.5zM461 818q0 10 5 25t17 28t31.5 22.5t48.5 9.5q7 0 17 -3t18.5 -10t14.5 -18
t6 -27q0 -10 -3.5 -28t-12.5 -35.5t-24 -30.5t-38 -13q-15 0 -29.5 8t-25.5 20t-18 26t-7 26z" />
    <glyph glyph-name="Aring" unicode="&#xc5;" horiz-adv-x="496" 
d="M351 755q0 18 8 36.5t24 34t40 25.5t56 10q59 0 82.5 -26t23.5 -66q0 -36 -24 -62.5t-65 -35.5q-20 -99 -28 -203t-8.5 -198t4 -170.5t10.5 -119.5q-2 -11 -21 -10t-41.5 7.5t-42.5 17t-25 18.5q-11 20 -15 46t-3 47l15 3q-2 30 -2 60.5t1 62.5q-44 -2 -91 -7.5
t-90 -12.5q-24 -63 -44.5 -134.5t-35.5 -152.5q-2 -11 -21.5 -10t-42.5 8t-43 17.5t-22 18.5q5 48 23 109t45 130q-9 7 -16 19t-10.5 24.5t-3.5 22.5t6 14q8 5 26.5 11t43.5 12q30 64 66 126t74.5 116t79 97.5t80.5 69.5q-13 19 -13 45zM373 583q-35 -38 -78 -102t-86 -154
l50 5q11 1 24 2t24.5 1t20 -2t10.5 -7q3 -5 6 -7q4 64 12 129t22 134zM435 754q0 -11 7.5 -17.5t17.5 -6.5q20 0 32.5 11t12.5 31q0 11 -7 19t-19 8q-24 0 -34 -13t-10 -32z" />
    <glyph glyph-name="AE" unicode="&#xc6;" horiz-adv-x="725" 
d="M267 57q17 5 32.5 8.5t32.5 7.5l-1 26q-3 68 0 142l-170 -31q-24 -65 -44.5 -137t-35.5 -151q-2 -11 -21.5 -9t-43 9.5t-43.5 16.5t-23 13q6 48 24.5 109t46.5 130q-9 6 -17 17.5t-13 23.5t-5.5 22t5.5 14q5 3 24.5 8.5t48.5 13.5q34 72 74.5 141.5t84.5 129t89.5 103.5
t89.5 64q13 -2 28 -3.5t29 -4.5t26 -8t18 -12l-9 -40q48 10 99 18.5t86 10.5t61 0t44 -19q2 -2 6.5 -9t9 -15.5t8 -16.5t3.5 -11t-10.5 -11.5t-24 -18t-26 -18t-17.5 -11.5q-5 -2 -13 -4t-15.5 -2.5t-13 1t-3.5 4.5q2 9 7 22q3 6 6 13q-41 -5 -64.5 -8t-37 -4.5t-21.5 -3
t-19 -4t-29.5 -6t-52.5 -10.5q-6 -46 -10 -92t-6 -91q38 8 67 12t42 5q22 2 44.5 2.5t27.5 -9.5q2 -5 5.5 -6.5t8 -1.5t9.5 -1t10 -6q1 -2 5.5 -9t9 -15t8 -15.5t3.5 -10.5q0 -5 -4 -12.5t-16 -8.5q-30 -3 -90.5 -12.5t-132.5 -22.5q0 -44 1 -84t3 -75q96 22 166.5 33
t115.5 9q6 0 18 -15.5t21.5 -34t11.5 -34t-12 -15.5q-63 -2 -138.5 -13.5t-174.5 -31.5l4 -32q-3 -5 -16 -6t-30.5 1t-36 6t-32.5 10l-32 -7q-12 -2 -26.5 9.5t-24.5 27.5t-14 30t5 16zM363 573q-35 -37 -75.5 -100t-79.5 -150q32 7 64.5 14t64.5 13q5 55 12.5 110.5
t18.5 111.5z" />
    <glyph glyph-name="Ccedilla" unicode="&#xc7;" horiz-adv-x="489" 
d="M306 -179q0 -44 -32.5 -69.5t-80.5 -25.5q-27 0 -47 8t-33 20.5t-19 27t-6 26.5q0 15 9 23t23 8q5 0 8.5 -1t6.5 -2q4 -1 6 -2q1 -11 5 -22t10.5 -21t16 -16t23.5 -6q15 0 25.5 8t10.5 27q0 22 -13.5 36t-30 22.5t-32 13t-18.5 8.5q-4 4 -1.5 12.5t9 19t16.5 22t20 21.5
q-81 26 -125.5 98t-44.5 179q0 47 10 101.5t29 108t46.5 102.5t62.5 86.5t76.5 60t88.5 22.5q28 0 56.5 -11.5t51.5 -32.5t38 -49t15 -61q0 -35 -11 -67t-27.5 -56t-35.5 -38.5t-35 -14.5q-14 0 -25.5 5.5t-20 14t-14.5 17.5t-9 17q17 24 31 51q12 23 22 52.5t12 60.5
q0 16 -10.5 24.5t-21.5 8.5q-17 0 -38.5 -18.5t-44 -50.5t-44 -75t-38.5 -92t-27 -102t-10 -104q0 -77 24.5 -113.5t66.5 -36.5q41 0 69.5 25.5t47 62t28.5 78t15 74.5q6 2 14 4q7 2 15.5 3t19.5 1q21 0 38.5 -17.5t17.5 -62.5q0 -36 -13.5 -82t-42 -87t-72 -69.5
t-103.5 -28.5q-5 0 -10.5 0.5t-10.5 0.5q-10 -8 -19.5 -15t-14.5 -14q15 -4 32 -12t31.5 -20t24 -28.5t9.5 -37.5z" />
    <glyph glyph-name="Egrave" unicode="&#xc8;" horiz-adv-x="464" 
d="M92 540q-10 -2 -23 8.5t-23 24.5t-14 26.5t4 15.5q32 11 67 20.5t70 17.5q8 20 16.5 38t17.5 34q26 -3 56 -10t44 -18l-7 -19q37 7 67.5 11t50.5 6q14 1 28 3t27.5 2t25.5 -4t22 -13q2 -2 6.5 -10.5t9 -18t8 -18.5t3.5 -12t-10.5 -11.5t-23.5 -18t-26 -18t-17 -11.5
q-9 -4 -19.5 -6.5t-18.5 -3t-13 1.5t-5 6q0 5 1 10t3 10t4 11q-41 -3 -77 -8t-78 -12q-12 -45 -22.5 -89.5t-18.5 -89.5l50 5q35 2 60 3t34 -7q7 -6 14 -15t12.5 -17t9 -15t3.5 -10q0 -5 -2.5 -13t-15.5 -8q-43 -1 -90.5 -6.5t-91.5 -12.5q-8 -49 -13 -99t-10 -103
q102 24 177 36t122 10q6 0 18 -15t20.5 -33t10 -33t-12.5 -15q-68 -2 -151 -14t-192 -33l-2 -40q-1 -9 -13 -9t-29 4t-35.5 11t-30.5 13l-6 -2q-12 -2 -25.5 8.5t-23.5 24.5t-13 27t5 15l54 14q4 49 10.5 102t14.5 108h-3q-12 -2 -25 7t-22 21.5t-12 24.5t3 17q8 5 28 11.5
t46 13.5q9 47 19 92t21 87q-11 -2 -23 -5t-25 -5zM206 892q-7 10 -4.5 20t14.5 14q6 1 18 3.5t25 2.5t25 -2.5t17 -10.5q7 -13 18.5 -34.5t22.5 -42.5t19.5 -37.5t10.5 -20.5q5 -8 1 -17t-12 -11q-14 -5 -34 -6t-28 11z" />
    <glyph glyph-name="Eacute" unicode="&#xc9;" horiz-adv-x="464" 
d="M92 540q-10 -2 -23 8.5t-23 24.5t-14 26.5t4 15.5q32 11 67 20.5t70 17.5q8 20 16.5 38t17.5 34q26 -3 56 -10t44 -18l-7 -19q37 7 67.5 11t50.5 6q14 1 28 3t27.5 2t25.5 -4t22 -13q2 -2 6.5 -10.5t9 -18t8 -18.5t3.5 -12t-10.5 -11.5t-23.5 -18t-26 -18t-17 -11.5
q-9 -4 -19.5 -6.5t-18.5 -3t-13 1.5t-5 6q0 5 1 10t3 10t4 11q-41 -3 -77 -8t-78 -12q-12 -45 -22.5 -89.5t-18.5 -89.5l50 5q35 2 60 3t34 -7q7 -6 14 -15t12.5 -17t9 -15t3.5 -10q0 -5 -2.5 -13t-15.5 -8q-43 -1 -90.5 -6.5t-91.5 -12.5q-8 -49 -13 -99t-10 -103
q102 24 177 36t122 10q6 0 18 -15t20.5 -33t10 -33t-12.5 -15q-68 -2 -151 -14t-192 -33l-2 -40q-1 -9 -13 -9t-29 4t-35.5 11t-30.5 13l-6 -2q-12 -2 -25.5 8.5t-23.5 24.5t-13 27t5 15l54 14q4 49 10.5 102t14.5 108h-3q-12 -2 -25 7t-22 21.5t-12 24.5t3 17q8 5 28 11.5
t46 13.5q9 47 19 92t21 87q-11 -2 -23 -5t-25 -5zM336 752q-6 -6 -21 -2.5t-29.5 11t-24 16t-5.5 13.5q13 16 26.5 34.5t27 35.5t26.5 30.5t25 19.5q17 7 38 2.5t37.5 -13.5t25 -20.5t1.5 -17.5q-42 -35 -74.5 -62.5t-52.5 -46.5z" />
    <glyph glyph-name="Ecircumflex" unicode="&#xca;" horiz-adv-x="464" 
d="M92 540q-10 -2 -23 8.5t-23 24.5t-14 26.5t4 15.5q32 11 67 20.5t70 17.5q8 20 16.5 38t17.5 34q26 -3 56 -10t44 -18l-7 -19q37 7 67.5 11t50.5 6q14 1 28 3t27.5 2t25.5 -4t22 -13q2 -2 6.5 -10.5t9 -18t8 -18.5t3.5 -12t-10.5 -11.5t-23.5 -18t-26 -18t-17 -11.5
q-9 -4 -19.5 -6.5t-18.5 -3t-13 1.5t-5 6q0 5 1 10t3 10t4 11q-41 -3 -77 -8t-78 -12q-12 -45 -22.5 -89.5t-18.5 -89.5l50 5q35 2 60 3t34 -7q7 -6 14 -15t12.5 -17t9 -15t3.5 -10q0 -5 -2.5 -13t-15.5 -8q-43 -1 -90.5 -6.5t-91.5 -12.5q-8 -49 -13 -99t-10 -103
q102 24 177 36t122 10q6 0 18 -15t20.5 -33t10 -33t-12.5 -15q-68 -2 -151 -14t-192 -33l-2 -40q-1 -9 -13 -9t-29 4t-35.5 11t-30.5 13l-6 -2q-12 -2 -25.5 8.5t-23.5 24.5t-13 27t5 15l54 14q4 49 10.5 102t14.5 108h-3q-12 -2 -25 7t-22 21.5t-12 24.5t3 17q8 5 28 11.5
t46 13.5q9 47 19 92t21 87q-11 -2 -23 -5t-25 -5zM170 786q-25 15 4 37q11 9 26.5 21t33 25.5t34.5 26t31 22.5l49 -7q10 -13 25 -34t29 -42t25 -37t13 -19q5 -8 1 -16.5t-12 -10.5q-15 -4 -30 -3.5t-23 8.5q-5 6 -12.5 16t-15.5 21t-15.5 21t-12.5 16q-17 -14 -34.5 -28
t-37.5 -31q-8 -7 -18 -11t-21 3z" />
    <glyph glyph-name="Edieresis" unicode="&#xcb;" horiz-adv-x="464" 
d="M92 540q-10 -2 -23 8.5t-23 24.5t-14 26.5t4 15.5q32 11 67 20.5t70 17.5q8 20 16.5 38t17.5 34q26 -3 56 -10t44 -18l-7 -19q37 7 67.5 11t50.5 6q14 1 28 3t27.5 2t25.5 -4t22 -13q2 -2 6.5 -10.5t9 -18t8 -18.5t3.5 -12t-10.5 -11.5t-23.5 -18t-26 -18t-17 -11.5
q-9 -4 -19.5 -6.5t-18.5 -3t-13 1.5t-5 6q0 5 1 10t3 10t4 11q-41 -3 -77 -8t-78 -12q-12 -45 -22.5 -89.5t-18.5 -89.5l50 5q35 2 60 3t34 -7q7 -6 14 -15t12.5 -17t9 -15t3.5 -10q0 -5 -2.5 -13t-15.5 -8q-43 -1 -90.5 -6.5t-91.5 -12.5q-8 -49 -13 -99t-10 -103
q102 24 177 36t122 10q6 0 18 -15t20.5 -33t10 -33t-12.5 -15q-68 -2 -151 -14t-192 -33l-2 -40q-1 -9 -13 -9t-29 4t-35.5 11t-30.5 13l-6 -2q-12 -2 -25.5 8.5t-23.5 24.5t-13 27t5 15l54 14q4 49 10.5 102t14.5 108h-3q-12 -2 -25 7t-22 21.5t-12 24.5t3 17q8 5 28 11.5
t46 13.5q9 47 19 92t21 87q-11 -2 -23 -5t-25 -5zM153 789q-15 5 -26.5 14.5t-11.5 29.5q0 11 5.5 25.5t18 28t32.5 23t50 9.5q7 0 16.5 -3.5t17 -10.5t13 -18t5.5 -27q0 -10 -3 -27.5t-11.5 -34t-24.5 -28.5t-42 -12q-19 0 -29.5 5.5t-9.5 25.5zM306 821q0 10 5 25t17 28
t31.5 22.5t48.5 9.5q7 0 17 -3t18.5 -10t14.5 -18t6 -27q0 -10 -3.5 -28t-12.5 -35.5t-24 -30.5t-38 -13q-15 0 -29.5 8t-25.5 20t-18 26t-7 26z" />
    <glyph glyph-name="Igrave" unicode="&#xcc;" horiz-adv-x="453" 
d="M133 119q9 60 21 125.5t25 129t26.5 120t25.5 98.5q-30 -6 -63.5 -12.5t-74.5 -14.5q-12 -2 -25 10t-22 28t-12 30.5t5 17.5q52 17 106 28.5t103.5 19t91 11t68.5 5.5q35 2 61.5 -1.5t44.5 -20.5q2 -2 6.5 -8t9 -13.5t8 -14.5t3.5 -10t-7 -8.5t-16 -11.5t-18.5 -11.5
t-15.5 -7.5q-9 -4 -15.5 -2.5t-11.5 5t-10.5 7.5t-12.5 4q-38 -3 -76 -9q-13 -48 -27.5 -114t-28 -135.5t-24.5 -134.5t-18 -110q56 10 98.5 14.5t75.5 2.5q6 0 18.5 -15.5t21.5 -34t10.5 -34t-12.5 -15.5q-42 -1 -87.5 -4.5t-99.5 -11t-117.5 -18.5t-141.5 -26
q-12 -2 -25 8t-21.5 24.5t-11 27.5t5.5 17q10 5 20 12t19 12.5t16.5 8t14.5 -0.5q8 -4 11.5 -8t6.5 -3l101 24q-12 5 -20.5 10t-9.5 10zM175 889q-7 10 -4.5 20t14.5 14q6 1 18 3.5t25 2.5t25 -2.5t17 -10.5q7 -13 18.5 -34.5t22.5 -42.5t19.5 -37.5t10.5 -20.5q5 -8 1 -17
t-12 -11q-14 -5 -34 -6t-28 11z" />
    <glyph glyph-name="Iacute" unicode="&#xcd;" horiz-adv-x="453" 
d="M133 119q9 60 21 125.5t25 129t26.5 120t25.5 98.5q-30 -6 -63.5 -12.5t-74.5 -14.5q-12 -2 -25 10t-22 28t-12 30.5t5 17.5q52 17 106 28.5t103.5 19t91 11t68.5 5.5q35 2 61.5 -1.5t44.5 -20.5q2 -2 6.5 -8t9 -13.5t8 -14.5t3.5 -10t-7 -8.5t-16 -11.5t-18.5 -11.5
t-15.5 -7.5q-9 -4 -15.5 -2.5t-11.5 5t-10.5 7.5t-12.5 4q-38 -3 -76 -9q-13 -48 -27.5 -114t-28 -135.5t-24.5 -134.5t-18 -110q56 10 98.5 14.5t75.5 2.5q6 0 18.5 -15.5t21.5 -34t10.5 -34t-12.5 -15.5q-42 -1 -87.5 -4.5t-99.5 -11t-117.5 -18.5t-141.5 -26
q-12 -2 -25 8t-21.5 24.5t-11 27.5t5.5 17q10 5 20 12t19 12.5t16.5 8t14.5 -0.5q8 -4 11.5 -8t6.5 -3l101 24q-12 5 -20.5 10t-9.5 10zM358 750q-6 -6 -21 -2.5t-29.5 11t-24 16t-5.5 13.5q13 16 26.5 34.5t27 35.5t26.5 30.5t25 19.5q17 7 38 2.5t37.5 -13.5t25 -20.5
t1.5 -17.5q-42 -35 -74.5 -62.5t-52.5 -46.5z" />
    <glyph glyph-name="Icircumflex" unicode="&#xce;" horiz-adv-x="453" 
d="M133 119q9 60 21 125.5t25 129t26.5 120t25.5 98.5q-30 -6 -63.5 -12.5t-74.5 -14.5q-12 -2 -25 10t-22 28t-12 30.5t5 17.5q52 17 106 28.5t103.5 19t91 11t68.5 5.5q35 2 61.5 -1.5t44.5 -20.5q2 -2 6.5 -8t9 -13.5t8 -14.5t3.5 -10t-7 -8.5t-16 -11.5t-18.5 -11.5
t-15.5 -7.5q-9 -4 -15.5 -2.5t-11.5 5t-10.5 7.5t-12.5 4q-38 -3 -76 -9q-13 -48 -27.5 -114t-28 -135.5t-24.5 -134.5t-18 -110q56 10 98.5 14.5t75.5 2.5q6 0 18.5 -15.5t21.5 -34t10.5 -34t-12.5 -15.5q-42 -1 -87.5 -4.5t-99.5 -11t-117.5 -18.5t-141.5 -26
q-12 -2 -25 8t-21.5 24.5t-11 27.5t5.5 17q10 5 20 12t19 12.5t16.5 8t14.5 -0.5q8 -4 11.5 -8t6.5 -3l101 24q-12 5 -20.5 10t-9.5 10zM196 790q-25 15 4 37q11 9 26.5 21t33 25.5t34.5 26t31 22.5l49 -7q10 -13 25 -34t29 -42t25 -37t13 -19q5 -8 1 -16.5t-12 -10.5
q-15 -4 -30 -3.5t-23 8.5q-5 6 -12.5 16t-15.5 21t-15.5 21t-12.5 16q-17 -14 -34.5 -28t-37.5 -31q-8 -7 -18 -11t-21 3z" />
    <glyph glyph-name="Idieresis" unicode="&#xcf;" horiz-adv-x="453" 
d="M133 119q9 60 21 125.5t25 129t26.5 120t25.5 98.5q-30 -6 -63.5 -12.5t-74.5 -14.5q-12 -2 -25 10t-22 28t-12 30.5t5 17.5q52 17 106 28.5t103.5 19t91 11t68.5 5.5q35 2 61.5 -1.5t44.5 -20.5q2 -2 6.5 -8t9 -13.5t8 -14.5t3.5 -10t-7 -8.5t-16 -11.5t-18.5 -11.5
t-15.5 -7.5q-9 -4 -15.5 -2.5t-11.5 5t-10.5 7.5t-12.5 4q-38 -3 -76 -9q-13 -48 -27.5 -114t-28 -135.5t-24.5 -134.5t-18 -110q56 10 98.5 14.5t75.5 2.5q6 0 18.5 -15.5t21.5 -34t10.5 -34t-12.5 -15.5q-42 -1 -87.5 -4.5t-99.5 -11t-117.5 -18.5t-141.5 -26
q-12 -2 -25 8t-21.5 24.5t-11 27.5t5.5 17q10 5 20 12t19 12.5t16.5 8t14.5 -0.5q8 -4 11.5 -8t6.5 -3l101 24q-12 5 -20.5 10t-9.5 10zM191 789q-15 5 -26.5 14.5t-11.5 29.5q0 11 5.5 25.5t18 28t32.5 23t50 9.5q7 0 16.5 -3.5t17 -10.5t13 -18t5.5 -27q0 -10 -3 -27.5
t-11.5 -34t-24.5 -28.5t-42 -12q-19 0 -29.5 5.5t-9.5 25.5zM344 821q0 10 5 25t17 28t31.5 22.5t48.5 9.5q7 0 17 -3t18.5 -10t14.5 -18t6 -27q0 -10 -3.5 -28t-12.5 -35.5t-24 -30.5t-38 -13q-15 0 -29.5 8t-25.5 20t-18 26t-7 26z" />
    <glyph glyph-name="Eth" unicode="&#xd0;" horiz-adv-x="620" 
d="M115 337q19 5 42.5 8t49.5 5q15 72 30.5 138.5t28.5 116.5q-29 -10 -49.5 -28.5t-34 -41t-21.5 -47.5t-13 -48q0 -1 -5 -1q-4 0 -19 1.5t-31.5 6t-30.5 12t-17 19.5q10 57 40 103q13 19 31 38t43.5 34t58 25t73.5 11q1 10 7 22.5t29 12.5q25 0 49 -8.5t34 -16.5l-7 -23
q52 -14 94.5 -42.5t72.5 -69t46.5 -91t16.5 -108.5q0 -108 -28 -192.5t-76 -143.5t-112.5 -90t-136.5 -31q-66 0 -123.5 21t-101 54t-70 74t-28.5 81q6 9 19 19.5t28 18t30 10t24 -4.5q6 -5 15.5 -14t18 -19.5t14.5 -20.5t7 -17q0 -3 -2 -4.5t-5 -3t-5.5 -2.5t-1.5 -4
q6 -21 17.5 -41t29.5 -35t42.5 -24t55.5 -9q51 0 97.5 31t82 87.5t56 135t20.5 173.5q0 75 -30.5 124.5t-83.5 67.5q-12 -53 -24.5 -118.5t-24.5 -133.5q9 0 17 -0.5t15 -0.5q6 0 17 -13t18.5 -28.5t8 -28t-13.5 -12.5h-77q-12 -67 -20.5 -122.5t-13.5 -84.5q-4 -17 -12 -23
t-21 -6q-16 0 -32.5 4t-30.5 9.5t-23.5 11t-12.5 8.5q6 44 14.5 95.5t19.5 105.5q-6 0 -12 -0.5t-11 -1.5q-12 -2 -25 8t-22 23t-11.5 25t6.5 14z" />
    <glyph glyph-name="Ntilde" unicode="&#xd1;" horiz-adv-x="549" 
d="M372 207q10 49 22.5 109t27 121t30 119.5t30 103.5t27.5 72.5t24 27.5q19 0 38 -2.5t35 -6.5t27.5 -9.5t15.5 -11.5q-48 -117 -81 -222.5t-55 -200t-35 -177t-22 -154.5q-2 -7 -12 -8t-18 -1q-12 0 -28.5 3t-32 9t-28 14t-17.5 19q-17 59 -32.5 131.5t-29 142
t-23.5 128.5t-16 92l-7 5q-11 -27 -23 -75t-22.5 -110t-17 -134t-7.5 -148q0 -5 1.5 -6.5t4 -2t6 -1t8.5 -3.5q7 -4 2.5 -19.5t-12.5 -33.5t-16 -34.5t-9 -22.5q-2 -11 -20 -8.5t-40.5 11t-42 18t-23.5 13.5q2 59 10 132.5t20 150.5t27.5 153.5t34.5 142t40.5 116t44.5 75.5
q12 -2 27 -5.5t29.5 -8.5t26.5 -12t20 -14q3 -33 8.5 -75.5t12 -89.5t14.5 -94.5t15.5 -89.5t15.5 -76t14 -53h11zM282 774q-6 0 -11.5 5.5t-9.5 13.5t-4.5 16.5t2.5 14.5q4 7 12.5 17t20 19t25 15.5t27.5 6.5q21 0 36 -6t27.5 -13.5t23 -13.5t21.5 -6q10 0 19 4.5t16.5 10
t14 10t12.5 4.5q5 0 10 -5t8 -12.5t3.5 -17t-3.5 -17.5q-3 -7 -12 -17t-21.5 -19t-28.5 -15t-33 -6q-18 0 -33 6t-28.5 13t-25 13t-22.5 6q-7 0 -13.5 -4t-12 -9.5t-11 -9.5t-9.5 -4z" />
    <glyph glyph-name="Ograve" unicode="&#xd2;" horiz-adv-x="538" 
d="M12 271q0 73 20 146.5t53 134.5t74 103t83 52q16 -4 21.5 -10t13.5 -14q10 4 21 8q10 3 22.5 6t26.5 3q62 0 102.5 -20t64 -54t32.5 -79t9 -94q0 -33 -5.5 -83.5t-18 -106.5t-34.5 -112.5t-55 -101.5t-79 -73t-106 -28q-66 0 -112.5 29.5t-76 76.5t-43 104t-13.5 113z
M142 231q-1 -39 3.5 -73.5t15 -60t27 -40.5t39.5 -15q35 0 62.5 29t48 74.5t35 100.5t23 106.5t12.5 94t5 61.5q1 21 -1.5 42t-9 37t-17.5 26t-27 10q-28 0 -49 -18t-36 -45t-25 -59t-16 -60q-2 -8 -9 -6q-5 1 -17 6.5t-17 10.5l-6.5 -15.5t-15 -44t-16 -69.5t-9.5 -92z
M230 895q-7 10 -4.5 20t14.5 14q6 1 18 3.5t25 2.5t25 -2.5t17 -10.5q7 -13 18.5 -34.5t22.5 -42.5t19.5 -37.5t10.5 -20.5q5 -8 1 -17t-12 -11q-14 -5 -34 -6t-28 11z" />
    <glyph glyph-name="Oacute" unicode="&#xd3;" horiz-adv-x="538" 
d="M12 271q0 73 20 146.5t53 134.5t74 103t83 52q16 -4 21.5 -10t13.5 -14q10 4 21 8q10 3 22.5 6t26.5 3q62 0 102.5 -20t64 -54t32.5 -79t9 -94q0 -33 -5.5 -83.5t-18 -106.5t-34.5 -112.5t-55 -101.5t-79 -73t-106 -28q-66 0 -112.5 29.5t-76 76.5t-43 104t-13.5 113z
M142 231q-1 -39 3.5 -73.5t15 -60t27 -40.5t39.5 -15q35 0 62.5 29t48 74.5t35 100.5t23 106.5t12.5 94t5 61.5q1 21 -1.5 42t-9 37t-17.5 26t-27 10q-28 0 -49 -18t-36 -45t-25 -59t-16 -60q-2 -8 -9 -6q-5 1 -17 6.5t-17 10.5l-6.5 -15.5t-15 -44t-16 -69.5t-9.5 -92z
M374 752q-6 -6 -21 -2.5t-29.5 11t-24 16t-5.5 13.5q13 16 26.5 34.5t27 35.5t26.5 30.5t25 19.5q17 7 38 2.5t37.5 -13.5t25 -20.5t1.5 -17.5q-42 -35 -74.5 -62.5t-52.5 -46.5z" />
    <glyph glyph-name="Ocircumflex" unicode="&#xd4;" horiz-adv-x="538" 
d="M12 271q0 73 20 146.5t53 134.5t74 103t83 52q16 -4 21.5 -10t13.5 -14q10 4 21 8q10 3 22.5 6t26.5 3q62 0 102.5 -20t64 -54t32.5 -79t9 -94q0 -33 -5.5 -83.5t-18 -106.5t-34.5 -112.5t-55 -101.5t-79 -73t-106 -28q-66 0 -112.5 29.5t-76 76.5t-43 104t-13.5 113z
M142 231q-1 -39 3.5 -73.5t15 -60t27 -40.5t39.5 -15q35 0 62.5 29t48 74.5t35 100.5t23 106.5t12.5 94t5 61.5q1 21 -1.5 42t-9 37t-17.5 26t-27 10q-28 0 -49 -18t-36 -45t-25 -59t-16 -60q-2 -8 -9 -6q-5 1 -17 6.5t-17 10.5l-6.5 -15.5t-15 -44t-16 -69.5t-9.5 -92z
M245 784q-25 15 4 37q11 9 26.5 21t33 25.5t34.5 26t31 22.5l49 -7q10 -13 25 -34t29 -42t25 -37t13 -19q5 -8 1 -16.5t-12 -10.5q-15 -4 -30 -3.5t-23 8.5q-5 6 -12.5 16t-15.5 21t-15.5 21t-12.5 16q-17 -14 -34.5 -28t-37.5 -31q-8 -7 -18 -11t-21 3z" />
    <glyph glyph-name="Otilde" unicode="&#xd5;" horiz-adv-x="538" 
d="M12 271q0 73 20 146.5t53 134.5t74 103t83 52q16 -4 21.5 -10t13.5 -14q10 4 21 8q10 3 22.5 6t26.5 3q62 0 102.5 -20t64 -54t32.5 -79t9 -94q0 -33 -5.5 -83.5t-18 -106.5t-34.5 -112.5t-55 -101.5t-79 -73t-106 -28q-66 0 -112.5 29.5t-76 76.5t-43 104t-13.5 113z
M142 231q-1 -39 3.5 -73.5t15 -60t27 -40.5t39.5 -15q35 0 62.5 29t48 74.5t35 100.5t23 106.5t12.5 94t5 61.5q1 21 -1.5 42t-9 37t-17.5 26t-27 10q-28 0 -49 -18t-36 -45t-25 -59t-16 -60q-2 -8 -9 -6q-5 1 -17 6.5t-17 10.5l-6.5 -15.5t-15 -44t-16 -69.5t-9.5 -92z
M266 760q-6 0 -11.5 5.5t-9.5 13.5t-4.5 16.5t2.5 14.5q4 7 12.5 17t20 19t25 15.5t27.5 6.5q21 0 36 -6t27.5 -13.5t23 -13.5t21.5 -6q10 0 19 4.5t16.5 10t14 10t12.5 4.5q5 0 10 -5t8 -12.5t3.5 -17t-3.5 -17.5q-3 -7 -12 -17t-21.5 -19t-28.5 -15t-33 -6q-18 0 -33 6
t-28.5 13t-25 13t-22.5 6q-7 0 -13.5 -4t-12 -9.5t-11 -9.5t-9.5 -4z" />
    <glyph glyph-name="Odieresis" unicode="&#xd6;" horiz-adv-x="538" 
d="M12 271q0 73 20 146.5t53 134.5t74 103t83 52q16 -4 21.5 -10t13.5 -14q10 4 21 8q10 3 22.5 6t26.5 3q62 0 102.5 -20t64 -54t32.5 -79t9 -94q0 -33 -5.5 -83.5t-18 -106.5t-34.5 -112.5t-55 -101.5t-79 -73t-106 -28q-66 0 -112.5 29.5t-76 76.5t-43 104t-13.5 113z
M142 231q-1 -39 3.5 -73.5t15 -60t27 -40.5t39.5 -15q35 0 62.5 29t48 74.5t35 100.5t23 106.5t12.5 94t5 61.5q1 21 -1.5 42t-9 37t-17.5 26t-27 10q-28 0 -49 -18t-36 -45t-25 -59t-16 -60q-2 -8 -9 -6q-5 1 -17 6.5t-17 10.5l-6.5 -15.5t-15 -44t-16 -69.5t-9.5 -92z
M232 785q-15 5 -26.5 14.5t-11.5 29.5q0 11 5.5 25.5t18 28t32.5 23t50 9.5q7 0 16.5 -3.5t17 -10.5t13 -18t5.5 -27q0 -10 -3 -27.5t-11.5 -34t-24.5 -28.5t-42 -12q-19 0 -29.5 5.5t-9.5 25.5zM385 817q0 10 5 25t17 28t31.5 22.5t48.5 9.5q7 0 17 -3t18.5 -10t14.5 -18
t6 -27q0 -10 -3.5 -28t-12.5 -35.5t-24 -30.5t-38 -13q-15 0 -29.5 8t-25.5 20t-18 26t-7 26z" />
    <glyph glyph-name="multiply" unicode="&#xd7;" horiz-adv-x="506" 
d="M391 120q-6 -4 -16 -4.5t-18 9.5q-17 25 -38 58.5t-46 69.5q-20 -21 -36.5 -38t-27.5 -27l6 -13q-22 -18 -38.5 -28t-28.5 -15q-14 -6 -24 -7q-6 0 -18.5 9t-24.5 21.5t-19.5 24.5t-2.5 17q25 26 63.5 67t81.5 85q-24 31 -49 58t-48 47q-11 9 -7 14.5t9 9.5l24 26
q4 4 15 1t22 -12q18 -17 39.5 -41t44.5 -53q23 23 45 43t40.5 35t33 23.5t23.5 8.5q6 0 19 -9.5t25 -22.5t20 -25t6 -17q-11 -5 -27.5 -18t-35.5 -30.5t-39.5 -38.5t-41.5 -42q26 -38 49.5 -73t40.5 -62q5 -9 7.5 -19.5t-5.5 -16.5z" />
    <glyph glyph-name="Oslash" unicode="&#xd8;" horiz-adv-x="538" 
d="M66 4q5 11 9.5 16.5t9.5 9.5q-38 49 -55.5 113.5t-17.5 127.5q0 73 20 146.5t53 134.5t74 103t83 52q16 -4 21.5 -10t13.5 -14q10 4 21 8q10 3 22.5 6t26.5 3q30 0 55 -5t45 -14q19 25 35 39t29 14q16 0 24 -10.5t5 -24.5q-10 -9 -20.5 -22.5t-22.5 -30.5
q33 -35 45.5 -85.5t12.5 -107.5q0 -33 -5.5 -83.5t-18 -106.5t-34.5 -112.5t-55 -101.5t-79 -73t-106 -28q-37 0 -67.5 10t-55.5 27q-19 -35 -33.5 -60.5t-22.5 -37.5q-14 -1 -29.5 8t-13.5 23q4 21 13.5 47.5t17.5 38.5zM142 231q-2 -55 7 -95q31 57 62.5 119.5t63 123.5
t62 118t58.5 104q-6 10 -15.5 16t-21.5 6q-28 0 -49 -18t-36 -45t-25 -59t-16 -60q-2 -8 -9 -6q-5 1 -17 6.5t-17 10.5l-6.5 -15.5t-15 -44t-16 -69.5t-9.5 -92zM227 42q35 0 62.5 29t48 74.5t35 100.5t23 106.5t12.5 94t5 61.5v2q-29 -51 -60 -107.5t-61.5 -114.5
t-59.5 -114.5t-55 -105.5q20 -26 50 -26z" />
    <glyph glyph-name="Ugrave" unicode="&#xd9;" horiz-adv-x="536" 
d="M143 153q-2 -35 1 -58t10 -37t18.5 -20t25.5 -6q37 0 60.5 41t41.5 120.5t34 196t38 268.5q4 22 10 33t27 11q8 0 23.5 -3.5t32 -8t30 -10t18.5 -9.5q-8 -63 -18.5 -131.5t-21 -135t-19.5 -127t-13 -107.5q-3 -35 -2.5 -57.5t5 -35.5t13 -18t19.5 -5q16 0 28 10t20 24.5
t13 30.5t8 28q14 0 25 -4q10 -4 18 -13.5t8 -26.5q0 -20 -7 -44t-22.5 -44.5t-39.5 -34t-57 -13.5q-40 0 -65 25t-36 56q-8 -18 -22.5 -38t-35.5 -37t-48 -28t-61 -11q-88 0 -139 64t-51 193q0 37 5 83.5t13.5 95.5t19 99t21 94.5t20.5 80.5t17 59q6 16 26.5 17t44 -5.5
t43.5 -16t26 -15.5q-10 -30 -21 -71.5t-22 -89.5t-21.5 -98.5t-19 -99.5t-14.5 -93t-7 -78zM189 893q-7 10 -4.5 20t14.5 14q6 1 18 3.5t25 2.5t25 -2.5t17 -10.5q7 -13 18.5 -34.5t22.5 -42.5t19.5 -37.5t10.5 -20.5q5 -8 1 -17t-12 -11q-14 -5 -34 -6t-28 11z" />
    <glyph glyph-name="Uacute" unicode="&#xda;" horiz-adv-x="536" 
d="M143 153q-2 -35 1 -58t10 -37t18.5 -20t25.5 -6q37 0 60.5 41t41.5 120.5t34 196t38 268.5q4 22 10 33t27 11q8 0 23.5 -3.5t32 -8t30 -10t18.5 -9.5q-8 -63 -18.5 -131.5t-21 -135t-19.5 -127t-13 -107.5q-3 -35 -2.5 -57.5t5 -35.5t13 -18t19.5 -5q16 0 28 10t20 24.5
t13 30.5t8 28q14 0 25 -4q10 -4 18 -13.5t8 -26.5q0 -20 -7 -44t-22.5 -44.5t-39.5 -34t-57 -13.5q-40 0 -65 25t-36 56q-8 -18 -22.5 -38t-35.5 -37t-48 -28t-61 -11q-88 0 -139 64t-51 193q0 37 5 83.5t13.5 95.5t19 99t21 94.5t20.5 80.5t17 59q6 16 26.5 17t44 -5.5
t43.5 -16t26 -15.5q-10 -30 -21 -71.5t-22 -89.5t-21.5 -98.5t-19 -99.5t-14.5 -93t-7 -78zM343 754q-6 -6 -21 -2.5t-29.5 11t-24 16t-5.5 13.5q13 16 26.5 34.5t27 35.5t26.5 30.5t25 19.5q17 7 38 2.5t37.5 -13.5t25 -20.5t1.5 -17.5q-42 -35 -74.5 -62.5t-52.5 -46.5z
" />
    <glyph glyph-name="Ucircumflex" unicode="&#xdb;" horiz-adv-x="536" 
d="M143 153q-2 -35 1 -58t10 -37t18.5 -20t25.5 -6q37 0 60.5 41t41.5 120.5t34 196t38 268.5q4 22 10 33t27 11q8 0 23.5 -3.5t32 -8t30 -10t18.5 -9.5q-8 -63 -18.5 -131.5t-21 -135t-19.5 -127t-13 -107.5q-3 -35 -2.5 -57.5t5 -35.5t13 -18t19.5 -5q16 0 28 10t20 24.5
t13 30.5t8 28q14 0 25 -4q10 -4 18 -13.5t8 -26.5q0 -20 -7 -44t-22.5 -44.5t-39.5 -34t-57 -13.5q-40 0 -65 25t-36 56q-8 -18 -22.5 -38t-35.5 -37t-48 -28t-61 -11q-88 0 -139 64t-51 193q0 37 5 83.5t13.5 95.5t19 99t21 94.5t20.5 80.5t17 59q6 16 26.5 17t44 -5.5
t43.5 -16t26 -15.5q-10 -30 -21 -71.5t-22 -89.5t-21.5 -98.5t-19 -99.5t-14.5 -93t-7 -78zM191 783q-25 15 4 37q11 9 26.5 21t33 25.5t34.5 26t31 22.5l49 -7q10 -13 25 -34t29 -42t25 -37t13 -19q5 -8 1 -16.5t-12 -10.5q-15 -4 -30 -3.5t-23 8.5q-5 6 -12.5 16t-15.5 21
t-15.5 21t-12.5 16q-17 -14 -34.5 -28t-37.5 -31q-8 -7 -18 -11t-21 3z" />
    <glyph glyph-name="Udieresis" unicode="&#xdc;" horiz-adv-x="536" 
d="M143 153q-2 -35 1 -58t10 -37t18.5 -20t25.5 -6q37 0 60.5 41t41.5 120.5t34 196t38 268.5q4 22 10 33t27 11q8 0 23.5 -3.5t32 -8t30 -10t18.5 -9.5q-8 -63 -18.5 -131.5t-21 -135t-19.5 -127t-13 -107.5q-3 -35 -2.5 -57.5t5 -35.5t13 -18t19.5 -5q16 0 28 10t20 24.5
t13 30.5t8 28q14 0 25 -4q10 -4 18 -13.5t8 -26.5q0 -20 -7 -44t-22.5 -44.5t-39.5 -34t-57 -13.5q-40 0 -65 25t-36 56q-8 -18 -22.5 -38t-35.5 -37t-48 -28t-61 -11q-88 0 -139 64t-51 193q0 37 5 83.5t13.5 95.5t19 99t21 94.5t20.5 80.5t17 59q6 16 26.5 17t44 -5.5
t43.5 -16t26 -15.5q-10 -30 -21 -71.5t-22 -89.5t-21.5 -98.5t-19 -99.5t-14.5 -93t-7 -78zM192 793q-15 5 -26.5 14.5t-11.5 29.5q0 11 5.5 25.5t18 28t32.5 23t50 9.5q7 0 16.5 -3.5t17 -10.5t13 -18t5.5 -27q0 -10 -3 -27.5t-11.5 -34t-24.5 -28.5t-42 -12
q-19 0 -29.5 5.5t-9.5 25.5zM345 825q0 10 5 25t17 28t31.5 22.5t48.5 9.5q7 0 17 -3t18.5 -10t14.5 -18t6 -27q0 -10 -3.5 -28t-12.5 -35.5t-24 -30.5t-38 -13q-15 0 -29.5 8t-25.5 20t-18 26t-7 26z" />
    <glyph glyph-name="Yacute" unicode="&#xdd;" horiz-adv-x="495" 
d="M46 35q4 9 10 11t11 1.5t9.5 -2t6.5 1.5q28 48 57.5 103t59.5 114q-45 86 -81.5 153t-65.5 112q-2 4 -5.5 3.5t-7.5 -2t-7.5 -2t-6.5 2.5q-6 7 -15 24t-17.5 35t-13.5 33.5t-2 19.5q7 11 19 22t25.5 17.5t27 6.5t23.5 -10q13 -13 35 -46.5t47.5 -77t52.5 -91.5t50 -89
q36 69 70 131.5t65.5 110t59 76t49.5 28.5q13 0 29 -8.5t29.5 -19.5t22 -23t7.5 -19q-24 -20 -54.5 -62t-64 -98t-69.5 -121.5t-71 -132.5t-67.5 -131t-60 -118t-48 -92.5t-31.5 -54.5q-7 0 -27 6t-41 15t-36.5 18.5t-14.5 16.5q2 15 6.5 33t9.5 36.5t11.5 36.5t13.5 32z
M317 752q-6 -6 -21 -2.5t-29.5 11t-24 16t-5.5 13.5q13 16 26.5 34.5t27 35.5t26.5 30.5t25 19.5q17 7 38 2.5t37.5 -13.5t25 -20.5t1.5 -17.5q-42 -35 -74.5 -62.5t-52.5 -46.5z" />
    <glyph glyph-name="Thorn" unicode="&#xde;" horiz-adv-x="524" 
d="M67 -41q4 28 9.5 61.5t11.5 71.5q-33 5 -51 13q-15 6 -20.5 18.5t-4 26t9 25t18.5 16.5q6 -1 20 -8.5t42 -14.5q15 84 31.5 169.5t32.5 158.5q-48 -14 -73.5 -40t-38.5 -49q-1 -1 -3 -2q-4 -2 -8 -1q-7 1 -18 8.5t-21.5 17.5t-18 21t-8.5 20q14 24 41 45q23 18 62.5 35
t102.5 25q8 36 14.5 61t10.5 35q3 8 5 14.5t6.5 11.5t12 8t20.5 3q9 0 20.5 -2t23.5 -6t22 -9t15 -11q-5 -17 -11.5 -43.5t-13.5 -60.5q53 -6 99 -22t79.5 -41.5t53 -61t19.5 -78.5q0 -54 -24 -103t-68 -88t-106.5 -65t-139.5 -32q-4 -22 -6.5 -41.5t-4.5 -33.5
q-4 -19 -8.5 -40.5t-12.5 -34.5q-7 -10 -21 -10q-10 0 -26.5 4t-32 9.5t-28 11t-14.5 8.5zM426 371q0 54 -34.5 87.5t-97.5 43.5q-8 -44 -16 -91.5t-16 -92.5t-15 -84.5t-13 -69.5q42 7 77.5 24.5t61 44t39.5 61.5t14 77z" />
    <glyph glyph-name="germandbls" unicode="&#xdf;" horiz-adv-x="483" 
d="M239 292h-6.5t-6.5 1l-8 2q-6 18 -6 44.5t8 42.5q17 2 35.5 2.5t34.5 -1.5q24 10 41.5 33.5t29 53t17.5 62t6 59.5q0 56 -41 56q-34 0 -62 -33t-50.5 -87t-40 -124t-30.5 -144.5t-22 -148t-15.5 -134.5t-10 -104t-5.5 -56q0 -2 3.5 -4.5t7.5 -4.5t7 -4t3 -3q-2 -5 -6 -25
t-9.5 -42t-10.5 -39.5t-9 -17.5q-10 0 -28.5 5t-37 12.5t-34 17t-19.5 17.5q15 278 54 496q16 93 39.5 182t55.5 159t73.5 112.5t93.5 42.5q40 0 76 -14.5t63 -37.5t43 -53.5t16 -61.5q0 -77 -31 -133.5t-80 -88.5q19 -8 37 -23t32.5 -36.5t23.5 -49.5t9 -62q0 -57 -18 -101
t-45 -74t-59 -45.5t-61 -15.5q-32 0 -59 10t-41 24q-15 13 -19.5 28t-2.5 28.5t9 24.5t16 17q3 0 11.5 -7.5t20.5 -16t25.5 -15.5t25.5 -7q17 0 32.5 11.5t27 32.5t18.5 50t7 64q0 48 -23 85t-68 44q-14 -3 -20.5 -4t-16.5 -1z" />
    <glyph glyph-name="agrave" unicode="&#xe0;" horiz-adv-x="463" 
d="M302 46q-8 -13 -19.5 -26t-27.5 -23.5t-34.5 -17t-39.5 -6.5q-37 0 -68 13.5t-53.5 39.5t-35 63.5t-12.5 84.5q0 67 15.5 131t45 114.5t72 81.5t95.5 31q34 0 61 -7.5t46 -19.5t28.5 -27t9.5 -30q0 -2 -0.5 -4.5t-0.5 -4.5q-1 -3 -1 -4q4 -2 14 -3t19.5 -3.5t16.5 -7.5
t4 -13q-23 -76 -37.5 -149t-15.5 -130q-2 -32 5 -53.5t29 -21.5q17 0 28.5 10.5t19 28t11.5 39.5t7 46q17 1 30 -3q11 -4 21 -13.5t10 -29.5q0 -22 -9 -49.5t-27 -52t-45 -41t-63 -16.5q-26 0 -43 8t-28 19.5t-16 24t-6 21.5h-6zM142 136q-2 -44 5 -62.5t24 -18.5
q13 0 25.5 16.5t24.5 42.5t22 57t17.5 59.5t12 51t5.5 30.5q-9 2 -16 5q-16 5 -24 16q30 42 33 93v8t-1.5 10.5t-5 9t-9.5 3.5q-16 0 -30 -17t-26.5 -44.5t-22.5 -62.5t-17 -70.5t-11.5 -68.5t-5.5 -58zM149 724q-7 10 -4.5 20t14.5 14q6 1 18 3.5t25 2.5t25 -2.5t17 -10.5
q7 -13 18.5 -34.5t22.5 -42.5t19.5 -37.5t10.5 -20.5q5 -8 1 -17t-12 -11q-14 -5 -34 -6t-28 11z" />
    <glyph glyph-name="aacute" unicode="&#xe1;" horiz-adv-x="463" 
d="M302 46q-8 -13 -19.5 -26t-27.5 -23.5t-34.5 -17t-39.5 -6.5q-37 0 -68 13.5t-53.5 39.5t-35 63.5t-12.5 84.5q0 67 15.5 131t45 114.5t72 81.5t95.5 31q34 0 61 -7.5t46 -19.5t28.5 -27t9.5 -30q0 -2 -0.5 -4.5t-0.5 -4.5q-1 -3 -1 -4q4 -2 14 -3t19.5 -3.5t16.5 -7.5
t4 -13q-23 -76 -37.5 -149t-15.5 -130q-2 -32 5 -53.5t29 -21.5q17 0 28.5 10.5t19 28t11.5 39.5t7 46q17 1 30 -3q11 -4 21 -13.5t10 -29.5q0 -22 -9 -49.5t-27 -52t-45 -41t-63 -16.5q-26 0 -43 8t-28 19.5t-16 24t-6 21.5h-6zM142 136q-2 -44 5 -62.5t24 -18.5
q13 0 25.5 16.5t24.5 42.5t22 57t17.5 59.5t12 51t5.5 30.5q-9 2 -16 5q-16 5 -24 16q30 42 33 93v8t-1.5 10.5t-5 9t-9.5 3.5q-16 0 -30 -17t-26.5 -44.5t-22.5 -62.5t-17 -70.5t-11.5 -68.5t-5.5 -58zM310 581q-6 -6 -21 -2.5t-29.5 11t-24 16t-5.5 13.5q13 16 26.5 34.5
t27 35.5t26.5 30.5t25 19.5q17 7 38 2.5t37.5 -13.5t25 -20.5t1.5 -17.5q-42 -35 -74.5 -62.5t-52.5 -46.5z" />
    <glyph glyph-name="acircumflex" unicode="&#xe2;" horiz-adv-x="463" 
d="M302 46q-8 -13 -19.5 -26t-27.5 -23.5t-34.5 -17t-39.5 -6.5q-37 0 -68 13.5t-53.5 39.5t-35 63.5t-12.5 84.5q0 67 15.5 131t45 114.5t72 81.5t95.5 31q34 0 61 -7.5t46 -19.5t28.5 -27t9.5 -30q0 -2 -0.5 -4.5t-0.5 -4.5q-1 -3 -1 -4q4 -2 14 -3t19.5 -3.5t16.5 -7.5
t4 -13q-23 -76 -37.5 -149t-15.5 -130q-2 -32 5 -53.5t29 -21.5q17 0 28.5 10.5t19 28t11.5 39.5t7 46q17 1 30 -3q11 -4 21 -13.5t10 -29.5q0 -22 -9 -49.5t-27 -52t-45 -41t-63 -16.5q-26 0 -43 8t-28 19.5t-16 24t-6 21.5h-6zM142 136q-2 -44 5 -62.5t24 -18.5
q13 0 25.5 16.5t24.5 42.5t22 57t17.5 59.5t12 51t5.5 30.5q-9 2 -16 5q-16 5 -24 16q30 42 33 93v8t-1.5 10.5t-5 9t-9.5 3.5q-16 0 -30 -17t-26.5 -44.5t-22.5 -62.5t-17 -70.5t-11.5 -68.5t-5.5 -58zM155 615q-25 15 4 37q11 9 26.5 21t33 25.5t34.5 26t31 22.5l49 -7
q10 -13 25 -34t29 -42t25 -37t13 -19q5 -8 1 -16.5t-12 -10.5q-15 -4 -30 -3.5t-23 8.5q-5 6 -12.5 16t-15.5 21t-15.5 21t-12.5 16q-17 -14 -34.5 -28t-37.5 -31q-8 -7 -18 -11t-21 3z" />
    <glyph glyph-name="atilde" unicode="&#xe3;" horiz-adv-x="463" 
d="M302 46q-8 -13 -19.5 -26t-27.5 -23.5t-34.5 -17t-39.5 -6.5q-37 0 -68 13.5t-53.5 39.5t-35 63.5t-12.5 84.5q0 67 15.5 131t45 114.5t72 81.5t95.5 31q34 0 61 -7.5t46 -19.5t28.5 -27t9.5 -30q0 -2 -0.5 -4.5t-0.5 -4.5q-1 -3 -1 -4q4 -2 14 -3t19.5 -3.5t16.5 -7.5
t4 -13q-23 -76 -37.5 -149t-15.5 -130q-2 -32 5 -53.5t29 -21.5q17 0 28.5 10.5t19 28t11.5 39.5t7 46q17 1 30 -3q11 -4 21 -13.5t10 -29.5q0 -22 -9 -49.5t-27 -52t-45 -41t-63 -16.5q-26 0 -43 8t-28 19.5t-16 24t-6 21.5h-6zM142 136q-2 -44 5 -62.5t24 -18.5
q13 0 25.5 16.5t24.5 42.5t22 57t17.5 59.5t12 51t5.5 30.5q-9 2 -16 5q-16 5 -24 16q30 42 33 93v8t-1.5 10.5t-5 9t-9.5 3.5q-16 0 -30 -17t-26.5 -44.5t-22.5 -62.5t-17 -70.5t-11.5 -68.5t-5.5 -58zM183 594q-6 0 -11.5 5.5t-9.5 13.5t-4.5 16.5t2.5 14.5q4 7 12.5 17
t20 19t25 15.5t27.5 6.5q21 0 36 -6t27.5 -13.5t23 -13.5t21.5 -6q10 0 19 4.5t16.5 10t14 10t12.5 4.5q5 0 10 -5t8 -12.5t3.5 -17t-3.5 -17.5q-3 -7 -12 -17t-21.5 -19t-28.5 -15t-33 -6q-18 0 -33 6t-28.5 13t-25 13t-22.5 6q-7 0 -13.5 -4t-12 -9.5t-11 -9.5t-9.5 -4z
" />
    <glyph glyph-name="adieresis" unicode="&#xe4;" horiz-adv-x="463" 
d="M302 46q-8 -13 -19.5 -26t-27.5 -23.5t-34.5 -17t-39.5 -6.5q-37 0 -68 13.5t-53.5 39.5t-35 63.5t-12.5 84.5q0 67 15.5 131t45 114.5t72 81.5t95.5 31q34 0 61 -7.5t46 -19.5t28.5 -27t9.5 -30q0 -2 -0.5 -4.5t-0.5 -4.5q-1 -3 -1 -4q4 -2 14 -3t19.5 -3.5t16.5 -7.5
t4 -13q-23 -76 -37.5 -149t-15.5 -130q-2 -32 5 -53.5t29 -21.5q17 0 28.5 10.5t19 28t11.5 39.5t7 46q17 1 30 -3q11 -4 21 -13.5t10 -29.5q0 -22 -9 -49.5t-27 -52t-45 -41t-63 -16.5q-26 0 -43 8t-28 19.5t-16 24t-6 21.5h-6zM142 136q-2 -44 5 -62.5t24 -18.5
q13 0 25.5 16.5t24.5 42.5t22 57t17.5 59.5t12 51t5.5 30.5q-9 2 -16 5q-16 5 -24 16q30 42 33 93v8t-1.5 10.5t-5 9t-9.5 3.5q-16 0 -30 -17t-26.5 -44.5t-22.5 -62.5t-17 -70.5t-11.5 -68.5t-5.5 -58zM162 621q-15 5 -26.5 14.5t-11.5 29.5q0 11 5.5 25.5t18 28t32.5 23
t50 9.5q7 0 16.5 -3.5t17 -10.5t13 -18t5.5 -27q0 -10 -3 -27.5t-11.5 -34t-24.5 -28.5t-42 -12q-19 0 -29.5 5.5t-9.5 25.5zM315 653q0 10 5 25t17 28t31.5 22.5t48.5 9.5q7 0 17 -3t18.5 -10t14.5 -18t6 -27q0 -10 -3.5 -28t-12.5 -35.5t-24 -30.5t-38 -13q-15 0 -29.5 8
t-25.5 20t-18 26t-7 26z" />
    <glyph glyph-name="aring" unicode="&#xe5;" horiz-adv-x="463" 
d="M302 46q-8 -13 -19.5 -26t-27.5 -23.5t-34.5 -17t-39.5 -6.5q-37 0 -68 13.5t-53.5 39.5t-35 63.5t-12.5 84.5q0 67 15.5 131t45 114.5t72 81.5t95.5 31q34 0 61 -7.5t46 -19.5t28.5 -27t9.5 -30q0 -2 -0.5 -4.5t-0.5 -4.5q-1 -3 -1 -4q4 -2 14 -3t19.5 -3.5t16.5 -7.5
t4 -13q-23 -76 -37.5 -149t-15.5 -130q-2 -32 5 -53.5t29 -21.5q17 0 28.5 10.5t19 28t11.5 39.5t7 46q17 1 30 -3q11 -4 21 -13.5t10 -29.5q0 -22 -9 -49.5t-27 -52t-45 -41t-63 -16.5q-26 0 -43 8t-28 19.5t-16 24t-6 21.5h-6zM142 136q-2 -44 5 -62.5t24 -18.5
q13 0 25.5 16.5t24.5 42.5t22 57t17.5 59.5t12 51t5.5 30.5q-9 2 -16 5q-16 5 -24 16q30 42 33 93v8t-1.5 10.5t-5 9t-9.5 3.5q-16 0 -30 -17t-26.5 -44.5t-22.5 -62.5t-17 -70.5t-11.5 -68.5t-5.5 -58zM186 666q0 18 8 36.5t24 34t40 25.5t56 10q59 0 82.5 -26t23.5 -66
q0 -44 -35 -73t-92 -29q-53 0 -80 26.5t-27 61.5zM270 665q0 -11 7.5 -17.5t17.5 -6.5q20 0 32.5 11t12.5 31q0 11 -7 19t-19 8q-24 0 -34 -13t-10 -32z" />
    <glyph glyph-name="ae" unicode="&#xe6;" horiz-adv-x="603" 
d="M460 -79q-53 0 -98 26t-68 76q-14 -23 -42.5 -43t-75.5 -20q-33 0 -59.5 13t-45.5 37t-29.5 57t-10.5 73q0 52 13.5 91t34 64.5t45 38t45.5 12.5q36 0 63.5 -17.5t34.5 -43.5q7 36 7.5 68.5t-6.5 57t-21.5 39t-38.5 14.5q-16 0 -29 -9.5t-23.5 -23.5t-18.5 -29.5
t-13 -28.5q-10 0 -24 5t-24.5 16t-14 28t7.5 41q14 32 54 54t101 22q29 0 50.5 -9t36.5 -24.5t24 -36t12 -42.5q25 50 56 82t68 32q18 0 39.5 -7.5t40.5 -24t31.5 -42.5t12.5 -64q0 -48 -10 -90.5t-27.5 -75t-40.5 -51.5t-50 -19q-19 0 -33 6.5t-23.5 14t-14 14.5t-5.5 9
q-1 -2 -8.5 -36.5t-7.5 -89.5q0 -36 15.5 -56.5t47.5 -20.5t59 19t47 47t31.5 58.5t13.5 53.5q1 2 4 5q2 2 6 3.5t10 1.5q23 0 40 -14t17 -40q0 -32 -12.5 -70t-38 -72t-64 -56.5t-91.5 -22.5zM119 81q2 -28 9.5 -39.5t24.5 -11.5q18 0 34.5 18.5t28.5 43.5t19.5 51t8.5 41
q-5 -1 -9 0l-8 2t-7 4q5 12 8.5 25.5t3.5 27.5q0 11 -5 21.5t-18 10.5q-22 0 -39 -21.5t-29 -52.5t-18 -64t-4 -56zM404 267q2 -7 6 -12q3 -5 8 -8.5t13 -3.5q12 0 23.5 17.5t19.5 44t13.5 59t5.5 62.5q0 29 -3.5 36.5t-7.5 7.5q-5 0 -9 -3.5t-9 -13.5q-19 -37 -35.5 -88
t-24.5 -98z" />
    <glyph glyph-name="ccedilla" unicode="&#xe7;" horiz-adv-x="372" 
d="M276 -179q0 -44 -32.5 -69.5t-80.5 -25.5q-27 0 -47 8t-33 20.5t-19 27t-6 26.5q0 15 9 23t23 8q5 0 8.5 -1t6.5 -2q4 -1 6 -2q1 -11 5 -22t10.5 -21t16 -16t23.5 -6q15 0 25.5 8t10.5 27q0 22 -13.5 36t-30 22.5t-32 13t-18.5 8.5q-4 4 -1.5 12.5t9 19t16.5 22t20 21.5
q-63 22 -102 76.5t-39 135.5q0 49 13 107t39.5 108.5t67 84t95.5 33.5q24 0 49.5 -8.5t45.5 -24t33 -36.5t13 -46q0 -70 -26 -106.5t-60 -36.5q-26 0 -40 12.5t-16 33.5q-1 2 -1 6q10 14 18 32q7 15 12.5 35t6.5 43q2 23 -15 23q-18 0 -36 -23.5t-32.5 -62.5t-23.5 -90.5
t-9 -106.5q0 -69 21.5 -94.5t54.5 -25.5q30 0 54.5 17.5t43 44t30 56.5t14.5 55q5 1 10 3l10 2t12 1q19 0 34 -15t15 -50q0 -19 -11.5 -51.5t-37 -64.5t-67 -55.5t-102.5 -23.5h-14q-9 -8 -18.5 -15t-14.5 -13q15 -4 32 -12t31.5 -20t24 -28.5t9.5 -37.5z" />
    <glyph glyph-name="egrave" unicode="&#xe8;" horiz-adv-x="334" 
d="M-3 117q0 44 7 92.5t20 95.5t31.5 89.5t41.5 75t49.5 52t56.5 19.5q18 0 39.5 -7.5t40.5 -24t31.5 -42.5t12.5 -64q0 -48 -10 -90.5t-27.5 -75t-40.5 -51.5t-50 -19q-20 0 -34 7t-22 15q-10 10 -16 23q-6 -16 -10 -35q-4 -17 -7 -40.5t-3 -51.5q0 -36 15.5 -56.5
t47.5 -20.5t59 19t47 47t31.5 58.5t13.5 53.5q1 2 4 5q2 2 6 3.5t10 1.5q23 0 39.5 -14t16.5 -40q0 -32 -12.5 -70t-37.5 -72t-64 -56.5t-91 -22.5q-37 0 -72 13t-62.5 38t-44 61.5t-16.5 83.5zM139 267q0 -7 4 -12q2 -5 7 -8.5t13 -3.5q12 0 23.5 17.5t19.5 44t13.5 59
t5.5 62.5q0 29 -3.5 36.5t-7.5 7.5q-3 0 -6.5 -3.5t-8.5 -13.5q-17 -38 -34.5 -88.5t-25.5 -97.5zM145 724q-7 10 -4.5 20t14.5 14q6 1 18 3.5t25 2.5t25 -2.5t17 -10.5q7 -13 18.5 -34.5t22.5 -42.5t19.5 -37.5t10.5 -20.5q5 -8 1 -17t-12 -11q-14 -5 -34 -6t-28 11z" />
    <glyph glyph-name="eacute" unicode="&#xe9;" horiz-adv-x="334" 
d="M-3 117q0 44 7 92.5t20 95.5t31.5 89.5t41.5 75t49.5 52t56.5 19.5q18 0 39.5 -7.5t40.5 -24t31.5 -42.5t12.5 -64q0 -48 -10 -90.5t-27.5 -75t-40.5 -51.5t-50 -19q-20 0 -34 7t-22 15q-10 10 -16 23q-6 -16 -10 -35q-4 -17 -7 -40.5t-3 -51.5q0 -36 15.5 -56.5
t47.5 -20.5t59 19t47 47t31.5 58.5t13.5 53.5q1 2 4 5q2 2 6 3.5t10 1.5q23 0 39.5 -14t16.5 -40q0 -32 -12.5 -70t-37.5 -72t-64 -56.5t-91 -22.5q-37 0 -72 13t-62.5 38t-44 61.5t-16.5 83.5zM139 267q0 -7 4 -12q2 -5 7 -8.5t13 -3.5q12 0 23.5 17.5t19.5 44t13.5 59
t5.5 62.5q0 29 -3.5 36.5t-7.5 7.5q-3 0 -6.5 -3.5t-8.5 -13.5q-17 -38 -34.5 -88.5t-25.5 -97.5zM252 581q-6 -6 -21 -2.5t-29.5 11t-24 16t-5.5 13.5q13 16 26.5 34.5t27 35.5t26.5 30.5t25 19.5q17 7 38 2.5t37.5 -13.5t25 -20.5t1.5 -17.5q-42 -35 -74.5 -62.5
t-52.5 -46.5z" />
    <glyph glyph-name="ecircumflex" unicode="&#xea;" horiz-adv-x="334" 
d="M-3 117q0 44 7 92.5t20 95.5t31.5 89.5t41.5 75t49.5 52t56.5 19.5q18 0 39.5 -7.5t40.5 -24t31.5 -42.5t12.5 -64q0 -48 -10 -90.5t-27.5 -75t-40.5 -51.5t-50 -19q-20 0 -34 7t-22 15q-10 10 -16 23q-6 -16 -10 -35q-4 -17 -7 -40.5t-3 -51.5q0 -36 15.5 -56.5
t47.5 -20.5t59 19t47 47t31.5 58.5t13.5 53.5q1 2 4 5q2 2 6 3.5t10 1.5q23 0 39.5 -14t16.5 -40q0 -32 -12.5 -70t-37.5 -72t-64 -56.5t-91 -22.5q-37 0 -72 13t-62.5 38t-44 61.5t-16.5 83.5zM139 267q0 -7 4 -12q2 -5 7 -8.5t13 -3.5q12 0 23.5 17.5t19.5 44t13.5 59
t5.5 62.5q0 29 -3.5 36.5t-7.5 7.5q-3 0 -6.5 -3.5t-8.5 -13.5q-17 -38 -34.5 -88.5t-25.5 -97.5zM104 613q-25 15 4 37q11 9 26.5 21t33 25.5t34.5 26t31 22.5l49 -7q10 -13 25 -34t29 -42t25 -37t13 -19q5 -8 1 -16.5t-12 -10.5q-15 -4 -30 -3.5t-23 8.5q-5 6 -12.5 16
t-15.5 21t-15.5 21t-12.5 16q-17 -14 -34.5 -28t-37.5 -31q-8 -7 -18 -11t-21 3z" />
    <glyph glyph-name="edieresis" unicode="&#xeb;" horiz-adv-x="334" 
d="M-3 117q0 44 7 92.5t20 95.5t31.5 89.5t41.5 75t49.5 52t56.5 19.5q18 0 39.5 -7.5t40.5 -24t31.5 -42.5t12.5 -64q0 -48 -10 -90.5t-27.5 -75t-40.5 -51.5t-50 -19q-20 0 -34 7t-22 15q-10 10 -16 23q-6 -16 -10 -35q-4 -17 -7 -40.5t-3 -51.5q0 -36 15.5 -56.5
t47.5 -20.5t59 19t47 47t31.5 58.5t13.5 53.5q1 2 4 5q2 2 6 3.5t10 1.5q23 0 39.5 -14t16.5 -40q0 -32 -12.5 -70t-37.5 -72t-64 -56.5t-91 -22.5q-37 0 -72 13t-62.5 38t-44 61.5t-16.5 83.5zM139 267q0 -7 4 -12q2 -5 7 -8.5t13 -3.5q12 0 23.5 17.5t19.5 44t13.5 59
t5.5 62.5q0 29 -3.5 36.5t-7.5 7.5q-3 0 -6.5 -3.5t-8.5 -13.5q-17 -38 -34.5 -88.5t-25.5 -97.5zM109 621q-15 5 -26.5 14.5t-11.5 29.5q0 11 5.5 25.5t18 28t32.5 23t50 9.5q7 0 16.5 -3.5t17 -10.5t13 -18t5.5 -27q0 -10 -3 -27.5t-11.5 -34t-24.5 -28.5t-42 -12
q-19 0 -29.5 5.5t-9.5 25.5zM262 653q0 10 5 25t17 28t31.5 22.5t48.5 9.5q7 0 17 -3t18.5 -10t14.5 -18t6 -27q0 -10 -3.5 -28t-12.5 -35.5t-24 -30.5t-38 -13q-15 0 -29.5 8t-25.5 20t-18 26t-7 26z" />
    <glyph glyph-name="igrave" unicode="&#xec;" horiz-adv-x="245" 
d="M14 91q0 36 9 91t22 112.5t27 108t23 77.5q3 8 9.5 10.5t13.5 2.5q5 0 24 -3t39 -9.5t34 -17.5t10 -26q-10 -35 -23 -83.5t-24.5 -98t-20 -94t-8.5 -71.5q-1 -26 7 -38.5t19 -12.5q21 0 36 16.5t25 39t15 46t6 37.5q17 0 31 -4q12 -4 22 -14t10 -30q0 -25 -12.5 -55
t-36.5 -55.5t-58.5 -43t-77.5 -17.5q-57 0 -89 32.5t-32 99.5zM73 721q-7 10 -4.5 20t14.5 14q6 1 18 3.5t25 2.5t25 -2.5t17 -10.5q7 -13 18.5 -34.5t22.5 -42.5t19.5 -37.5t10.5 -20.5q5 -8 1 -17t-12 -11q-14 -5 -34 -6t-28 11z" />
    <glyph glyph-name="iacute" unicode="&#xed;" horiz-adv-x="245" 
d="M14 91q0 36 9 91t22 112.5t27 108t23 77.5q3 8 9.5 10.5t13.5 2.5q5 0 24 -3t39 -9.5t34 -17.5t10 -26q-10 -35 -23 -83.5t-24.5 -98t-20 -94t-8.5 -71.5q-1 -26 7 -38.5t19 -12.5q21 0 36 16.5t25 39t15 46t6 37.5q17 0 31 -4q12 -4 22 -14t10 -30q0 -25 -12.5 -55
t-36.5 -55.5t-58.5 -43t-77.5 -17.5q-57 0 -89 32.5t-32 99.5zM216 583q-6 -6 -21 -2.5t-29.5 11t-24 16t-5.5 13.5q13 16 26.5 34.5t27 35.5t26.5 30.5t25 19.5q17 7 38 2.5t37.5 -13.5t25 -20.5t1.5 -17.5q-42 -35 -74.5 -62.5t-52.5 -46.5z" />
    <glyph glyph-name="icircumflex" unicode="&#xee;" horiz-adv-x="245" 
d="M14 91q0 36 9 91t22 112.5t27 108t23 77.5q3 8 9.5 10.5t13.5 2.5q5 0 24 -3t39 -9.5t34 -17.5t10 -26q-10 -35 -23 -83.5t-24.5 -98t-20 -94t-8.5 -71.5q-1 -26 7 -38.5t19 -12.5q21 0 36 16.5t25 39t15 46t6 37.5q17 0 31 -4q12 -4 22 -14t10 -30q0 -25 -12.5 -55
t-36.5 -55.5t-58.5 -43t-77.5 -17.5q-57 0 -89 32.5t-32 99.5zM55 605q-25 15 4 37q11 9 26.5 21t33 25.5t34.5 26t31 22.5l49 -7q10 -13 25 -34t29 -42t25 -37t13 -19q5 -8 1 -16.5t-12 -10.5q-15 -4 -30 -3.5t-23 8.5q-5 6 -12.5 16t-15.5 21t-15.5 21t-12.5 16
q-17 -14 -34.5 -28t-37.5 -31q-8 -7 -18 -11t-21 3z" />
    <glyph glyph-name="idieresis" unicode="&#xef;" horiz-adv-x="245" 
d="M14 91q0 36 9 91t22 112.5t27 108t23 77.5q3 8 9.5 10.5t13.5 2.5q5 0 24 -3t39 -9.5t34 -17.5t10 -26q-10 -35 -23 -83.5t-24.5 -98t-20 -94t-8.5 -71.5q-1 -26 7 -38.5t19 -12.5q21 0 36 16.5t25 39t15 46t6 37.5q17 0 31 -4q12 -4 22 -14t10 -30q0 -25 -12.5 -55
t-36.5 -55.5t-58.5 -43t-77.5 -17.5q-57 0 -89 32.5t-32 99.5zM56 619q-15 5 -26.5 14.5t-11.5 29.5q0 11 5.5 25.5t18 28t32.5 23t50 9.5q7 0 16.5 -3.5t17 -10.5t13 -18t5.5 -27q0 -10 -3 -27.5t-11.5 -34t-24.5 -28.5t-42 -12q-19 0 -29.5 5.5t-9.5 25.5zM209 651
q0 10 5 25t17 28t31.5 22.5t48.5 9.5q7 0 17 -3t18.5 -10t14.5 -18t6 -27q0 -10 -3.5 -28t-12.5 -35.5t-24 -30.5t-38 -13q-15 0 -29.5 8t-25.5 20t-18 26t-7 26z" />
    <glyph glyph-name="eth" unicode="&#xf0;" horiz-adv-x="462" 
d="M238 568q-10 -4 -22.5 1t-22.5 13.5t-14.5 17.5t1.5 13q29 17 71 37q-15 14 -29 25t-25 19q2 14 13.5 27t27.5 21.5t34.5 12t35.5 -0.5q16 -11 31 -23.5t29 -29.5q20 8 35 13.5t26 8.5q5 2 16.5 -5.5t21 -18t13 -20.5t-8.5 -13q-32 -11 -60 -23q27 -45 46 -100
t27.5 -116.5t3.5 -127t-26 -131.5q-20 -54 -53.5 -96.5t-75.5 -67.5t-88.5 -28.5t-91.5 20.5q-30 16 -53 46t-38.5 67t-24 79.5t-8.5 84.5t7.5 80t23.5 67q15 25 38 44t50.5 29t57 10t57.5 -12q20 -9 36.5 -26.5t30 -38t23 -42t15.5 -39.5q5 40 1 75.5t-13.5 67t-24.5 58.5
t-32 50zM236 417q-14 8 -26 2t-22 -23t-17.5 -46t-12 -63.5t-4.5 -70.5t5.5 -67.5t16.5 -55t30 -32.5t40 4t39.5 39t33 61t21.5 70q-5 -1 -11.5 -0.5t-13.5 5.5q-5 3 -9 26.5t-11.5 53t-21 57.5t-37.5 40z" />
    <glyph glyph-name="ntilde" unicode="&#xf1;" horiz-adv-x="413" 
d="M238 296q-16 -31 -32.5 -73t-30.5 -87t-23 -88t-9 -76q-6 -4 -15 -8q-8 -3 -18.5 -5.5t-23.5 -2.5q-22 0 -36 9.5t-22.5 27t-12 41t-3.5 52.5q0 80 7 156t20.5 135.5t33 96t43.5 36.5q9 0 20 -2t20.5 -6.5t15.5 -11t5 -15.5q-14 -68 -29 -133.5t-17 -135.5h4
q29 78 61 159t74 157q5 14 31 14q13 0 31.5 -4.5t35.5 -12t28 -18t10 -22.5q-4 -39 -15.5 -84t-24 -92t-22 -95t-9.5 -92q0 -71 39 -71q12 0 22.5 10.5t19 25t14.5 29.5t9 24q13 0 24 -4q9 -4 16.5 -12.5t7.5 -24.5t-10 -38.5t-29 -42.5t-45.5 -34.5t-60.5 -14.5
q-36 0 -60 13t-38 34t-19 48t-5 56q1 15 4 38.5t7.5 49.5t9.5 51t9 43h-12zM151 596q-6 0 -11.5 5.5t-9.5 13.5t-4.5 16.5t2.5 14.5q4 7 12.5 17t20 19t25 15.5t27.5 6.5q21 0 36 -6t27.5 -13.5t23 -13.5t21.5 -6q10 0 19 4.5t16.5 10t14 10t12.5 4.5q5 0 10 -5t8 -12.5
t3.5 -17t-3.5 -17.5q-3 -7 -12 -17t-21.5 -19t-28.5 -15t-33 -6q-18 0 -33 6t-28.5 13t-25 13t-22.5 6q-7 0 -13.5 -4t-12 -9.5t-11 -9.5t-9.5 -4z" />
    <glyph glyph-name="ograve" unicode="&#xf2;" horiz-adv-x="407" 
d="M11 212q2 49 17.5 102t39 98.5t53 77.5t59.5 39q13 -5 22 -11.5t11 -13.5q6 3 13 6q6 2 14 4t19 2q51 0 81.5 -17t47 -45t21.5 -65t4 -76q-2 -28 -7 -64.5t-16 -75.5t-27.5 -77t-40.5 -67.5t-56.5 -48t-73.5 -18.5q-51 0 -86 23.5t-57 60t-31 80.5t-7 86zM124 177
q-2 -27 0.5 -50.5t9 -41t17 -27.5t24.5 -10q22 0 40 19t31.5 48t24 65t17 70t10 62t4.5 42q1 10 2 26t-1 31t-8.5 26t-20.5 11q-21 0 -39.5 -26.5t-34 -62.5t-26 -72.5t-14.5 -56.5q-1 -3 -12 1t-15 7q-2 -7 -4 -17q-2 -8 -3 -19.5t-2 -24.5zM165 723q-7 10 -4.5 20t14.5 14
q6 1 18 3.5t25 2.5t25 -2.5t17 -10.5q7 -13 18.5 -34.5t22.5 -42.5t19.5 -37.5t10.5 -20.5q5 -8 1 -17t-12 -11q-14 -5 -34 -6t-28 11z" />
    <glyph glyph-name="oacute" unicode="&#xf3;" horiz-adv-x="407" 
d="M11 212q2 49 17.5 102t39 98.5t53 77.5t59.5 39q13 -5 22 -11.5t11 -13.5q6 3 13 6q6 2 14 4t19 2q51 0 81.5 -17t47 -45t21.5 -65t4 -76q-2 -28 -7 -64.5t-16 -75.5t-27.5 -77t-40.5 -67.5t-56.5 -48t-73.5 -18.5q-51 0 -86 23.5t-57 60t-31 80.5t-7 86zM124 177
q-2 -27 0.5 -50.5t9 -41t17 -27.5t24.5 -10q22 0 40 19t31.5 48t24 65t17 70t10 62t4.5 42q1 10 2 26t-1 31t-8.5 26t-20.5 11q-21 0 -39.5 -26.5t-34 -62.5t-26 -72.5t-14.5 -56.5q-1 -3 -12 1t-15 7q-2 -7 -4 -17q-2 -8 -3 -19.5t-2 -24.5zM301 582q-6 -6 -21 -2.5
t-29.5 11t-24 16t-5.5 13.5q13 16 26.5 34.5t27 35.5t26.5 30.5t25 19.5q17 7 38 2.5t37.5 -13.5t25 -20.5t1.5 -17.5q-42 -35 -74.5 -62.5t-52.5 -46.5z" />
    <glyph glyph-name="ocircumflex" unicode="&#xf4;" horiz-adv-x="407" 
d="M11 212q2 49 17.5 102t39 98.5t53 77.5t59.5 39q13 -5 22 -11.5t11 -13.5q6 3 13 6q6 2 14 4t19 2q51 0 81.5 -17t47 -45t21.5 -65t4 -76q-2 -28 -7 -64.5t-16 -75.5t-27.5 -77t-40.5 -67.5t-56.5 -48t-73.5 -18.5q-51 0 -86 23.5t-57 60t-31 80.5t-7 86zM124 177
q-2 -27 0.5 -50.5t9 -41t17 -27.5t24.5 -10q22 0 40 19t31.5 48t24 65t17 70t10 62t4.5 42q1 10 2 26t-1 31t-8.5 26t-20.5 11q-21 0 -39.5 -26.5t-34 -62.5t-26 -72.5t-14.5 -56.5q-1 -3 -12 1t-15 7q-2 -7 -4 -17q-2 -8 -3 -19.5t-2 -24.5zM151 614q-25 15 4 37
q11 9 26.5 21t33 25.5t34.5 26t31 22.5l49 -7q10 -13 25 -34t29 -42t25 -37t13 -19q5 -8 1 -16.5t-12 -10.5q-15 -4 -30 -3.5t-23 8.5q-5 6 -12.5 16t-15.5 21t-15.5 21t-12.5 16q-17 -14 -34.5 -28t-37.5 -31q-8 -7 -18 -11t-21 3z" />
    <glyph glyph-name="otilde" unicode="&#xf5;" horiz-adv-x="407" 
d="M11 212q2 49 17.5 102t39 98.5t53 77.5t59.5 39q13 -5 22 -11.5t11 -13.5q6 3 13 6q6 2 14 4t19 2q51 0 81.5 -17t47 -45t21.5 -65t4 -76q-2 -28 -7 -64.5t-16 -75.5t-27.5 -77t-40.5 -67.5t-56.5 -48t-73.5 -18.5q-51 0 -86 23.5t-57 60t-31 80.5t-7 86zM124 177
q-2 -27 0.5 -50.5t9 -41t17 -27.5t24.5 -10q22 0 40 19t31.5 48t24 65t17 70t10 62t4.5 42q1 10 2 26t-1 31t-8.5 26t-20.5 11q-21 0 -39.5 -26.5t-34 -62.5t-26 -72.5t-14.5 -56.5q-1 -3 -12 1t-15 7q-2 -7 -4 -17q-2 -8 -3 -19.5t-2 -24.5zM171 592q-6 0 -11.5 5.5
t-9.5 13.5t-4.5 16.5t2.5 14.5q4 7 12.5 17t20 19t25 15.5t27.5 6.5q21 0 36 -6t27.5 -13.5t23 -13.5t21.5 -6q10 0 19 4.5t16.5 10t14 10t12.5 4.5q5 0 10 -5t8 -12.5t3.5 -17t-3.5 -17.5q-3 -7 -12 -17t-21.5 -19t-28.5 -15t-33 -6q-18 0 -33 6t-28.5 13t-25 13t-22.5 6
q-7 0 -13.5 -4t-12 -9.5t-11 -9.5t-9.5 -4z" />
    <glyph glyph-name="odieresis" unicode="&#xf6;" horiz-adv-x="407" 
d="M11 212q2 49 17.5 102t39 98.5t53 77.5t59.5 39q13 -5 22 -11.5t11 -13.5q6 3 13 6q6 2 14 4t19 2q51 0 81.5 -17t47 -45t21.5 -65t4 -76q-2 -28 -7 -64.5t-16 -75.5t-27.5 -77t-40.5 -67.5t-56.5 -48t-73.5 -18.5q-51 0 -86 23.5t-57 60t-31 80.5t-7 86zM124 177
q-2 -27 0.5 -50.5t9 -41t17 -27.5t24.5 -10q22 0 40 19t31.5 48t24 65t17 70t10 62t4.5 42q1 10 2 26t-1 31t-8.5 26t-20.5 11q-21 0 -39.5 -26.5t-34 -62.5t-26 -72.5t-14.5 -56.5q-1 -3 -12 1t-15 7q-2 -7 -4 -17q-2 -8 -3 -19.5t-2 -24.5zM144 620q-15 5 -26.5 14.5
t-11.5 29.5q0 11 5.5 25.5t18 28t32.5 23t50 9.5q7 0 16.5 -3.5t17 -10.5t13 -18t5.5 -27q0 -10 -3 -27.5t-11.5 -34t-24.5 -28.5t-42 -12q-19 0 -29.5 5.5t-9.5 25.5zM297 652q0 10 5 25t17 28t31.5 22.5t48.5 9.5q7 0 17 -3t18.5 -10t14.5 -18t6 -27q0 -10 -3.5 -28
t-12.5 -35.5t-24 -30.5t-38 -13q-15 0 -29.5 8t-25.5 20t-18 26t-7 26z" />
    <glyph glyph-name="divide" unicode="&#xf7;" horiz-adv-x="481" 
d="M123 244q-12 -2 -25.5 12.5t-23.5 33t-13 35.5t5 20q34 10 82 18t95.5 13t88 7t60.5 1q6 0 18 -18t20.5 -39t9.5 -38.5t-13 -17.5q-169 -3 -304 -27zM214 475q-17 6 -30 16.5t-13 32.5q0 12 6 28.5t20.5 31.5t37 25.5t55.5 10.5q8 0 18 -3.5t19 -11.5t15 -20.5t6 -30.5
q0 -11 -4 -31.5t-13.5 -40t-26.5 -34t-43 -14.5t-40.5 8t-6.5 33zM127 107q0 12 6 28.5t20.5 31.5t37 25.5t55.5 10.5q8 0 18 -3.5t19 -11.5t15 -20.5t6 -30.5q0 -11 -4 -31.5t-13.5 -40t-26.5 -34t-43 -14.5q-17 0 -33 9t-29 22.5t-20.5 29t-7.5 29.5z" />
    <glyph glyph-name="oslash" unicode="&#xf8;" horiz-adv-x="407" 
d="M71 14q-17 19 -29 43t-19 50t-10 52.5t-2 52.5q2 49 17.5 102t39 98.5t53 77.5t59.5 39q13 -5 22 -11.5t11 -13.5q6 3 13 6q6 2 14 4t19 2q39 0 67 -11q19 29 36.5 45t34.5 16t24.5 -10.5t4.5 -24.5q-12 -11 -24 -27t-25 -35q23 -29 30 -70t6 -86q-2 -28 -7 -64.5
t-16 -75.5t-27.5 -77t-40.5 -67.5t-56.5 -48t-73.5 -18.5q-35 0 -66 13q-15 -30 -27 -52.5t-21 -35.5q-14 -1 -29.5 8t-13.5 23q4 21 13.5 47.5t17.5 38.5zM118 177q-2 -24 -0.5 -45t6.5 -38q23 46 45 93.5t43 93.5t41 88t39 77q-6 3 -13 3q-15 0 -29 -12.5t-27 -32
t-24.5 -44t-20.5 -49t-15.5 -45.5t-9.5 -35q-1 -3 -11 0t-15 7q-2 -8 -4 -18q-2 -8 -3 -19t-2 -24zM172 46q22 0 40.5 18t33.5 46.5t26 63.5t18.5 69t12 62.5t5.5 44.5q-39 -73 -77 -153.5t-70 -149.5q3 -1 11 -1z" />
    <glyph glyph-name="ugrave" unicode="&#xf9;" horiz-adv-x="438" 
d="M261 130q-6 -17 -17 -42.5t-26 -48.5t-34 -39.5t-41 -16.5q-21 0 -45 12t-44.5 32t-34 44.5t-13.5 50.5q0 29 5 68.5t13 81t19 82t23 72.5t24.5 51.5t24.5 19.5q31 0 55 -11.5t30 -21.5q-14 -43 -27.5 -92.5t-23.5 -99t-15.5 -96.5t-2.5 -84l13 -4q25 33 49 86.5
t44 112.5t35 114.5t21 93.5q1 7 9 10t20 3q14 0 29.5 -5t29 -12.5t22 -16t8.5 -14.5q-2 -16 -9 -57t-15.5 -89.5t-15 -95t-7.5 -72.5q-1 -11 0.5 -24t6 -24t12 -18.5t19.5 -7.5q16 0 28 15t20 34q10 21 16 49q3 0 11.5 -0.5t17.5 -4t16 -11.5t7 -23q0 -18 -11 -41.5
t-30.5 -44.5t-46 -36t-56.5 -15q-36 0 -57 13t-32.5 33t-14.5 44t-1 45zM147 722q-7 10 -4.5 20t14.5 14q6 1 18 3.5t25 2.5t25 -2.5t17 -10.5q7 -13 18.5 -34.5t22.5 -42.5t19.5 -37.5t10.5 -20.5q5 -8 1 -17t-12 -11q-14 -5 -34 -6t-28 11z" />
    <glyph glyph-name="uacute" unicode="&#xfa;" horiz-adv-x="438" 
d="M261 130q-6 -17 -17 -42.5t-26 -48.5t-34 -39.5t-41 -16.5q-21 0 -45 12t-44.5 32t-34 44.5t-13.5 50.5q0 29 5 68.5t13 81t19 82t23 72.5t24.5 51.5t24.5 19.5q31 0 55 -11.5t30 -21.5q-14 -43 -27.5 -92.5t-23.5 -99t-15.5 -96.5t-2.5 -84l13 -4q25 33 49 86.5
t44 112.5t35 114.5t21 93.5q1 7 9 10t20 3q14 0 29.5 -5t29 -12.5t22 -16t8.5 -14.5q-2 -16 -9 -57t-15.5 -89.5t-15 -95t-7.5 -72.5q-1 -11 0.5 -24t6 -24t12 -18.5t19.5 -7.5q16 0 28 15t20 34q10 21 16 49q3 0 11.5 -0.5t17.5 -4t16 -11.5t7 -23q0 -18 -11 -41.5
t-30.5 -44.5t-46 -36t-56.5 -15q-36 0 -57 13t-32.5 33t-14.5 44t-1 45zM289 583q-6 -6 -21 -2.5t-29.5 11t-24 16t-5.5 13.5q13 16 26.5 34.5t27 35.5t26.5 30.5t25 19.5q17 7 38 2.5t37.5 -13.5t25 -20.5t1.5 -17.5q-42 -35 -74.5 -62.5t-52.5 -46.5z" />
    <glyph glyph-name="ucircumflex" unicode="&#xfb;" horiz-adv-x="438" 
d="M261 130q-6 -17 -17 -42.5t-26 -48.5t-34 -39.5t-41 -16.5q-21 0 -45 12t-44.5 32t-34 44.5t-13.5 50.5q0 29 5 68.5t13 81t19 82t23 72.5t24.5 51.5t24.5 19.5q31 0 55 -11.5t30 -21.5q-14 -43 -27.5 -92.5t-23.5 -99t-15.5 -96.5t-2.5 -84l13 -4q25 33 49 86.5
t44 112.5t35 114.5t21 93.5q1 7 9 10t20 3q14 0 29.5 -5t29 -12.5t22 -16t8.5 -14.5q-2 -16 -9 -57t-15.5 -89.5t-15 -95t-7.5 -72.5q-1 -11 0.5 -24t6 -24t12 -18.5t19.5 -7.5q16 0 28 15t20 34q10 21 16 49q3 0 11.5 -0.5t17.5 -4t16 -11.5t7 -23q0 -18 -11 -41.5
t-30.5 -44.5t-46 -36t-56.5 -15q-36 0 -57 13t-32.5 33t-14.5 44t-1 45zM144 614q-25 15 4 37q11 9 26.5 21t33 25.5t34.5 26t31 22.5l49 -7q10 -13 25 -34t29 -42t25 -37t13 -19q5 -8 1 -16.5t-12 -10.5q-15 -4 -30 -3.5t-23 8.5q-5 6 -12.5 16t-15.5 21t-15.5 21t-12.5 16
q-17 -14 -34.5 -28t-37.5 -31q-8 -7 -18 -11t-21 3z" />
    <glyph glyph-name="udieresis" unicode="&#xfc;" horiz-adv-x="438" 
d="M261 130q-6 -17 -17 -42.5t-26 -48.5t-34 -39.5t-41 -16.5q-21 0 -45 12t-44.5 32t-34 44.5t-13.5 50.5q0 29 5 68.5t13 81t19 82t23 72.5t24.5 51.5t24.5 19.5q31 0 55 -11.5t30 -21.5q-14 -43 -27.5 -92.5t-23.5 -99t-15.5 -96.5t-2.5 -84l13 -4q25 33 49 86.5
t44 112.5t35 114.5t21 93.5q1 7 9 10t20 3q14 0 29.5 -5t29 -12.5t22 -16t8.5 -14.5q-2 -16 -9 -57t-15.5 -89.5t-15 -95t-7.5 -72.5q-1 -11 0.5 -24t6 -24t12 -18.5t19.5 -7.5q16 0 28 15t20 34q10 21 16 49q3 0 11.5 -0.5t17.5 -4t16 -11.5t7 -23q0 -18 -11 -41.5
t-30.5 -44.5t-46 -36t-56.5 -15q-36 0 -57 13t-32.5 33t-14.5 44t-1 45zM143 622q-15 5 -26.5 14.5t-11.5 29.5q0 11 5.5 25.5t18 28t32.5 23t50 9.5q7 0 16.5 -3.5t17 -10.5t13 -18t5.5 -27q0 -10 -3 -27.5t-11.5 -34t-24.5 -28.5t-42 -12q-19 0 -29.5 5.5t-9.5 25.5z
M296 654q0 10 5 25t17 28t31.5 22.5t48.5 9.5q7 0 17 -3t18.5 -10t14.5 -18t6 -27q0 -10 -3.5 -28t-12.5 -35.5t-24 -30.5t-38 -13q-15 0 -29.5 8t-25.5 20t-18 26t-7 26z" />
    <glyph glyph-name="yacute" unicode="&#xfd;" horiz-adv-x="385" 
d="M6 140q0 91 21 180.5t50 164.5q7 13 18.5 18t28.5 5q13 0 27 -4t25 -10t18.5 -14.5t8.5 -17.5q-26 -82 -48 -167.5t-25 -170.5q0 -19 3.5 -33.5t16.5 -14.5q11 0 23.5 15t24 36t20.5 44t13 39q2 9 6.5 35t10 59.5t12.5 70t14.5 67t15 50.5t14.5 20q18 0 37 -4t34 -10
t24.5 -14t9.5 -16q0 -36 -8 -74t-18.5 -75t-21 -70.5t-14.5 -59.5q-7 -38 -16 -92.5t-18 -111.5t-15.5 -110t-9.5 -89q-2 -16 -8 -19t-14 -3q-6 0 -18 3t-25.5 7.5t-26.5 9.5t-20 8q-8 4 -10.5 8.5t-2.5 16.5q0 14 5.5 43t12.5 63.5t14.5 70.5t10.5 65q-12 -23 -35 -43
t-55 -20q-34 0 -55.5 14t-33.5 35.5t-16.5 47t-4.5 47.5zM282 580q-6 -6 -21 -2.5t-29.5 11t-24 16t-5.5 13.5q13 16 26.5 34.5t27 35.5t26.5 30.5t25 19.5q17 7 38 2.5t37.5 -13.5t25 -20.5t1.5 -17.5q-42 -35 -74.5 -62.5t-52.5 -46.5z" />
    <glyph glyph-name="thorn" unicode="&#xfe;" horiz-adv-x="350" 
d="M-28 175q9 49 20.5 110t24 123.5t25 122t24 105.5t21 74t15.5 29q14 1 31.5 -3t33.5 -10.5t26.5 -15t10.5 -15.5q-5 -17 -16 -52t-23 -75.5t-23 -79.5t-15 -62q23 43 49.5 66.5t56.5 23.5q28 0 54.5 -16t47 -41t32.5 -56.5t12 -62.5q0 -20 -4.5 -55.5t-14 -77
t-25.5 -84.5t-39 -77.5t-54 -56.5t-70 -22q-33 0 -63.5 18.5t-50.5 41.5q-4 -29 -7.5 -64t-6.5 -69t-5.5 -61.5t-4.5 -39.5q-3 -16 -9.5 -18.5t-14.5 -3.5q-4 0 -15.5 2.5t-26 7t-27.5 9t-20 8.5q-8 3 -5.5 36.5t11.5 86t21.5 119t23.5 135.5zM102 232q1 0 -5 -28t-8 -79
q-1 -28 10.5 -47.5t31.5 -19.5q26 0 45.5 23.5t33.5 58.5t23.5 76.5t15 77.5t8 61t2.5 28q0 10 0.5 20.5t-1.5 18.5t-7 13t-14 5q-21 0 -40 -25t-34.5 -59.5t-26 -70t-13.5 -56.5q0 -1 -2 -1.5t-3 -0.5z" />
    <glyph glyph-name="ydieresis" unicode="&#xff;" horiz-adv-x="385" 
d="M6 140q0 91 21 180.5t50 164.5q7 13 18.5 18t28.5 5q13 0 27 -4t25 -10t18.5 -14.5t8.5 -17.5q-26 -82 -48 -167.5t-25 -170.5q0 -19 3.5 -33.5t16.5 -14.5q11 0 23.5 15t24 36t20.5 44t13 39q2 9 6.5 35t10 59.5t12.5 70t14.5 67t15 50.5t14.5 20q18 0 37 -4t34 -10
t24.5 -14t9.5 -16q0 -36 -8 -74t-18.5 -75t-21 -70.5t-14.5 -59.5q-7 -38 -16 -92.5t-18 -111.5t-15.5 -110t-9.5 -89q-2 -16 -8 -19t-14 -3q-6 0 -18 3t-25.5 7.5t-26.5 9.5t-20 8q-8 4 -10.5 8.5t-2.5 16.5q0 14 5.5 43t12.5 63.5t14.5 70.5t10.5 65q-12 -23 -35 -43
t-55 -20q-34 0 -55.5 14t-33.5 35.5t-16.5 47t-4.5 47.5zM141 621q-15 5 -26.5 14.5t-11.5 29.5q0 11 5.5 25.5t18 28t32.5 23t50 9.5q7 0 16.5 -3.5t17 -10.5t13 -18t5.5 -27q0 -10 -3 -27.5t-11.5 -34t-24.5 -28.5t-42 -12q-19 0 -29.5 5.5t-9.5 25.5zM294 653q0 10 5 25
t17 28t31.5 22.5t48.5 9.5q7 0 17 -3t18.5 -10t14.5 -18t6 -27q0 -10 -3.5 -28t-12.5 -35.5t-24 -30.5t-38 -13q-15 0 -29.5 8t-25.5 20t-18 26t-7 26z" />
    <glyph glyph-name="Amacron" unicode="&#x100;" horiz-adv-x="496" 
d="M341 109q-2 30 -2 60.5t1 62.5q-44 -2 -91 -7.5t-90 -12.5q-24 -63 -44.5 -134.5t-35.5 -152.5q-2 -11 -21.5 -10t-42.5 8t-43 17.5t-22 18.5q5 48 23 109t45 130q-9 7 -16 19t-10.5 24.5t-3.5 22.5t6 14q8 5 26.5 11t43.5 12q33 70 73 138t83 125.5t88 100.5t88 63
q14 1 30 -1.5t30 -8.5t26 -13.5t18 -14.5q-22 -100 -31 -206.5t-9.5 -204t4 -176.5t10.5 -123q-2 -11 -21 -10t-41.5 7.5t-42.5 17t-25 18.5q-11 20 -15 46t-3 47zM373 583q-35 -38 -78 -102t-86 -154l50 5q11 1 24 2t24.5 1t20 -2t10.5 -7q3 -5 6 -7q4 64 12 129t22 134z
M288 824q26 7 61.5 11t71.5 5.5t68.5 1t52.5 -1.5q6 0 17 -13t18.5 -28.5t8 -28t-13.5 -12.5q-66 0 -126 0.5t-106 -4.5q-12 -2 -25 8t-22 23t-11.5 25t6.5 14z" />
    <glyph glyph-name="amacron" unicode="&#x101;" horiz-adv-x="463" 
d="M302 46q-8 -13 -19.5 -26t-27.5 -23.5t-34.5 -17t-39.5 -6.5q-37 0 -68 13.5t-53.5 39.5t-35 63.5t-12.5 84.5q0 67 15.5 131t45 114.5t72 81.5t95.5 31q34 0 61 -7.5t46 -19.5t28.5 -27t9.5 -30q0 -2 -0.5 -4.5t-0.5 -4.5q-1 -3 -1 -4q4 -2 14 -3t19.5 -3.5t16.5 -7.5
t4 -13q-23 -76 -37.5 -149t-15.5 -130q-2 -32 5 -53.5t29 -21.5q17 0 28.5 10.5t19 28t11.5 39.5t7 46q17 1 30 -3q11 -4 21 -13.5t10 -29.5q0 -22 -9 -49.5t-27 -52t-45 -41t-63 -16.5q-26 0 -43 8t-28 19.5t-16 24t-6 21.5h-6zM142 136q-2 -44 5 -62.5t24 -18.5
q13 0 25.5 16.5t24.5 42.5t22 57t17.5 59.5t12 51t5.5 30.5q-9 2 -16 5q-16 5 -24 16q30 42 33 93v8t-1.5 10.5t-5 9t-9.5 3.5q-16 0 -30 -17t-26.5 -44.5t-22.5 -62.5t-17 -70.5t-11.5 -68.5t-5.5 -58zM133 666q26 7 61.5 11t71.5 5.5t68.5 1t52.5 -1.5q6 0 17 -13
t18.5 -28.5t8 -28t-13.5 -12.5q-66 0 -126 0.5t-106 -4.5q-12 -2 -25 8t-22 23t-11.5 25t6.5 14z" />
    <glyph glyph-name="Abreve" unicode="&#x102;" horiz-adv-x="496" 
d="M341 109q-2 30 -2 60.5t1 62.5q-44 -2 -91 -7.5t-90 -12.5q-24 -63 -44.5 -134.5t-35.5 -152.5q-2 -11 -21.5 -10t-42.5 8t-43 17.5t-22 18.5q5 48 23 109t45 130q-9 7 -16 19t-10.5 24.5t-3.5 22.5t6 14q8 5 26.5 11t43.5 12q33 70 73 138t83 125.5t88 100.5t88 63
q14 1 30 -1.5t30 -8.5t26 -13.5t18 -14.5q-22 -100 -31 -206.5t-9.5 -204t4 -176.5t10.5 -123q-2 -11 -21 -10t-41.5 7.5t-42.5 17t-25 18.5q-11 20 -15 46t-3 47zM373 583q-35 -38 -78 -102t-86 -154l50 5q11 1 24 2t24.5 1t20 -2t10.5 -7q3 -5 6 -7q4 64 12 129t22 134z
M510 883q3 7 16 6.5t28.5 -5.5t28.5 -12.5t15 -15.5q-14 -44 -51.5 -73.5t-85.5 -29.5q-47 0 -76 23t-39 52q-4 10 -3 21t6 19t14 12t23 2q5 -22 18.5 -42t37.5 -20q27 0 42 18.5t26 44.5z" />
    <glyph glyph-name="abreve" unicode="&#x103;" horiz-adv-x="463" 
d="M302 46q-8 -13 -19.5 -26t-27.5 -23.5t-34.5 -17t-39.5 -6.5q-37 0 -68 13.5t-53.5 39.5t-35 63.5t-12.5 84.5q0 67 15.5 131t45 114.5t72 81.5t95.5 31q34 0 61 -7.5t46 -19.5t28.5 -27t9.5 -30q0 -2 -0.5 -4.5t-0.5 -4.5q-1 -3 -1 -4q4 -2 14 -3t19.5 -3.5t16.5 -7.5
t4 -13q-23 -76 -37.5 -149t-15.5 -130q-2 -32 5 -53.5t29 -21.5q17 0 28.5 10.5t19 28t11.5 39.5t7 46q17 1 30 -3q11 -4 21 -13.5t10 -29.5q0 -22 -9 -49.5t-27 -52t-45 -41t-63 -16.5q-26 0 -43 8t-28 19.5t-16 24t-6 21.5h-6zM142 136q-2 -44 5 -62.5t24 -18.5
q13 0 25.5 16.5t24.5 42.5t22 57t17.5 59.5t12 51t5.5 30.5q-9 2 -16 5q-16 5 -24 16q30 42 33 93v8t-1.5 10.5t-5 9t-9.5 3.5q-16 0 -30 -17t-26.5 -44.5t-22.5 -62.5t-17 -70.5t-11.5 -68.5t-5.5 -58zM345 714q3 7 16 6.5t28.5 -5.5t28.5 -12.5t15 -15.5
q-14 -44 -51.5 -73.5t-85.5 -29.5q-47 0 -76 23t-39 52q-4 10 -3 21t6 19t14 12t23 2q5 -22 18.5 -42t37.5 -20q27 0 42 18.5t26 44.5z" />
    <glyph glyph-name="Aogonek" unicode="&#x104;" horiz-adv-x="496" 
d="M265 -95q0 21 7 37.5t18.5 29.5t25.5 22.5t29 16.5q-1 1 -1 2q-11 20 -15 46t-3 47l15 3q-2 30 -2 60.5t1 62.5q-44 -2 -91 -7.5t-90 -12.5q-24 -63 -44.5 -134.5t-35.5 -152.5q-2 -11 -21.5 -10t-42.5 8t-43 17.5t-22 18.5q5 48 23 109t45 130q-9 7 -16 19t-10.5 24.5
t-3.5 22.5t6 14q8 5 26.5 11t43.5 12q33 70 73 138t83 125.5t88 100.5t88 63q14 1 30 -1.5t30 -8.5t26 -13.5t18 -14.5q-22 -100 -31 -206.5t-9.5 -204t4 -176.5t10.5 -123q-2 -6 -10 -8.5t-19 -0.5q-9 -5 -27 -10.5t-36 -15.5t-31 -25t-13 -39q0 -14 12.5 -22t29.5 -8
q25 0 50.5 13.5t40.5 30.5q8 -2 17.5 -7.5t17.5 -13.5t13.5 -17.5t5.5 -19.5q0 -7 -6 -15.5t-20.5 -16.5t-37 -13.5t-55.5 -5.5q-65 0 -103 33.5t-38 85.5zM373 583q-35 -38 -78 -102t-86 -154l50 5q11 1 24 2t24.5 1t20 -2t10.5 -7q3 -5 6 -7q4 64 12 129t22 134z" />
    <glyph glyph-name="aogonek" unicode="&#x105;" horiz-adv-x="463" 
d="M273 -81q0 31 14.5 53t35.5 36q-8 10 -11 20t-4 18h-6q-8 -13 -19.5 -26t-27.5 -23.5t-34.5 -17t-39.5 -6.5q-37 0 -68 13.5t-53.5 39.5t-35 63.5t-12.5 84.5q0 67 15.5 131t45 114.5t72 81.5t95.5 31q34 0 61 -7.5t46 -19.5t28.5 -27t9.5 -30q0 -2 -0.5 -4.5t-0.5 -4.5
q-1 -3 -1 -4q4 -2 14 -3t19.5 -3.5t16.5 -7.5t4 -13q-23 -76 -37.5 -149t-15.5 -130q-2 -32 5 -53.5t29 -21.5q17 0 28.5 10.5t19 28t11.5 39.5t7 46q17 1 30 -3q11 -4 21 -13.5t10 -29.5q0 -19 -7 -43t-21 -46.5t-35 -40.5t-49 -25q-13 -5 -28 -11t-28 -15.5t-22 -23
t-9 -32.5q0 -14 12.5 -22t29.5 -8q25 0 50.5 13.5t40.5 30.5q8 -2 17.5 -7.5t17.5 -13.5t13.5 -17.5t5.5 -19.5q0 -7 -6 -15.5t-20.5 -16.5t-37 -13.5t-55.5 -5.5q-65 0 -103 33.5t-38 85.5zM142 136q-2 -44 5 -62.5t24 -18.5q13 0 25.5 16.5t24.5 42.5t22 57t17.5 59.5
t12 51t5.5 30.5q-9 2 -16 5q-16 5 -24 16q30 42 33 93v8t-1.5 10.5t-5 9t-9.5 3.5q-16 0 -30 -17t-26.5 -44.5t-22.5 -62.5t-17 -70.5t-11.5 -68.5t-5.5 -58z" />
    <glyph glyph-name="Cacute" unicode="&#x106;" horiz-adv-x="489" 
d="M12 236q0 47 10 101.5t29 108t46.5 102.5t62.5 86.5t76.5 60t88.5 22.5q28 0 56.5 -11.5t51.5 -32.5t38 -49t15 -61q0 -35 -11 -67t-27.5 -56t-35.5 -38.5t-35 -14.5q-14 0 -25.5 5.5t-20 14t-14.5 17.5t-9 17q17 24 31 51q12 23 22 52.5t12 60.5q0 16 -10.5 24.5
t-21.5 8.5q-17 0 -38.5 -18.5t-44 -50.5t-44 -75t-38.5 -92t-27 -102t-10 -104q0 -77 24.5 -113.5t66.5 -36.5q41 0 69.5 25.5t47 62t28.5 78t15 74.5q6 2 14 4q7 2 15.5 3t19.5 1q21 0 38.5 -17.5t17.5 -62.5q0 -36 -13.5 -82t-42 -87t-72 -69.5t-103.5 -28.5
q-58 0 -104.5 20.5t-79.5 58.5t-50.5 91t-17.5 119zM378 753q-6 -6 -21 -2.5t-29.5 11t-24 16t-5.5 13.5q13 16 26.5 34.5t27 35.5t26.5 30.5t25 19.5q17 7 38 2.5t37.5 -13.5t25 -20.5t1.5 -17.5q-42 -35 -74.5 -62.5t-52.5 -46.5z" />
    <glyph glyph-name="cacute" unicode="&#x107;" horiz-adv-x="372" 
d="M11 171q0 49 13 107t39.5 108.5t67 84t95.5 33.5q24 0 49.5 -8.5t45.5 -24t33 -36.5t13 -46q0 -70 -26 -106.5t-60 -36.5q-26 0 -40 12.5t-16 33.5q-1 2 -1 6q10 14 18 32q7 15 12.5 35t6.5 43q2 23 -15 23q-18 0 -36 -23.5t-32.5 -62.5t-23.5 -90.5t-9 -106.5
q0 -69 21.5 -94.5t54.5 -25.5q30 0 54.5 17.5t43 44t30 56.5t14.5 55q5 1 10 3l10 2t12 1q19 0 34 -15t15 -50q0 -19 -11.5 -51.5t-37 -64.5t-67 -55.5t-102.5 -23.5q-45 0 -84 15.5t-68.5 45t-46 71t-16.5 92.5zM299 578q-6 -6 -21 -2.5t-29.5 11t-24 16t-5.5 13.5
q13 16 26.5 34.5t27 35.5t26.5 30.5t25 19.5q17 7 38 2.5t37.5 -13.5t25 -20.5t1.5 -17.5q-42 -35 -74.5 -62.5t-52.5 -46.5z" />
    <glyph glyph-name="Ccircumflex" unicode="&#x108;" horiz-adv-x="489" 
d="M12 236q0 47 10 101.5t29 108t46.5 102.5t62.5 86.5t76.5 60t88.5 22.5q28 0 56.5 -11.5t51.5 -32.5t38 -49t15 -61q0 -35 -11 -67t-27.5 -56t-35.5 -38.5t-35 -14.5q-14 0 -25.5 5.5t-20 14t-14.5 17.5t-9 17q17 24 31 51q12 23 22 52.5t12 60.5q0 16 -10.5 24.5
t-21.5 8.5q-17 0 -38.5 -18.5t-44 -50.5t-44 -75t-38.5 -92t-27 -102t-10 -104q0 -77 24.5 -113.5t66.5 -36.5q41 0 69.5 25.5t47 62t28.5 78t15 74.5q6 2 14 4q7 2 15.5 3t19.5 1q21 0 38.5 -17.5t17.5 -62.5q0 -36 -13.5 -82t-42 -87t-72 -69.5t-103.5 -28.5
q-58 0 -104.5 20.5t-79.5 58.5t-50.5 91t-17.5 119zM221 778q-25 15 4 37q11 9 26.5 21t33 25.5t34.5 26t31 22.5l49 -7q10 -13 25 -34t29 -42t25 -37t13 -19q5 -8 1 -16.5t-12 -10.5q-15 -4 -30 -3.5t-23 8.5q-5 6 -12.5 16t-15.5 21t-15.5 21t-12.5 16q-17 -14 -34.5 -28
t-37.5 -31q-8 -7 -18 -11t-21 3z" />
    <glyph glyph-name="ccircumflex" unicode="&#x109;" horiz-adv-x="372" 
d="M11 171q0 49 13 107t39.5 108.5t67 84t95.5 33.5q24 0 49.5 -8.5t45.5 -24t33 -36.5t13 -46q0 -70 -26 -106.5t-60 -36.5q-26 0 -40 12.5t-16 33.5q-1 2 -1 6q10 14 18 32q7 15 12.5 35t6.5 43q2 23 -15 23q-18 0 -36 -23.5t-32.5 -62.5t-23.5 -90.5t-9 -106.5
q0 -69 21.5 -94.5t54.5 -25.5q30 0 54.5 17.5t43 44t30 56.5t14.5 55q5 1 10 3l10 2t12 1q19 0 34 -15t15 -50q0 -19 -11.5 -51.5t-37 -64.5t-67 -55.5t-102.5 -23.5q-45 0 -84 15.5t-68.5 45t-46 71t-16.5 92.5zM138 604q-25 15 4 37q11 9 26.5 21t33 25.5t34.5 26t31 22.5
l49 -7q10 -13 25 -34t29 -42t25 -37t13 -19q5 -8 1 -16.5t-12 -10.5q-15 -4 -30 -3.5t-23 8.5q-5 6 -12.5 16t-15.5 21t-15.5 21t-12.5 16q-17 -14 -34.5 -28t-37.5 -31q-8 -7 -18 -11t-21 3z" />
    <glyph glyph-name="Cdotaccent" unicode="&#x10a;" horiz-adv-x="489" 
d="M12 236q0 47 10 101.5t29 108t46.5 102.5t62.5 86.5t76.5 60t88.5 22.5q28 0 56.5 -11.5t51.5 -32.5t38 -49t15 -61q0 -35 -11 -67t-27.5 -56t-35.5 -38.5t-35 -14.5q-14 0 -25.5 5.5t-20 14t-14.5 17.5t-9 17q17 24 31 51q12 23 22 52.5t12 60.5q0 16 -10.5 24.5
t-21.5 8.5q-17 0 -38.5 -18.5t-44 -50.5t-44 -75t-38.5 -92t-27 -102t-10 -104q0 -77 24.5 -113.5t66.5 -36.5q41 0 69.5 25.5t47 62t28.5 78t15 74.5q6 2 14 4q7 2 15.5 3t19.5 1q21 0 38.5 -17.5t17.5 -62.5q0 -36 -13.5 -82t-42 -87t-72 -69.5t-103.5 -28.5
q-58 0 -104.5 20.5t-79.5 58.5t-50.5 91t-17.5 119zM334 775q-14 5 -25.5 14.5t-11.5 29.5q0 11 5.5 25.5t18 28t32.5 23t49 9.5q16 0 34.5 -14t18.5 -45q0 -10 -3 -27.5t-12 -34t-25 -28.5t-41 -12q-19 0 -29.5 5.5t-10.5 25.5z" />
    <glyph glyph-name="cdotaccent" unicode="&#x10b;" horiz-adv-x="372" 
d="M11 171q0 49 13 107t39.5 108.5t67 84t95.5 33.5q24 0 49.5 -8.5t45.5 -24t33 -36.5t13 -46q0 -70 -26 -106.5t-60 -36.5q-26 0 -40 12.5t-16 33.5q-1 2 -1 6q10 14 18 32q7 15 12.5 35t6.5 43q2 23 -15 23q-18 0 -36 -23.5t-32.5 -62.5t-23.5 -90.5t-9 -106.5
q0 -69 21.5 -94.5t54.5 -25.5q30 0 54.5 17.5t43 44t30 56.5t14.5 55q5 1 10 3l10 2t12 1q19 0 34 -15t15 -50q0 -19 -11.5 -51.5t-37 -64.5t-67 -55.5t-102.5 -23.5q-45 0 -84 15.5t-68.5 45t-46 71t-16.5 92.5zM246 605q-14 5 -25.5 14.5t-11.5 29.5q0 11 5.5 25.5t18 28
t32.5 23t49 9.5q16 0 34.5 -14t18.5 -45q0 -10 -3 -27.5t-12 -34t-25 -28.5t-41 -12q-19 0 -29.5 5.5t-10.5 25.5z" />
    <glyph glyph-name="Ccaron" unicode="&#x10c;" horiz-adv-x="489" 
d="M12 236q0 47 10 101.5t29 108t46.5 102.5t62.5 86.5t76.5 60t88.5 22.5q28 0 56.5 -11.5t51.5 -32.5t38 -49t15 -61q0 -35 -11 -67t-27.5 -56t-35.5 -38.5t-35 -14.5q-14 0 -25.5 5.5t-20 14t-14.5 17.5t-9 17q17 24 31 51q12 23 22 52.5t12 60.5q0 16 -10.5 24.5
t-21.5 8.5q-17 0 -38.5 -18.5t-44 -50.5t-44 -75t-38.5 -92t-27 -102t-10 -104q0 -77 24.5 -113.5t66.5 -36.5q41 0 69.5 25.5t47 62t28.5 78t15 74.5q6 2 14 4q7 2 15.5 3t19.5 1q21 0 38.5 -17.5t17.5 -62.5q0 -36 -13.5 -82t-42 -87t-72 -69.5t-103.5 -28.5
q-58 0 -104.5 20.5t-79.5 58.5t-50.5 91t-17.5 119zM515 877q25 -15 -4 -37q-11 -9 -26.5 -21t-33 -25.5t-34.5 -26t-31 -22.5l-49 7q-11 13 -26.5 35t-31 43.5t-27.5 39t-14 20.5q-5 8 -0.5 16t12.5 10q14 5 29 4.5t23 -9.5q5 -6 13.5 -16.5t17.5 -22.5t17 -23t13 -17
q17 14 35 28t38 31q8 6 19.5 10.5t22.5 -2.5z" />
    <glyph glyph-name="ccaron" unicode="&#x10d;" horiz-adv-x="372" 
d="M11 171q0 49 13 107t39.5 108.5t67 84t95.5 33.5q24 0 49.5 -8.5t45.5 -24t33 -36.5t13 -46q0 -70 -26 -106.5t-60 -36.5q-26 0 -40 12.5t-16 33.5q-1 2 -1 6q10 14 18 32q7 15 12.5 35t6.5 43q2 23 -15 23q-18 0 -36 -23.5t-32.5 -62.5t-23.5 -90.5t-9 -106.5
q0 -69 21.5 -94.5t54.5 -25.5q30 0 54.5 17.5t43 44t30 56.5t14.5 55q5 1 10 3l10 2t12 1q19 0 34 -15t15 -50q0 -19 -11.5 -51.5t-37 -64.5t-67 -55.5t-102.5 -23.5q-45 0 -84 15.5t-68.5 45t-46 71t-16.5 92.5zM431 709q25 -15 -4 -37q-11 -9 -26.5 -21t-33 -25.5
t-34.5 -26t-31 -22.5l-49 7q-11 13 -26.5 35t-31 43.5t-27.5 39t-14 20.5q-5 8 -0.5 16t12.5 10q14 5 29 4.5t23 -9.5q5 -6 13.5 -16.5t17.5 -22.5t17 -23t13 -17q17 14 35 28t38 31q8 6 19.5 10.5t22.5 -2.5z" />
    <glyph glyph-name="Dcaron" unicode="&#x10e;" horiz-adv-x="620" 
d="M99 96q6 -21 17.5 -41t29.5 -35t42.5 -24t55.5 -9q51 0 97.5 31t82 87.5t56 135t20.5 173.5q0 75 -30.5 124.5t-83.5 67.5q-9 -41 -19 -91t-19.5 -103t-19 -105.5t-17.5 -99t-14 -84t-9 -59.5q-4 -17 -12 -23t-21 -6q-16 0 -32.5 4t-30.5 9.5t-23.5 11t-12.5 8.5
q8 59 21.5 131.5t28.5 146t31 141.5t29 118q-29 -10 -49.5 -28.5t-34 -41t-21.5 -47.5t-13 -48q0 -1 -5 -1q-4 0 -19 1.5t-31.5 6t-30.5 12t-17 19.5q10 57 40 103q13 19 31 38t43.5 34t58 25t73.5 11q1 10 7 22.5t29 12.5q25 0 49 -8.5t34 -16.5l-7 -23q52 -14 94.5 -42.5
t72.5 -69t46.5 -91t16.5 -108.5q0 -108 -28 -192.5t-76 -143.5t-112.5 -90t-136.5 -31q-66 0 -123.5 21t-101 54t-70 74t-28.5 81q6 9 19 19.5t28 18t30 10t24 -4.5q6 -5 15.5 -14t18 -19.5t14.5 -20.5t7 -17q0 -3 -2 -4.5t-5 -3t-5.5 -2.5t-1.5 -4zM532 876q25 -15 -4 -37
q-11 -9 -26.5 -21t-33 -25.5t-34.5 -26t-31 -22.5l-49 7q-11 13 -26.5 35t-31 43.5t-27.5 39t-14 20.5q-5 8 -0.5 16t12.5 10q14 5 29 4.5t23 -9.5q5 -6 13.5 -16.5t17.5 -22.5t17 -23t13 -17q17 14 35 28t38 31q8 6 19.5 10.5t22.5 -2.5z" />
    <glyph glyph-name="dcaron" unicode="&#x10f;" horiz-adv-x="557" 
d="M292 57q-6 -14 -17 -32.5t-26.5 -35t-35 -28t-43.5 -11.5q-41 0 -70.5 19t-48.5 48.5t-27.5 65t-8.5 69.5t5.5 74.5t17.5 81t30 78.5t42.5 67.5t55.5 47t69 17.5q19 0 35 -5.5t27 -11.5q13 -8 23 -17q5 27 10 58.5t9.5 62t8 56t5.5 40.5q9 49 29 49q14 0 32.5 -3t35 -9
t27 -15t8.5 -21q-4 -27 -13 -77t-19.5 -111t-21.5 -126.5t-20 -123t-15 -101.5t-6 -61q0 -45 29 -45q14 0 25 12.5t19.5 31.5t14 42t8.5 44q16 3 28 -1q11 -3 19.5 -12t8.5 -29q0 -23 -12 -52.5t-33 -55t-51 -43t-66 -17.5q-42 0 -63 25t-21 55h-4zM133 98v-17.5t2 -20
t5.5 -16.5t10.5 -7q12 0 25.5 16.5t27.5 42.5t27 57.5t23.5 61t17 53.5t6.5 34q-7 2 -13.5 5t-13.5 14q6 19 15.5 46t10.5 50q0 11 -2.5 22t-13.5 11q-16 0 -31.5 -17t-29.5 -45t-26 -64.5t-20.5 -75.5t-14 -78t-6.5 -72zM528 676q0 28 22 45.5t60 17.5q40 0 67 -21t27 -61
q0 -20 -8.5 -38.5t-23 -34.5t-34 -28t-40.5 -17q-25 -6 -46.5 -4t-36 9.5t-19.5 20.5t4 30q13 -1 28.5 0t29 4.5t24.5 9.5t15 16q-9 -1 -20.5 0.5t-22.5 7t-18.5 16t-7.5 27.5z" />
    <glyph glyph-name="Dcroat" unicode="&#x110;" horiz-adv-x="620" 
d="M115 337q19 5 42.5 8t49.5 5q15 72 30.5 138.5t28.5 116.5q-29 -10 -49.5 -28.5t-34 -41t-21.5 -47.5t-13 -48q0 -1 -5 -1q-4 0 -19 1.5t-31.5 6t-30.5 12t-17 19.5q10 57 40 103q13 19 31 38t43.5 34t58 25t73.5 11q1 10 7 22.5t29 12.5q25 0 49 -8.5t34 -16.5l-7 -23
q52 -14 94.5 -42.5t72.5 -69t46.5 -91t16.5 -108.5q0 -108 -28 -192.5t-76 -143.5t-112.5 -90t-136.5 -31q-66 0 -123.5 21t-101 54t-70 74t-28.5 81q6 9 19 19.5t28 18t30 10t24 -4.5q6 -5 15.5 -14t18 -19.5t14.5 -20.5t7 -17q0 -3 -2 -4.5t-5 -3t-5.5 -2.5t-1.5 -4
q6 -21 17.5 -41t29.5 -35t42.5 -24t55.5 -9q51 0 97.5 31t82 87.5t56 135t20.5 173.5q0 75 -30.5 124.5t-83.5 67.5q-12 -53 -24.5 -118.5t-24.5 -133.5q9 0 17 -0.5t15 -0.5q6 0 17 -13t18.5 -28.5t8 -28t-13.5 -12.5h-77q-12 -67 -20.5 -122.5t-13.5 -84.5q-4 -17 -12 -23
t-21 -6q-16 0 -32.5 4t-30.5 9.5t-23.5 11t-12.5 8.5q6 44 14.5 95.5t19.5 105.5q-6 0 -12 -0.5t-11 -1.5q-12 -2 -25 8t-22 23t-11.5 25t6.5 14z" />
    <glyph glyph-name="dcroat" unicode="&#x111;" horiz-adv-x="460" 
d="M291 575q-11 -1 -22 8t-19 20t-10.5 21t4.5 12q42 8 101 14l8 51q9 49 29 49q14 0 32.5 -3t35 -9t27 -15t8.5 -21l-7 -43q12 1 22 1h18q5 0 14.5 -11t17 -23.5t8.5 -23t-11 -10.5l-81 -3q-7 -42 -15.5 -90.5t-17 -98t-16.5 -97.5t-14 -88t-9.5 -70t-3.5 -43q0 -45 29 -45
q14 0 25 12.5t19.5 31.5t14 42t8.5 44q16 3 28 -1q11 -3 19.5 -12t8.5 -29q0 -23 -12 -52.5t-33 -55t-51 -43t-66 -17.5q-42 0 -63 25t-21 55h-4q-6 -14 -17 -32.5t-26.5 -35t-35 -28t-43.5 -11.5q-41 0 -70.5 19t-48.5 48.5t-27.5 65t-8.5 69.5t5.5 74.5t17.5 81t30 78.5
t42.5 67.5t55.5 47t69 17.5q19 0 35 -5.5t27 -11.5q13 -8 23 -17q4 21 7.5 46t7.5 50l-22 -2t-22 -3zM133 98v-17.5t2 -20t5.5 -16.5t10.5 -7q12 0 25.5 16.5t27.5 42.5t27 57.5t23.5 61t17 53.5t6.5 34q-7 2 -13.5 5t-13.5 14q6 19 15.5 46t10.5 50q0 11 -2.5 22t-13.5 11
q-16 0 -31.5 -17t-29.5 -45t-26 -64.5t-20.5 -75.5t-14 -78t-6.5 -72z" />
    <glyph glyph-name="Emacron" unicode="&#x112;" horiz-adv-x="464" 
d="M92 540q-10 -2 -23 8.5t-23 24.5t-14 26.5t4 15.5q32 11 67 20.5t70 17.5q8 20 16.5 38t17.5 34q26 -3 56 -10t44 -18l-7 -19q37 7 67.5 11t50.5 6q14 1 28 3t27.5 2t25.5 -4t22 -13q2 -2 6.5 -10.5t9 -18t8 -18.5t3.5 -12t-10.5 -11.5t-23.5 -18t-26 -18t-17 -11.5
q-9 -4 -19.5 -6.5t-18.5 -3t-13 1.5t-5 6q0 5 1 10t3 10t4 11q-41 -3 -77 -8t-78 -12q-12 -45 -22.5 -89.5t-18.5 -89.5l50 5q35 2 60 3t34 -7q7 -6 14 -15t12.5 -17t9 -15t3.5 -10q0 -5 -2.5 -13t-15.5 -8q-43 -1 -90.5 -6.5t-91.5 -12.5q-8 -49 -13 -99t-10 -103
q102 24 177 36t122 10q6 0 18 -15t20.5 -33t10 -33t-12.5 -15q-68 -2 -151 -14t-192 -33l-2 -40q-1 -9 -13 -9t-29 4t-35.5 11t-30.5 13l-6 -2q-12 -2 -25.5 8.5t-23.5 24.5t-13 27t5 15l54 14q4 49 10.5 102t14.5 108h-3q-12 -2 -25 7t-22 21.5t-12 24.5t3 17q8 5 28 11.5
t46 13.5q9 47 19 92t21 87q-11 -2 -23 -5t-25 -5zM142 826q26 7 61.5 11t71.5 5.5t68.5 1t52.5 -1.5q6 0 17 -13t18.5 -28.5t8 -28t-13.5 -12.5q-66 0 -126 0.5t-106 -4.5q-12 -2 -25 8t-22 23t-11.5 25t6.5 14z" />
    <glyph glyph-name="emacron" unicode="&#x113;" horiz-adv-x="334" 
d="M-3 117q0 44 7 92.5t20 95.5t31.5 89.5t41.5 75t49.5 52t56.5 19.5q18 0 39.5 -7.5t40.5 -24t31.5 -42.5t12.5 -64q0 -48 -10 -90.5t-27.5 -75t-40.5 -51.5t-50 -19q-20 0 -34 7t-22 15q-10 10 -16 23q-6 -16 -10 -35q-4 -17 -7 -40.5t-3 -51.5q0 -36 15.5 -56.5
t47.5 -20.5t59 19t47 47t31.5 58.5t13.5 53.5q1 2 4 5q2 2 6 3.5t10 1.5q23 0 39.5 -14t16.5 -40q0 -32 -12.5 -70t-37.5 -72t-64 -56.5t-91 -22.5q-37 0 -72 13t-62.5 38t-44 61.5t-16.5 83.5zM139 267q0 -7 4 -12q2 -5 7 -8.5t13 -3.5q12 0 23.5 17.5t19.5 44t13.5 59
t5.5 62.5q0 29 -3.5 36.5t-7.5 7.5q-3 0 -6.5 -3.5t-8.5 -13.5q-17 -38 -34.5 -88.5t-25.5 -97.5zM94 657q26 7 61.5 11t71.5 5.5t68.5 1t52.5 -1.5q6 0 17 -13t18.5 -28.5t8 -28t-13.5 -12.5q-66 0 -126 0.5t-106 -4.5q-12 -2 -25 8t-22 23t-11.5 25t6.5 14z" />
    <glyph glyph-name="Ebreve" unicode="&#x114;" horiz-adv-x="464" 
d="M92 540q-10 -2 -23 8.5t-23 24.5t-14 26.5t4 15.5q32 11 67 20.5t70 17.5q8 20 16.5 38t17.5 34q26 -3 56 -10t44 -18l-7 -19q37 7 67.5 11t50.5 6q14 1 28 3t27.5 2t25.5 -4t22 -13q2 -2 6.5 -10.5t9 -18t8 -18.5t3.5 -12t-10.5 -11.5t-23.5 -18t-26 -18t-17 -11.5
q-9 -4 -19.5 -6.5t-18.5 -3t-13 1.5t-5 6q0 5 1 10t3 10t4 11q-41 -3 -77 -8t-78 -12q-12 -45 -22.5 -89.5t-18.5 -89.5l50 5q35 2 60 3t34 -7q7 -6 14 -15t12.5 -17t9 -15t3.5 -10q0 -5 -2.5 -13t-15.5 -8q-43 -1 -90.5 -6.5t-91.5 -12.5q-8 -49 -13 -99t-10 -103
q102 24 177 36t122 10q6 0 18 -15t20.5 -33t10 -33t-12.5 -15q-68 -2 -151 -14t-192 -33l-2 -40q-1 -9 -13 -9t-29 4t-35.5 11t-30.5 13l-6 -2q-12 -2 -25.5 8.5t-23.5 24.5t-13 27t5 15l54 14q4 49 10.5 102t14.5 108h-3q-12 -2 -25 7t-22 21.5t-12 24.5t3 17q8 5 28 11.5
t46 13.5q9 47 19 92t21 87q-11 -2 -23 -5t-25 -5zM352 880q3 7 16 6.5t28.5 -5.5t28.5 -12.5t15 -15.5q-14 -44 -51.5 -73.5t-85.5 -29.5q-47 0 -76 23t-39 52q-4 10 -3 21t6 19t14 12t23 2q5 -22 18.5 -42t37.5 -20q27 0 42 18.5t26 44.5z" />
    <glyph glyph-name="ebreve" unicode="&#x115;" horiz-adv-x="334" 
d="M-3 117q0 44 7 92.5t20 95.5t31.5 89.5t41.5 75t49.5 52t56.5 19.5q18 0 39.5 -7.5t40.5 -24t31.5 -42.5t12.5 -64q0 -48 -10 -90.5t-27.5 -75t-40.5 -51.5t-50 -19q-20 0 -34 7t-22 15q-10 10 -16 23q-6 -16 -10 -35q-4 -17 -7 -40.5t-3 -51.5q0 -36 15.5 -56.5
t47.5 -20.5t59 19t47 47t31.5 58.5t13.5 53.5q1 2 4 5q2 2 6 3.5t10 1.5q23 0 39.5 -14t16.5 -40q0 -32 -12.5 -70t-37.5 -72t-64 -56.5t-91 -22.5q-37 0 -72 13t-62.5 38t-44 61.5t-16.5 83.5zM139 267q0 -7 4 -12q2 -5 7 -8.5t13 -3.5q12 0 23.5 17.5t19.5 44t13.5 59
t5.5 62.5q0 29 -3.5 36.5t-7.5 7.5q-3 0 -6.5 -3.5t-8.5 -13.5q-17 -38 -34.5 -88.5t-25.5 -97.5zM304 714q3 7 16 6.5t28.5 -5.5t28.5 -12.5t15 -15.5q-14 -44 -51.5 -73.5t-85.5 -29.5q-47 0 -76 23t-39 52q-4 10 -3 21t6 19t14 12t23 2q5 -22 18.5 -42t37.5 -20
q27 0 42 18.5t26 44.5z" />
    <glyph glyph-name="Edotaccent" unicode="&#x116;" horiz-adv-x="464" 
d="M92 540q-10 -2 -23 8.5t-23 24.5t-14 26.5t4 15.5q32 11 67 20.5t70 17.5q8 20 16.5 38t17.5 34q26 -3 56 -10t44 -18l-7 -19q37 7 67.5 11t50.5 6q14 1 28 3t27.5 2t25.5 -4t22 -13q2 -2 6.5 -10.5t9 -18t8 -18.5t3.5 -12t-10.5 -11.5t-23.5 -18t-26 -18t-17 -11.5
q-9 -4 -19.5 -6.5t-18.5 -3t-13 1.5t-5 6q0 5 1 10t3 10t4 11q-41 -3 -77 -8t-78 -12q-12 -45 -22.5 -89.5t-18.5 -89.5l50 5q35 2 60 3t34 -7q7 -6 14 -15t12.5 -17t9 -15t3.5 -10q0 -5 -2.5 -13t-15.5 -8q-43 -1 -90.5 -6.5t-91.5 -12.5q-8 -49 -13 -99t-10 -103
q102 24 177 36t122 10q6 0 18 -15t20.5 -33t10 -33t-12.5 -15q-68 -2 -151 -14t-192 -33l-2 -40q-1 -9 -13 -9t-29 4t-35.5 11t-30.5 13l-6 -2q-12 -2 -25.5 8.5t-23.5 24.5t-13 27t5 15l54 14q4 49 10.5 102t14.5 108h-3q-12 -2 -25 7t-22 21.5t-12 24.5t3 17q8 5 28 11.5
t46 13.5q9 47 19 92t21 87q-11 -2 -23 -5t-25 -5zM272 781q-14 5 -25.5 14.5t-11.5 29.5q0 11 5.5 25.5t18 28t32.5 23t49 9.5q16 0 34.5 -14t18.5 -45q0 -10 -3 -27.5t-12 -34t-25 -28.5t-41 -12q-19 0 -29.5 5.5t-10.5 25.5z" />
    <glyph glyph-name="edotaccent" unicode="&#x117;" horiz-adv-x="334" 
d="M-3 117q0 44 7 92.5t20 95.5t31.5 89.5t41.5 75t49.5 52t56.5 19.5q18 0 39.5 -7.5t40.5 -24t31.5 -42.5t12.5 -64q0 -48 -10 -90.5t-27.5 -75t-40.5 -51.5t-50 -19q-20 0 -34 7t-22 15q-10 10 -16 23q-6 -16 -10 -35q-4 -17 -7 -40.5t-3 -51.5q0 -36 15.5 -56.5
t47.5 -20.5t59 19t47 47t31.5 58.5t13.5 53.5q1 2 4 5q2 2 6 3.5t10 1.5q23 0 39.5 -14t16.5 -40q0 -32 -12.5 -70t-37.5 -72t-64 -56.5t-91 -22.5q-37 0 -72 13t-62.5 38t-44 61.5t-16.5 83.5zM139 267q0 -7 4 -12q2 -5 7 -8.5t13 -3.5q12 0 23.5 17.5t19.5 44t13.5 59
t5.5 62.5q0 29 -3.5 36.5t-7.5 7.5q-3 0 -6.5 -3.5t-8.5 -13.5q-17 -38 -34.5 -88.5t-25.5 -97.5zM206 615q-14 5 -25.5 14.5t-11.5 29.5q0 11 5.5 25.5t18 28t32.5 23t49 9.5q16 0 34.5 -14t18.5 -45q0 -10 -3 -27.5t-12 -34t-25 -28.5t-41 -12q-19 0 -29.5 5.5t-10.5 25.5
z" />
    <glyph glyph-name="Eogonek" unicode="&#x118;" horiz-adv-x="464" 
d="M309 -15q0 21 8 40q-32 -5 -66 -11t-72 -14l-2 -40q-1 -9 -13 -9t-29 4t-35.5 11t-30.5 13l-6 -2q-12 -2 -25.5 8.5t-23.5 24.5t-13 27t5 15l54 14q4 49 10.5 102t14.5 108h-3q-12 -2 -25 7t-22 21.5t-12 24.5t3 17q8 5 28 11.5t46 13.5q9 47 19 92t21 87q-11 -2 -23 -5
t-25 -5q-10 -2 -23 8.5t-23 24.5t-14 26.5t4 15.5q32 11 67 20.5t70 17.5q8 20 16.5 38t17.5 34q26 -3 56 -10t44 -18l-7 -19q37 7 67.5 11t50.5 6q14 1 28 3t27.5 2t25.5 -4t22 -13q2 -2 6.5 -10.5t9 -18t8 -18.5t3.5 -12t-10.5 -11.5t-23.5 -18t-26 -18t-17 -11.5
q-9 -4 -19.5 -6.5t-18.5 -3t-13 1.5t-5 6q0 5 1 10t3 10t4 11q-41 -3 -77 -8t-78 -12q-12 -45 -22.5 -89.5t-18.5 -89.5l50 5q35 2 60 3t34 -7q7 -6 14 -15t12.5 -17t9 -15t3.5 -10q0 -5 -2.5 -13t-15.5 -8q-43 -1 -90.5 -6.5t-91.5 -12.5q-8 -49 -13 -99t-10 -103
q102 24 177 36t122 10q6 0 18 -15t20.5 -33t10 -33t-12.5 -15l-49 -3q-12 -4 -28 -10t-30 -15.5t-23.5 -23.5t-9.5 -34q0 -14 12.5 -22t29.5 -8q25 0 50.5 13.5t40.5 30.5q8 -2 17.5 -7.5t17.5 -13.5t13.5 -17.5t5.5 -19.5q0 -7 -6 -15.5t-20.5 -16.5t-37 -13.5t-55.5 -5.5
q-65 0 -103 33.5t-38 85.5z" />
    <glyph glyph-name="eogonek" unicode="&#x119;" horiz-adv-x="334" 
d="M108 -113q0 27 11 47q-51 20 -86.5 66t-35.5 117q0 44 7 92.5t20 95.5t31.5 89.5t41.5 75t49.5 52t56.5 19.5q18 0 39.5 -7.5t40.5 -24t31.5 -42.5t12.5 -64q0 -48 -10 -90.5t-27.5 -75t-40.5 -51.5t-50 -19q-20 0 -34 7t-22 15q-10 10 -16 23q-6 -16 -10 -35
q-4 -17 -7 -40.5t-3 -51.5q0 -36 15.5 -56.5t47.5 -20.5t59 19t47 47t31.5 58.5t13.5 53.5q1 2 4 5q2 2 6 3.5t10 1.5q23 0 39.5 -14t16.5 -40q0 -30 -11 -65.5t-33 -67.5t-55.5 -56t-79.5 -30q-16 -10 -26.5 -24.5t-10.5 -35.5q0 -14 12.5 -22t29.5 -8q25 0 50.5 13.5
t40.5 30.5q8 -2 17.5 -7.5t17.5 -13.5t13.5 -17.5t5.5 -19.5q0 -7 -6 -15.5t-20.5 -16.5t-37 -13.5t-55.5 -5.5q-65 0 -103 33.5t-38 85.5zM139 267q0 -7 4 -12q2 -5 7 -8.5t13 -3.5q12 0 23.5 17.5t19.5 44t13.5 59t5.5 62.5q0 29 -3.5 36.5t-7.5 7.5q-3 0 -6.5 -3.5
t-8.5 -13.5q-17 -38 -34.5 -88.5t-25.5 -97.5z" />
    <glyph glyph-name="Ecaron" unicode="&#x11a;" horiz-adv-x="464" 
d="M92 540q-10 -2 -23 8.5t-23 24.5t-14 26.5t4 15.5q32 11 67 20.5t70 17.5q8 20 16.5 38t17.5 34q26 -3 56 -10t44 -18l-7 -19q37 7 67.5 11t50.5 6q14 1 28 3t27.5 2t25.5 -4t22 -13q2 -2 6.5 -10.5t9 -18t8 -18.5t3.5 -12t-10.5 -11.5t-23.5 -18t-26 -18t-17 -11.5
q-9 -4 -19.5 -6.5t-18.5 -3t-13 1.5t-5 6q0 5 1 10t3 10t4 11q-41 -3 -77 -8t-78 -12q-12 -45 -22.5 -89.5t-18.5 -89.5l50 5q35 2 60 3t34 -7q7 -6 14 -15t12.5 -17t9 -15t3.5 -10q0 -5 -2.5 -13t-15.5 -8q-43 -1 -90.5 -6.5t-91.5 -12.5q-8 -49 -13 -99t-10 -103
q102 24 177 36t122 10q6 0 18 -15t20.5 -33t10 -33t-12.5 -15q-68 -2 -151 -14t-192 -33l-2 -40q-1 -9 -13 -9t-29 4t-35.5 11t-30.5 13l-6 -2q-12 -2 -25.5 8.5t-23.5 24.5t-13 27t5 15l54 14q4 49 10.5 102t14.5 108h-3q-12 -2 -25 7t-22 21.5t-12 24.5t3 17q8 5 28 11.5
t46 13.5q9 47 19 92t21 87q-11 -2 -23 -5t-25 -5zM439 881q25 -15 -4 -37q-11 -9 -26.5 -21t-33 -25.5t-34.5 -26t-31 -22.5l-49 7q-11 13 -26.5 35t-31 43.5t-27.5 39t-14 20.5q-5 8 -0.5 16t12.5 10q14 5 29 4.5t23 -9.5q5 -6 13.5 -16.5t17.5 -22.5t17 -23t13 -17
q17 14 35 28t38 31q8 6 19.5 10.5t22.5 -2.5z" />
    <glyph glyph-name="ecaron" unicode="&#x11b;" horiz-adv-x="334" 
d="M-3 117q0 44 7 92.5t20 95.5t31.5 89.5t41.5 75t49.5 52t56.5 19.5q18 0 39.5 -7.5t40.5 -24t31.5 -42.5t12.5 -64q0 -48 -10 -90.5t-27.5 -75t-40.5 -51.5t-50 -19q-20 0 -34 7t-22 15q-10 10 -16 23q-6 -16 -10 -35q-4 -17 -7 -40.5t-3 -51.5q0 -36 15.5 -56.5
t47.5 -20.5t59 19t47 47t31.5 58.5t13.5 53.5q1 2 4 5q2 2 6 3.5t10 1.5q23 0 39.5 -14t16.5 -40q0 -32 -12.5 -70t-37.5 -72t-64 -56.5t-91 -22.5q-37 0 -72 13t-62.5 38t-44 61.5t-16.5 83.5zM139 267q0 -7 4 -12q2 -5 7 -8.5t13 -3.5q12 0 23.5 17.5t19.5 44t13.5 59
t5.5 62.5q0 29 -3.5 36.5t-7.5 7.5q-3 0 -6.5 -3.5t-8.5 -13.5q-17 -38 -34.5 -88.5t-25.5 -97.5zM389 710q25 -15 -4 -37q-11 -9 -26.5 -21t-33 -25.5t-34.5 -26t-31 -22.5l-49 7q-11 13 -26.5 35t-31 43.5t-27.5 39t-14 20.5q-5 8 -0.5 16t12.5 10q14 5 29 4.5t23 -9.5
q5 -6 13.5 -16.5t17.5 -22.5t17 -23t13 -17q17 14 35 28t38 31q8 6 19.5 10.5t22.5 -2.5z" />
    <glyph glyph-name="Gcircumflex" unicode="&#x11c;" horiz-adv-x="512" 
d="M221 300q0 12 12 19.5t30 11t38.5 3t37.5 -4.5q18 6 38 10t40 7t37.5 4.5t29.5 1.5q22 0 30.5 -2.5t14.5 -8.5q7 -6 14 -14.5t13 -16t9.5 -14t3.5 -9.5q0 -5 -3 -13t-15 -8q-53 -2 -101 -9q15 -16 25.5 -39t10.5 -55q0 -28 -14.5 -65.5t-44 -71t-74 -56.5t-104.5 -23
q-59 0 -105 20.5t-78 58t-49 89.5t-17 116q0 43 9.5 96t28 107t45 105t60.5 90.5t75 63.5t88 24q34 0 64.5 -12t53.5 -33t37 -49t14 -60q0 -33 -8.5 -61t-22.5 -49t-32 -33t-37 -12q-15 0 -28.5 6t-24 14.5t-16.5 16.5t-6 12t10 14.5t22 28t22 42.5t10 58q0 21 -11.5 29.5
t-22.5 8.5q-17 0 -39 -19t-45 -51t-44.5 -75.5t-39 -93t-28 -102t-10.5 -102.5q0 -73 26 -115.5t74 -42.5q30 0 55.5 10t44 29t29 45.5t10.5 58.5q0 19 -5 33t-13 25q-20 -5 -36 -8t-29 -5q-10 -2 -20.5 7t-19 22t-14 26t-5.5 20zM202 789q-25 15 4 37q11 9 26.5 21t33 25.5
t34.5 26t31 22.5l49 -7q10 -13 25 -34t29 -42t25 -37t13 -19q5 -8 1 -16.5t-12 -10.5q-15 -4 -30 -3.5t-23 8.5q-5 6 -12.5 16t-15.5 21t-15.5 21t-12.5 16q-17 -14 -34.5 -28t-37.5 -31q-8 -7 -18 -11t-21 3z" />
    <glyph glyph-name="gcircumflex" unicode="&#x11d;" horiz-adv-x="432" 
d="M66 -84q6 -11 16.5 -22.5t22 -21.5t22 -17.5t17.5 -11.5q21 7 39.5 28t34 50t27.5 64.5t20 71.5q-8 -9 -18 -20.5t-22 -21t-25.5 -16.5t-26.5 -7q-76 0 -114.5 53t-40.5 145q-2 68 13.5 129t45 107t72 73t96.5 27q28 0 53 -6t44.5 -18t31.5 -29.5t12 -40.5v-9v-5
q3 0 12 -1t18.5 -4t17 -8t6.5 -14q-10 -60 -23 -156.5t-42 -211.5q-32 -129 -83.5 -192t-118.5 -63q-29 0 -55.5 5.5t-48.5 14t-37.5 18.5t-22.5 20q-14 14 -15 31t7.5 31t25.5 22.5t39 5.5zM144 154q-1 -44 12 -64.5t31 -20.5t36 23.5t33 59t25 76.5t13 76q-4 -1 -8 1
t-7.5 4.5t-8.5 8.5q4 9 6.5 21.5t4.5 26t3.5 26.5t1.5 21q0 15 -7 26.5t-20 11.5q-17 0 -31.5 -15t-27.5 -40t-23 -56.5t-17.5 -64.5t-11.5 -65t-4 -56zM155 616q-25 15 4 37q11 9 26.5 21t33 25.5t34.5 26t31 22.5l49 -7q10 -13 25 -34t29 -42t25 -37t13 -19q5 -8 1 -16.5
t-12 -10.5q-15 -4 -30 -3.5t-23 8.5q-5 6 -12.5 16t-15.5 21t-15.5 21t-12.5 16q-17 -14 -34.5 -28t-37.5 -31q-8 -7 -18 -11t-21 3z" />
    <glyph glyph-name="Gbreve" unicode="&#x11e;" horiz-adv-x="512" 
d="M221 300q0 12 12 19.5t30 11t38.5 3t37.5 -4.5q18 6 38 10t40 7t37.5 4.5t29.5 1.5q22 0 30.5 -2.5t14.5 -8.5q7 -6 14 -14.5t13 -16t9.5 -14t3.5 -9.5q0 -5 -3 -13t-15 -8q-53 -2 -101 -9q15 -16 25.5 -39t10.5 -55q0 -28 -14.5 -65.5t-44 -71t-74 -56.5t-104.5 -23
q-59 0 -105 20.5t-78 58t-49 89.5t-17 116q0 43 9.5 96t28 107t45 105t60.5 90.5t75 63.5t88 24q34 0 64.5 -12t53.5 -33t37 -49t14 -60q0 -33 -8.5 -61t-22.5 -49t-32 -33t-37 -12q-15 0 -28.5 6t-24 14.5t-16.5 16.5t-6 12t10 14.5t22 28t22 42.5t10 58q0 21 -11.5 29.5
t-22.5 8.5q-17 0 -39 -19t-45 -51t-44.5 -75.5t-39 -93t-28 -102t-10.5 -102.5q0 -73 26 -115.5t74 -42.5q30 0 55.5 10t44 29t29 45.5t10.5 58.5q0 19 -5 33t-13 25q-20 -5 -36 -8t-29 -5q-10 -2 -20.5 7t-19 22t-14 26t-5.5 20zM387 882q3 7 16 6.5t28.5 -5.5t28.5 -12.5
t15 -15.5q-14 -44 -51.5 -73.5t-85.5 -29.5q-47 0 -76 23t-39 52q-4 10 -3 21t6 19t14 12t23 2q5 -22 18.5 -42t37.5 -20q27 0 42 18.5t26 44.5z" />
    <glyph glyph-name="gbreve" unicode="&#x11f;" horiz-adv-x="432" 
d="M66 -84q6 -11 16.5 -22.5t22 -21.5t22 -17.5t17.5 -11.5q21 7 39.5 28t34 50t27.5 64.5t20 71.5q-8 -9 -18 -20.5t-22 -21t-25.5 -16.5t-26.5 -7q-76 0 -114.5 53t-40.5 145q-2 68 13.5 129t45 107t72 73t96.5 27q28 0 53 -6t44.5 -18t31.5 -29.5t12 -40.5v-9v-5
q3 0 12 -1t18.5 -4t17 -8t6.5 -14q-10 -60 -23 -156.5t-42 -211.5q-32 -129 -83.5 -192t-118.5 -63q-29 0 -55.5 5.5t-48.5 14t-37.5 18.5t-22.5 20q-14 14 -15 31t7.5 31t25.5 22.5t39 5.5zM144 154q-1 -44 12 -64.5t31 -20.5t36 23.5t33 59t25 76.5t13 76q-4 -1 -8 1
t-7.5 4.5t-8.5 8.5q4 9 6.5 21.5t4.5 26t3.5 26.5t1.5 21q0 15 -7 26.5t-20 11.5q-17 0 -31.5 -15t-27.5 -40t-23 -56.5t-17.5 -64.5t-11.5 -65t-4 -56zM351 710q3 7 16 6.5t28.5 -5.5t28.5 -12.5t15 -15.5q-14 -44 -51.5 -73.5t-85.5 -29.5q-47 0 -76 23t-39 52
q-4 10 -3 21t6 19t14 12t23 2q5 -22 18.5 -42t37.5 -20q27 0 42 18.5t26 44.5z" />
    <glyph glyph-name="Gdotaccent" unicode="&#x120;" horiz-adv-x="512" 
d="M221 300q0 12 12 19.5t30 11t38.5 3t37.5 -4.5q18 6 38 10t40 7t37.5 4.5t29.5 1.5q22 0 30.5 -2.5t14.5 -8.5q7 -6 14 -14.5t13 -16t9.5 -14t3.5 -9.5q0 -5 -3 -13t-15 -8q-53 -2 -101 -9q15 -16 25.5 -39t10.5 -55q0 -28 -14.5 -65.5t-44 -71t-74 -56.5t-104.5 -23
q-59 0 -105 20.5t-78 58t-49 89.5t-17 116q0 43 9.5 96t28 107t45 105t60.5 90.5t75 63.5t88 24q34 0 64.5 -12t53.5 -33t37 -49t14 -60q0 -33 -8.5 -61t-22.5 -49t-32 -33t-37 -12q-15 0 -28.5 6t-24 14.5t-16.5 16.5t-6 12t10 14.5t22 28t22 42.5t10 58q0 21 -11.5 29.5
t-22.5 8.5q-17 0 -39 -19t-45 -51t-44.5 -75.5t-39 -93t-28 -102t-10.5 -102.5q0 -73 26 -115.5t74 -42.5q30 0 55.5 10t44 29t29 45.5t10.5 58.5q0 19 -5 33t-13 25q-20 -5 -36 -8t-29 -5q-10 -2 -20.5 7t-19 22t-14 26t-5.5 20zM316 778q-14 5 -25.5 14.5t-11.5 29.5
q0 11 5.5 25.5t18 28t32.5 23t49 9.5q16 0 34.5 -14t18.5 -45q0 -10 -3 -27.5t-12 -34t-25 -28.5t-41 -12q-19 0 -29.5 5.5t-10.5 25.5z" />
    <glyph glyph-name="gdotaccent" unicode="&#x121;" horiz-adv-x="432" 
d="M66 -84q6 -11 16.5 -22.5t22 -21.5t22 -17.5t17.5 -11.5q21 7 39.5 28t34 50t27.5 64.5t20 71.5q-8 -9 -18 -20.5t-22 -21t-25.5 -16.5t-26.5 -7q-76 0 -114.5 53t-40.5 145q-2 68 13.5 129t45 107t72 73t96.5 27q28 0 53 -6t44.5 -18t31.5 -29.5t12 -40.5v-9v-5
q3 0 12 -1t18.5 -4t17 -8t6.5 -14q-10 -60 -23 -156.5t-42 -211.5q-32 -129 -83.5 -192t-118.5 -63q-29 0 -55.5 5.5t-48.5 14t-37.5 18.5t-22.5 20q-14 14 -15 31t7.5 31t25.5 22.5t39 5.5zM144 154q-1 -44 12 -64.5t31 -20.5t36 23.5t33 59t25 76.5t13 76q-4 -1 -8 1
t-7.5 4.5t-8.5 8.5q4 9 6.5 21.5t4.5 26t3.5 26.5t1.5 21q0 15 -7 26.5t-20 11.5q-17 0 -31.5 -15t-27.5 -40t-23 -56.5t-17.5 -64.5t-11.5 -65t-4 -56zM267 613q-14 5 -25.5 14.5t-11.5 29.5q0 11 5.5 25.5t18 28t32.5 23t49 9.5q16 0 34.5 -14t18.5 -45q0 -10 -3 -27.5
t-12 -34t-25 -28.5t-41 -12q-19 0 -29.5 5.5t-10.5 25.5z" />
    <glyph glyph-name="uni0122" unicode="&#x122;" horiz-adv-x="512" 
d="M221 300q0 12 12 19.5t30 11t38.5 3t37.5 -4.5q18 6 38 10t40 7t37.5 4.5t29.5 1.5q22 0 30.5 -2.5t14.5 -8.5q7 -6 14 -14.5t13 -16t9.5 -14t3.5 -9.5q0 -5 -3 -13t-15 -8q-53 -2 -101 -9q15 -16 25.5 -39t10.5 -55q0 -28 -14.5 -65.5t-44 -71t-74 -56.5t-104.5 -23
q-59 0 -105 20.5t-78 58t-49 89.5t-17 116q0 43 9.5 96t28 107t45 105t60.5 90.5t75 63.5t88 24q34 0 64.5 -12t53.5 -33t37 -49t14 -60q0 -33 -8.5 -61t-22.5 -49t-32 -33t-37 -12q-15 0 -28.5 6t-24 14.5t-16.5 16.5t-6 12t10 14.5t22 28t22 42.5t10 58q0 21 -11.5 29.5
t-22.5 8.5q-17 0 -39 -19t-45 -51t-44.5 -75.5t-39 -93t-28 -102t-10.5 -102.5q0 -73 26 -115.5t74 -42.5q30 0 55.5 10t44 29t29 45.5t10.5 58.5q0 19 -5 33t-13 25q-20 -5 -36 -8t-29 -5q-10 -2 -20.5 7t-19 22t-14 26t-5.5 20zM116 -150q0 28 22 45.5t60 17.5
q40 0 67 -21t27 -61q0 -20 -8.5 -38.5t-23 -34.5t-34 -28t-40.5 -17q-25 -6 -46.5 -4t-36 9.5t-19.5 20.5t4 30q13 -1 28.5 0t29 4.5t24.5 9.5t15 16q-9 -1 -20.5 0.5t-22.5 7t-18.5 16t-7.5 27.5z" />
    <glyph glyph-name="uni0123" unicode="&#x123;" horiz-adv-x="432" 
d="M66 -84q6 -11 16.5 -22.5t22 -21.5t22 -17.5t17.5 -11.5q21 7 39.5 28t34 50t27.5 64.5t20 71.5q-8 -9 -18 -20.5t-22 -21t-25.5 -16.5t-26.5 -7q-76 0 -114.5 53t-40.5 145q-2 68 13.5 129t45 107t72 73t96.5 27q28 0 53 -6t44.5 -18t31.5 -29.5t12 -40.5v-9v-5
q3 0 12 -1t18.5 -4t17 -8t6.5 -14q-10 -60 -23 -156.5t-42 -211.5q-32 -129 -83.5 -192t-118.5 -63q-29 0 -55.5 5.5t-48.5 14t-37.5 18.5t-22.5 20q-14 14 -15 31t7.5 31t25.5 22.5t39 5.5zM144 154q-1 -44 12 -64.5t31 -20.5t36 23.5t33 59t25 76.5t13 76q-4 -1 -8 1
t-7.5 4.5t-8.5 8.5q4 9 6.5 21.5t4.5 26t3.5 26.5t1.5 21q0 15 -7 26.5t-20 11.5q-17 0 -31.5 -15t-27.5 -40t-23 -56.5t-17.5 -64.5t-11.5 -65t-4 -56zM388 638q0 -27 -22 -44.5t-60 -17.5q-40 0 -67 21t-27 61q0 19 8.5 38t23.5 35t34 27.5t40 16.5q25 6 47 4.5t36.5 -9.5
t19.5 -21t-4 -29q-14 0 -29 -1t-29 -4t-24.5 -9t-14.5 -16q8 0 20 -1.5t22.5 -7t18 -16t7.5 -27.5z" />
    <glyph glyph-name="Hcircumflex" unicode="&#x124;" horiz-adv-x="556" 
d="M259 592q-14 -50 -26.5 -101t-23.5 -104q34 5 65.5 9.5t56.5 6.5t41 2.5t20 -2.5t8.5 -8t9.5 -10q17 95 35 179.5t36 142.5q6 14 14 24t27 11q9 1 23 -1.5t27.5 -6.5t25.5 -9.5t18 -9.5q-15 -59 -30 -127t-29 -138.5t-26.5 -141t-21.5 -133.5t-14.5 -115.5t-5.5 -87.5
q0 -14 -18.5 -13.5t-41 7t-42.5 15.5t-23 13q-8 11 -13 26.5t-7.5 31.5t-1.5 30t6 22q2 3 5 2.5t6.5 -2t6 -2t3.5 3.5q6 48 13 99t15 103q-44 -3 -99 -10.5t-109 -16.5q-17 -99 -27.5 -190.5t-12.5 -166.5q0 -13 -18.5 -13t-41 6.5t-43 16.5t-24.5 16q2 64 12 144t24 165
l-46 -9q-12 -2 -25 9.5t-22 27t-12.5 30.5t2.5 20q5 4 39.5 11.5t83.5 16.5q22 106 46 199t47 151q9 2 25.5 0t34.5 -6.5t33.5 -10t22.5 -11.5q1 -17 -1.5 -45t-10.5 -45zM258 805q-25 15 4 37q11 9 26.5 21t33 25.5t34.5 26t31 22.5l49 -7q10 -13 25 -34t29 -42t25 -37
t13 -19q5 -8 1 -16.5t-12 -10.5q-15 -4 -30 -3.5t-23 8.5q-5 6 -12.5 16t-15.5 21t-15.5 21t-12.5 16q-17 -14 -34.5 -28t-37.5 -31q-8 -7 -18 -11t-21 3z" />
    <glyph glyph-name="hcircumflex" unicode="&#x125;" horiz-adv-x="468" 
d="M269 324q-7 -9 -23 -46t-33.5 -87.5t-32.5 -106.5t-18 -104l-10 -6q-12 -5 -29 -5q-20 0 -38.5 6.5t-33 18t-23 26t-8.5 31.5q0 18 2.5 55.5t7 87.5t10.5 108.5t13.5 117t16 114.5t17.5 101t18.5 75.5t18.5 38.5q7 6 25.5 5t38 -7t34.5 -15t15 -19q0 -41 -10.5 -73.5
t-18.5 -64.5q-4 -14 -9.5 -42.5t-11.5 -64t-12.5 -74.5t-11.5 -73.5t-8 -61t-3 -36.5l9 -2q5 15 15.5 43.5t24 62t29 68.5t31 63.5t30 47t25.5 18.5q23 0 44.5 -5.5t38.5 -14t27.5 -18.5t10.5 -18q0 -19 -10 -62t-21.5 -95t-21.5 -106.5t-10 -96.5q0 -29 9.5 -48t32.5 -19
q13 0 24.5 10t21.5 26.5t17.5 37t11.5 41.5q16 1 28 -3q11 -4 20 -12.5t9 -26.5q0 -27 -14 -52.5t-37.5 -45.5t-54.5 -32t-66 -12t-59 13.5t-39 36t-21.5 50.5t-6.5 57q0 23 3.5 52.5t8.5 57.5t10 51t8 32zM42 784q-25 15 4 37q11 9 26.5 21t33 25.5t34.5 26t31 22.5l49 -7
q10 -13 25 -34t29 -42t25 -37t13 -19q5 -8 1 -16.5t-12 -10.5q-15 -4 -30 -3.5t-23 8.5q-5 6 -12.5 16t-15.5 21t-15.5 21t-12.5 16q-17 -14 -34.5 -28t-37.5 -31q-8 -7 -18 -11t-21 3z" />
    <glyph glyph-name="Hbar" unicode="&#x126;" horiz-adv-x="556" 
d="M259 592q-2 -7 -3.5 -13.5t-3.5 -13.5q50 4 99.5 7.5t96.5 5.5q8 38 16.5 70.5t16.5 58.5q6 14 14 24t27 11q9 1 23 -1.5t27.5 -6.5t25.5 -9.5t18 -9.5q-8 -31 -15.5 -63.5t-15.5 -67.5h33q10 0 29.5 -12.5t33 -27t14.5 -26t-24 -11.5q-23 0 -49 -0.5t-54 -2.5
q-16 -77 -30.5 -155.5t-25 -149.5t-17 -130t-6.5 -97q0 -14 -18.5 -13.5t-41 7t-42.5 15.5t-23 13q-8 11 -13 26.5t-7.5 31.5t-1.5 30t6 22q2 3 5 2.5t6.5 -2t6 -2t3.5 3.5q6 48 13 99t15 103q-44 -3 -99 -10.5t-109 -16.5q-17 -99 -27.5 -190.5t-12.5 -166.5
q0 -13 -18.5 -13t-41 6.5t-43 16.5t-24.5 16q2 64 12 144t24 165l-46 -9q-12 -2 -25 9.5t-22 27t-12.5 30.5t2.5 20q5 4 39.5 11.5t83.5 16.5l24 112q-21 2 -41 11.5t-33.5 21t-16.5 21.5t11 12l99 11q26 100 50 161q9 2 25.5 0t34.5 -6.5t33.5 -10t22.5 -11.5
q1 -17 -1.5 -45t-10.5 -45zM431 498q-54 -3 -104.5 -6.5t-95.5 -6.5q-6 -25 -11.5 -49t-10.5 -49q34 5 65.5 9.5t56.5 6.5t41 2.5t20 -2.5t8.5 -8t9.5 -10z" />
    <glyph glyph-name="hbar" unicode="&#x127;" horiz-adv-x="468" 
d="M269 324q-7 -9 -23 -46t-33.5 -87.5t-32.5 -106.5t-18 -104l-10 -6q-12 -5 -29 -5q-20 0 -38.5 6.5t-33 18t-23 26t-8.5 31.5q0 25 4.5 86t13 139t19 161.5t22.5 153.5q-3 -1 -6.5 -1h-6.5q-13 -1 -25.5 7.5t-21 19t-9.5 20.5t8 12q16 3 34.5 5.5t39.5 4.5q8 35 16 59
t16 31q7 6 25.5 5t38 -7t34.5 -15t15 -19q0 -14 -1.5 -26t-3.5 -23q15 0 28 -0.5t24 -0.5q7 0 17.5 -11t17.5 -24t6.5 -24t-15.5 -11q-26 0 -50 0.5t-47 0.5q-2 -5 -3 -9.5t-2 -9.5q-4 -14 -9.5 -42.5t-11.5 -64t-12.5 -74.5t-11.5 -73.5t-8 -61t-3 -36.5l9 -2
q5 15 15.5 43.5t24 62t29 68.5t31 63.5t30 47t25.5 18.5q23 0 44.5 -5.5t38.5 -14t27.5 -18.5t10.5 -18q0 -19 -10 -62t-21.5 -95t-21.5 -106.5t-10 -96.5q0 -29 9.5 -48t32.5 -19q13 0 24.5 10t21.5 26.5t17.5 37t11.5 41.5q16 1 28 -3q11 -4 20 -12.5t9 -26.5
q0 -27 -14 -52.5t-37.5 -45.5t-54.5 -32t-66 -12t-59 13.5t-39 36t-21.5 50.5t-6.5 57q0 23 3.5 52.5t8.5 57.5t10 51t8 32z" />
    <glyph glyph-name="Itilde" unicode="&#x128;" horiz-adv-x="453" 
d="M133 119q9 60 21 125.5t25 129t26.5 120t25.5 98.5q-30 -6 -63.5 -12.5t-74.5 -14.5q-12 -2 -25 10t-22 28t-12 30.5t5 17.5q52 17 106 28.5t103.5 19t91 11t68.5 5.5q35 2 61.5 -1.5t44.5 -20.5q2 -2 6.5 -8t9 -13.5t8 -14.5t3.5 -10t-7 -8.5t-16 -11.5t-18.5 -11.5
t-15.5 -7.5q-9 -4 -15.5 -2.5t-11.5 5t-10.5 7.5t-12.5 4q-38 -3 -76 -9q-13 -48 -27.5 -114t-28 -135.5t-24.5 -134.5t-18 -110q56 10 98.5 14.5t75.5 2.5q6 0 18.5 -15.5t21.5 -34t10.5 -34t-12.5 -15.5q-42 -1 -87.5 -4.5t-99.5 -11t-117.5 -18.5t-141.5 -26
q-12 -2 -25 8t-21.5 24.5t-11 27.5t5.5 17q10 5 20 12t19 12.5t16.5 8t14.5 -0.5q8 -4 11.5 -8t6.5 -3l101 24q-12 5 -20.5 10t-9.5 10zM213 759q-6 0 -11.5 5.5t-9.5 13.5t-4.5 16.5t2.5 14.5q4 7 12.5 17t20 19t25 15.5t27.5 6.5q21 0 36 -6t27.5 -13.5t23 -13.5t21.5 -6
q10 0 19 4.5t16.5 10t14 10t12.5 4.5q5 0 10 -5t8 -12.5t3.5 -17t-3.5 -17.5q-3 -7 -12 -17t-21.5 -19t-28.5 -15t-33 -6q-18 0 -33 6t-28.5 13t-25 13t-22.5 6q-7 0 -13.5 -4t-12 -9.5t-11 -9.5t-9.5 -4z" />
    <glyph glyph-name="itilde" unicode="&#x129;" horiz-adv-x="245" 
d="M14 91q0 36 9 91t22 112.5t27 108t23 77.5q3 8 9.5 10.5t13.5 2.5q5 0 24 -3t39 -9.5t34 -17.5t10 -26q-10 -35 -23 -83.5t-24.5 -98t-20 -94t-8.5 -71.5q-1 -26 7 -38.5t19 -12.5q21 0 36 16.5t25 39t15 46t6 37.5q17 0 31 -4q12 -4 22 -14t10 -30q0 -25 -12.5 -55
t-36.5 -55.5t-58.5 -43t-77.5 -17.5q-57 0 -89 32.5t-32 99.5zM84 593q-6 0 -11.5 5.5t-9.5 13.5t-4.5 16.5t2.5 14.5q4 7 12.5 17t20 19t25 15.5t27.5 6.5q21 0 36 -6t27.5 -13.5t23 -13.5t21.5 -6q10 0 19 4.5t16.5 10t14 10t12.5 4.5q5 0 10 -5t8 -12.5t3.5 -17
t-3.5 -17.5q-3 -7 -12 -17t-21.5 -19t-28.5 -15t-33 -6q-18 0 -33 6t-28.5 13t-25 13t-22.5 6q-7 0 -13.5 -4t-12 -9.5t-11 -9.5t-9.5 -4z" />
    <glyph glyph-name="imacron" unicode="&#x12b;" horiz-adv-x="245" 
d="M14 91q0 36 9 91t22 112.5t27 108t23 77.5q3 8 9.5 10.5t13.5 2.5q5 0 24 -3t39 -9.5t34 -17.5t10 -26q-10 -35 -23 -83.5t-24.5 -98t-20 -94t-8.5 -71.5q-1 -26 7 -38.5t19 -12.5q21 0 36 16.5t25 39t15 46t6 37.5q17 0 31 -4q12 -4 22 -14t10 -30q0 -25 -12.5 -55
t-36.5 -55.5t-58.5 -43t-77.5 -17.5q-57 0 -89 32.5t-32 99.5zM44 660q26 7 61.5 11t71.5 5.5t68.5 1t52.5 -1.5q6 0 17 -13t18.5 -28.5t8 -28t-13.5 -12.5q-66 0 -126 0.5t-106 -4.5q-12 -2 -25 8t-22 23t-11.5 25t6.5 14z" />
    <glyph glyph-name="Ibreve" unicode="&#x12c;" horiz-adv-x="453" 
d="M133 119q9 60 21 125.5t25 129t26.5 120t25.5 98.5q-30 -6 -63.5 -12.5t-74.5 -14.5q-12 -2 -25 10t-22 28t-12 30.5t5 17.5q52 17 106 28.5t103.5 19t91 11t68.5 5.5q35 2 61.5 -1.5t44.5 -20.5q2 -2 6.5 -8t9 -13.5t8 -14.5t3.5 -10t-7 -8.5t-16 -11.5t-18.5 -11.5
t-15.5 -7.5q-9 -4 -15.5 -2.5t-11.5 5t-10.5 7.5t-12.5 4q-38 -3 -76 -9q-13 -48 -27.5 -114t-28 -135.5t-24.5 -134.5t-18 -110q56 10 98.5 14.5t75.5 2.5q6 0 18.5 -15.5t21.5 -34t10.5 -34t-12.5 -15.5q-42 -1 -87.5 -4.5t-99.5 -11t-117.5 -18.5t-141.5 -26
q-12 -2 -25 8t-21.5 24.5t-11 27.5t5.5 17q10 5 20 12t19 12.5t16.5 8t14.5 -0.5q8 -4 11.5 -8t6.5 -3l101 24q-12 5 -20.5 10t-9.5 10zM372 880q3 7 16 6.5t28.5 -5.5t28.5 -12.5t15 -15.5q-14 -44 -51.5 -73.5t-85.5 -29.5q-47 0 -76 23t-39 52q-4 10 -3 21t6 19t14 12
t23 2q5 -22 18.5 -42t37.5 -20q27 0 42 18.5t26 44.5z" />
    <glyph glyph-name="Iogonek" unicode="&#x12e;" horiz-adv-x="453" 
d="M138 -33q0 20 5 33q-27 -5 -56 -10.5t-61 -12.5q-12 -2 -25 8t-21.5 24.5t-11 27.5t5.5 17q10 5 20 12t19 12.5t16.5 8t14.5 -0.5q8 -4 11.5 -8t6.5 -3l101 24q-12 5 -20.5 10t-9.5 10q9 60 21 125.5t25 129t26.5 120t25.5 98.5q-30 -6 -63.5 -12.5t-74.5 -14.5
q-12 -2 -25 10t-22 28t-12 30.5t5 17.5q52 17 106 28.5t103.5 19t91 11t68.5 5.5q35 2 61.5 -1.5t44.5 -20.5q2 -2 6.5 -8t9 -13.5t8 -14.5t3.5 -10t-7 -8.5t-16 -11.5t-18.5 -11.5t-15.5 -7.5q-9 -4 -15.5 -2.5t-11.5 5t-10.5 7.5t-12.5 4q-38 -3 -76 -9
q-13 -48 -27.5 -114t-28 -135.5t-24.5 -134.5t-18 -110q56 10 98.5 14.5t75.5 2.5q6 0 18.5 -15.5t21.5 -34t10.5 -34t-12.5 -15.5q-42 -1 -86 -4.5t-96 -10.5q-12 -5 -26 -11t-26 -15.5t-19.5 -22t-7.5 -30.5q0 -14 12.5 -22t29.5 -8q25 0 50.5 13.5t40.5 30.5
q8 -2 17.5 -7.5t17.5 -13.5t13.5 -17.5t5.5 -19.5q0 -7 -6 -15.5t-20.5 -16.5t-37 -13.5t-55.5 -5.5q-65 0 -103 33.5t-38 85.5z" />
    <glyph glyph-name="iogonek" unicode="&#x12f;" horiz-adv-x="245" 
d="M-24 -93q0 35 18 58.5t43 37.5q-23 32 -23 88q0 36 9 91t22 112.5t27 108t23 77.5q3 8 9.5 10.5t13.5 2.5q5 0 24 -3t39 -9.5t34 -17.5t10 -26q-10 -35 -23 -83.5t-24.5 -98t-20 -94t-8.5 -71.5q-1 -26 7 -38.5t19 -12.5q21 0 36 16.5t25 39t15 46t6 37.5q17 0 31 -4
q12 -4 22 -14t10 -30q0 -25 -12.5 -55t-36.5 -55.5t-58.5 -43t-77.5 -17.5q-10 0 -15 1q-12 -5 -24.5 -11.5t-23 -15.5t-17 -21.5t-6.5 -28.5q0 -14 12.5 -22t29.5 -8q25 0 50.5 13.5t40.5 30.5q8 -2 17.5 -7.5t17.5 -13.5t13.5 -17.5t5.5 -19.5q0 -7 -6 -15.5t-20.5 -16.5
t-37 -13.5t-55.5 -5.5q-65 0 -103 33.5t-38 85.5zM175 555q-8 0 -18.5 4t-19.5 12.5t-15 21.5t-6 32q0 11 4 31.5t14 41t27 35.5t44 15q26 0 40 -8t6 -34q16 -7 29 -17.5t13 -33.5q0 -13 -6 -30.5t-19.5 -33t-36.5 -26t-56 -10.5z" />
    <glyph glyph-name="Idotaccent" unicode="&#x130;" horiz-adv-x="453" 
d="M133 119q9 60 21 125.5t25 129t26.5 120t25.5 98.5q-30 -6 -63.5 -12.5t-74.5 -14.5q-12 -2 -25 10t-22 28t-12 30.5t5 17.5q52 17 106 28.5t103.5 19t91 11t68.5 5.5q35 2 61.5 -1.5t44.5 -20.5q2 -2 6.5 -8t9 -13.5t8 -14.5t3.5 -10t-7 -8.5t-16 -11.5t-18.5 -11.5
t-15.5 -7.5q-9 -4 -15.5 -2.5t-11.5 5t-10.5 7.5t-12.5 4q-38 -3 -76 -9q-13 -48 -27.5 -114t-28 -135.5t-24.5 -134.5t-18 -110q56 10 98.5 14.5t75.5 2.5q6 0 18.5 -15.5t21.5 -34t10.5 -34t-12.5 -15.5q-42 -1 -87.5 -4.5t-99.5 -11t-117.5 -18.5t-141.5 -26
q-12 -2 -25 8t-21.5 24.5t-11 27.5t5.5 17q10 5 20 12t19 12.5t16.5 8t14.5 -0.5q8 -4 11.5 -8t6.5 -3l101 24q-12 5 -20.5 10t-9.5 10zM282 778q-14 5 -25.5 14.5t-11.5 29.5q0 11 5.5 25.5t18 28t32.5 23t49 9.5q16 0 34.5 -14t18.5 -45q0 -10 -3 -27.5t-12 -34t-25 -28.5
t-41 -12q-19 0 -29.5 5.5t-10.5 25.5z" />
    <glyph glyph-name="dotlessi" unicode="&#x131;" horiz-adv-x="245" 
d="M14 91q0 36 9 91t22 112.5t27 108t23 77.5q3 8 9.5 10.5t13.5 2.5q5 0 24 -3t39 -9.5t34 -17.5t10 -26q-10 -35 -23 -83.5t-24.5 -98t-20 -94t-8.5 -71.5q-1 -26 7 -38.5t19 -12.5q21 0 36 16.5t25 39t15 46t6 37.5q17 0 31 -4q12 -4 22 -14t10 -30q0 -25 -12.5 -55
t-36.5 -55.5t-58.5 -43t-77.5 -17.5q-57 0 -89 32.5t-32 99.5z" />
    <glyph glyph-name="IJ" unicode="&#x132;" horiz-adv-x="963" 
d="M133 119q9 60 21 125.5t25 129t26.5 120t25.5 98.5q-30 -6 -63.5 -12.5t-74.5 -14.5q-12 -2 -25 10t-22 28t-12 30.5t5 17.5q52 17 106 28.5t103.5 19t91 11t68.5 5.5q35 2 61.5 -1.5t44.5 -20.5q2 -2 6.5 -8t9 -13.5t8 -14.5t3.5 -10t-7 -8.5t-16 -11.5t-18.5 -11.5
t-15.5 -7.5q-9 -4 -15.5 -2.5t-11.5 5t-10.5 7.5t-12.5 4q-38 -3 -76 -9q-13 -48 -27.5 -114t-28 -135.5t-24.5 -134.5t-18 -110q56 10 98.5 14.5t75.5 2.5q1 0 6 -3q0 36 6.5 63t19.5 53q8 9 23.5 12t33.5 -1.5t35 -16t28 -31.5q6 -10 12.5 -25.5t3.5 -20.5q-2 -3 -6 -2.5
t-9 1.5t-9.5 1t-6.5 -4q-5 -10 -8 -31t-1 -40q2 -36 20 -62t47 -26q36 0 68.5 28.5t56 96.5t35.5 180t8 280q-49 -8 -93 -16.5t-76 -16.5q-11 -3 -23 7.5t-22 25.5t-17 30.5t-7 23.5q0 6 5.5 9t11.5 5q31 8 76.5 17t96.5 16.5t102 13.5t93 9t70.5 3t33.5 -5q1 -2 7.5 -9.5
t14 -16.5t15 -18.5t11.5 -13.5l-13 -21q-18 -3 -45.5 -5t-53.5 -7l-87 -14q24 -11 34 -21q4 -190 -9.5 -317t-44 -204t-76.5 -109.5t-107 -32.5q-75 0 -135 32.5t-92 83.5q-42 -1 -87 -5t-98 -11t-116 -18t-140 -26q-12 -2 -25 8t-21.5 24.5t-11 27.5t5.5 17q10 5 20 12
t19 12.5t16.5 8t14.5 -0.5q8 -4 11.5 -8t6.5 -3l101 24q-12 5 -20.5 10t-9.5 10z" />
    <glyph glyph-name="ij" unicode="&#x133;" horiz-adv-x="441" 
d="M310 419q3 31 10 52t31 21q33 0 61.5 -10t44.5 -27q-12 -74 -21 -153.5t-18.5 -156t-22.5 -145.5t-33.5 -121.5t-51.5 -83t-76 -30.5q-32 0 -68 5t-57 13q-21 7 -29 22t-6.5 30.5t12 28t27.5 15.5q22 -12 51 -23t54 -17q13 14 25 61t23 115q-24 -24 -56.5 -40t-74.5 -16
q-57 0 -89 32.5t-32 99.5q0 36 9 91t22 112.5t27 108t23 77.5q3 8 9.5 10.5t13.5 2.5q5 0 24 -3t39 -9.5t34 -17.5t10 -26q-10 -35 -23 -83.5t-24.5 -98t-20 -94t-8.5 -71.5q-1 -26 7 -38.5t19 -12.5q21 0 36 16.5t25 39t15 46t6 37.5h9q9 0 21 -3q8 62 13 124.5t10 119.5z
M175 555q-8 0 -18.5 4t-19.5 12.5t-15 21.5t-6 32q0 11 4 31.5t14 41t27 35.5t44 15q26 0 40 -8t6 -34q16 -7 29 -17.5t13 -33.5q0 -13 -6 -30.5t-19.5 -33t-36.5 -26t-56 -10.5zM384 572q-8 0 -18 3.5t-19 11t-15 20t-6 29.5q0 10 3.5 29.5t13 38t26.5 32.5t43 14
q27 0 47 -11.5t22 -37.5q8 -3 12.5 -5t6 -5.5t1.5 -9.5v-17q0 -12 -5.5 -28t-19 -30t-36.5 -24t-56 -10z" />
    <glyph glyph-name="Jcircumflex" unicode="&#x134;" horiz-adv-x="511" 
d="M-13 129q0 38 6.5 65.5t19.5 54.5q8 9 23.5 12t33.5 -1.5t35 -16t28 -31.5q6 -10 12.5 -25.5t3.5 -20.5q-2 -3 -6 -2.5t-9 1.5t-9.5 1t-6.5 -4q-5 -10 -8 -31t-1 -40q2 -36 20 -62t47 -26q36 0 68.5 28.5t56 96.5t35.5 180t8 280q-49 -8 -93 -16.5t-76 -16.5
q-11 -3 -23 7.5t-22 25.5t-17 30.5t-7 23.5q0 6 5.5 9t11.5 5q31 8 76.5 17t96.5 16.5t102 13.5t93 9t70 3t34 -5q1 -2 7.5 -9.5t14 -16.5t15 -18.5t11.5 -13.5l-13 -21q-18 -3 -45.5 -5t-53.5 -7l-87 -14q24 -11 34 -21q4 -190 -9.5 -317t-44 -204t-76.5 -109.5t-107 -32.5
q-53 0 -99 17t-80.5 45.5t-54.5 66.5t-20 79zM254 779q-25 15 4 37q11 9 26.5 21t33 25.5t34.5 26t31 22.5l49 -7q10 -13 25 -34t29 -42t25 -37t13 -19q5 -8 1 -16.5t-12 -10.5q-15 -4 -30 -3.5t-23 8.5q-5 6 -12.5 16t-15.5 21t-15.5 21t-12.5 16q-17 -14 -34.5 -28
t-37.5 -31q-8 -7 -18 -11t-21 3z" />
    <glyph glyph-name="jcircumflex" unicode="&#x135;" horiz-adv-x="209" 
d="M78 419q3 31 10 52t31 21q33 0 61.5 -10t44.5 -27q-12 -74 -21 -153.5t-18.5 -156t-22.5 -145.5t-33.5 -121.5t-51.5 -83t-76 -30.5q-32 0 -68 5t-57 13q-21 7 -29 22t-6.5 30.5t12 28t27.5 15.5q22 -12 51 -23t54 -17q10 10 19.5 41.5t18.5 77.5t17 103t15 118t12.5 123
t9.5 117zM39 609q-25 15 4 37q11 9 26.5 21t33 25.5t34.5 26t31 22.5l49 -7q10 -13 25 -34t29 -42t25 -37t13 -19q5 -8 1 -16.5t-12 -10.5q-15 -4 -30 -3.5t-23 8.5q-5 6 -12.5 16t-15.5 21t-15.5 21t-12.5 16q-17 -14 -34.5 -28t-37.5 -31q-8 -7 -18 -11t-21 3z" />
    <glyph glyph-name="uni0136" unicode="&#x136;" horiz-adv-x="517" 
d="M5 -4q5 50 12.5 109t17 122t20.5 126.5t23 123t25.5 111t28.5 90.5q7 17 14.5 27t29.5 11q30 1 55.5 -9t36.5 -20q-14 -54 -29 -112t-29 -121q36 30 84 67t98 69t96 54t78 22q27 0 40.5 -16.5t9.5 -35.5q-30 -21 -81.5 -55t-107 -71.5t-105.5 -75t-77 -65.5
q26 -32 60 -67t71 -71.5t73.5 -75t67.5 -77.5q10 -10 13.5 -17.5t3 -13t-3.5 -10t-7 -8.5q-4 -5 -13.5 -12.5t-19.5 -15t-19 -13.5t-13 -8q-6 -3 -17.5 -3t-23.5 13q-35 36 -69 72t-66.5 70.5t-61 65.5t-52.5 56q-6 -37 -11.5 -75t-10.5 -78q8 0 13 -2q11 -4 6 -17
q-2 -5 -8 -20.5t-11 -31.5q-7 -19 -14 -41q-5 -10 -24 -8t-41 9t-40.5 15.5t-21.5 12.5zM150 -150q0 28 22 45.5t60 17.5q40 0 67 -21t27 -61q0 -20 -8.5 -38.5t-23 -34.5t-34 -28t-40.5 -17q-25 -6 -46.5 -4t-36 9.5t-19.5 20.5t4 30q13 -1 28.5 0t29 4.5t24.5 9.5t15 16
q-9 -1 -20.5 0.5t-22.5 7t-18.5 16t-7.5 27.5z" />
    <glyph glyph-name="uni0137" unicode="&#x137;" horiz-adv-x="419" 
d="M17 6q-1 20 -1 53t4 98q3 58 13 132.5t22.5 152.5t26.5 151.5t25 129.5q3 18 10.5 22.5t12.5 4.5q9 0 21 -2t24.5 -5t24.5 -7t20 -8q15 -7 15 -14t-2 -19q-10 -41 -20 -92t-19.5 -99.5t-17.5 -89.5t-13 -63q21 22 51 51.5t63 56t67 45t65 18.5q18 0 30 -6t18 -14
t7.5 -17.5t-0.5 -16.5q-57 -34 -122.5 -83.5t-120.5 -107.5q24 -29 52.5 -63t59 -70.5t60.5 -75t57 -77.5q14 -18 15 -27.5t-8 -16.5q-5 -3 -14 -8t-20 -10t-22 -9.5t-18 -7.5q-7 -2 -18.5 -3t-22.5 13q-27 37 -55 76t-54.5 75t-50 65.5t-39.5 46.5q-2 -22 -3.5 -47
t-1.5 -51t0.5 -51.5t1.5 -46.5q0 -19 -5.5 -26t-12.5 -6t-18.5 3.5t-23.5 5t-21.5 4.5t-12.5 3q-18 5 -22.5 10.5t-6.5 22.5zM103 -150q0 28 22 45.5t60 17.5q40 0 67 -21t27 -61q0 -20 -8.5 -38.5t-23 -34.5t-34 -28t-40.5 -17q-25 -6 -46.5 -4t-36 9.5t-19.5 20.5t4 30
q13 -1 28.5 0t29 4.5t24.5 9.5t15 16q-9 -1 -20.5 0.5t-22.5 7t-18.5 16t-7.5 27.5z" />
    <glyph glyph-name="kgreenlandic" unicode="&#x138;" horiz-adv-x="419" 
d="M17 6q-1 20 -0.5 53t3.5 98q2 51 6 94.5t9.5 85.5t12.5 84t15 89q3 18 10 22.5t12 4.5q9 0 21 -2t25 -5t25 -6.5t20 -7.5q15 -7 15 -14t-3 -19q-6 -32 -9 -54t-5.5 -40t-4.5 -34t-6 -34q20 22 55.5 56.5t76.5 66.5t82 55t72 23q18 0 30 -6t18 -14t7.5 -17.5t-0.5 -16.5
q-29 -17 -66.5 -43t-76.5 -56t-76 -61.5t-64 -60.5q19 -19 46 -48.5t58 -64t63.5 -72t61.5 -71.5q15 -17 15.5 -27t-8.5 -17q-5 -3 -14 -8t-20 -10t-22 -9.5t-18 -7.5q-7 -2 -18 -3t-23 13q-29 34 -57.5 68.5t-54.5 65t-48.5 56.5t-38.5 43q-5 -44 -5 -83.5t2 -82.5
q0 -19 -5.5 -26t-12.5 -6t-18.5 3.5t-23.5 5t-21.5 4.5t-12.5 3q-18 5 -22.5 10.5t-6.5 22.5z" />
    <glyph glyph-name="Lacute" unicode="&#x139;" horiz-adv-x="395" 
d="M-17 22q17 5 32.5 8.5t30.5 8.5q7 46 16.5 105.5t20.5 124t23 130t24.5 125t25 108.5t23.5 80q10 6 29 3.5t38.5 -8.5t37 -14t24.5 -14q-14 -47 -32.5 -119.5t-37 -156.5t-35 -171t-27.5 -162q88 19 151.5 25.5t108.5 4.5q6 0 19.5 -15.5t24 -34t13.5 -33.5t-11 -15
q-66 -2 -140.5 -9.5t-177.5 -24.5q-1 -11 -1.5 -21t-0.5 -19t-13 -9t-31 4t-37 11t-31 13l-7 -2q-12 -2 -26.5 9t-24.5 25t-14 27.5t5 15.5zM301 754q-6 -6 -21 -2.5t-29.5 11t-24 16t-5.5 13.5q13 16 26.5 34.5t27 35.5t26.5 30.5t25 19.5q17 7 38 2.5t37.5 -13.5t25 -20.5
t1.5 -17.5q-42 -35 -74.5 -62.5t-52.5 -46.5z" />
    <glyph glyph-name="lacute" unicode="&#x13a;" horiz-adv-x="200" 
d="M24 0q-3 5 -3.5 15.5t0 23t2 26t2.5 25.5q3 39 9 90t14.5 109t19 119.5t22 120.5t23 113t22.5 97q2 6 8 7.5t11 1.5q11 0 29 -5.5t34.5 -13.5t27.5 -16.5t10 -15.5q-34 -159 -62.5 -325.5t-41.5 -331.5q-2 -20 -3.5 -40.5t-2.5 -40.5q-5 -6 -24 -3t-39.5 10.5t-38 17.5
t-19.5 16zM252 770q-6 -6 -21 -2.5t-29.5 11t-24 16t-5.5 13.5q13 16 26.5 34.5t27 35.5t26.5 30.5t25 19.5q17 7 38 2.5t37.5 -13.5t25 -20.5t1.5 -17.5q-42 -35 -74.5 -62.5t-52.5 -46.5z" />
    <glyph glyph-name="uni013B" unicode="&#x13b;" horiz-adv-x="395" 
d="M-17 22q17 5 32.5 8.5t30.5 8.5q7 46 16.5 105.5t20.5 124t23 130t24.5 125t25 108.5t23.5 80q10 6 29 3.5t38.5 -8.5t37 -14t24.5 -14q-14 -47 -32.5 -119.5t-37 -156.5t-35 -171t-27.5 -162q88 19 151.5 25.5t108.5 4.5q6 0 19.5 -15.5t24 -34t13.5 -33.5t-11 -15
q-66 -2 -140.5 -9.5t-177.5 -24.5q-1 -11 -1.5 -21t-0.5 -19t-13 -9t-31 4t-37 11t-31 13l-7 -2q-12 -2 -26.5 9t-24.5 25t-14 27.5t5 15.5zM176 -150q0 28 22 45.5t60 17.5q40 0 67 -21t27 -61q0 -20 -8.5 -38.5t-23 -34.5t-34 -28t-40.5 -17q-25 -6 -46.5 -4t-36 9.5
t-19.5 20.5t4 30q13 -1 28.5 0t29 4.5t24.5 9.5t15 16q-9 -1 -20.5 0.5t-22.5 7t-18.5 16t-7.5 27.5z" />
    <glyph glyph-name="uni013C" unicode="&#x13c;" horiz-adv-x="200" 
d="M24 0q-3 5 -3.5 15.5t0 23t2 26t2.5 25.5q3 39 9 90t14.5 109t19 119.5t22 120.5t23 113t22.5 97q2 6 8 7.5t11 1.5q11 0 29 -5.5t34.5 -13.5t27.5 -16.5t10 -15.5q-34 -159 -62.5 -325.5t-41.5 -331.5q-2 -20 -3.5 -40.5t-2.5 -40.5q-5 -6 -24 -3t-39.5 10.5t-38 17.5
t-19.5 16zM-15 -150q0 28 22 45.5t60 17.5q40 0 67 -21t27 -61q0 -20 -8.5 -38.5t-23 -34.5t-34 -28t-40.5 -17q-25 -6 -46.5 -4t-36 9.5t-19.5 20.5t4 30q13 -1 28.5 0t29 4.5t24.5 9.5t15 16q-9 -1 -20.5 0.5t-22.5 7t-18.5 16t-7.5 27.5z" />
    <glyph glyph-name="Lcaron" unicode="&#x13d;" horiz-adv-x="395" 
d="M-17 22q17 5 32.5 8.5t30.5 8.5q7 46 16.5 105.5t20.5 124t23 130t24.5 125t25 108.5t23.5 80q10 6 29 3.5t38.5 -8.5t37 -14t24.5 -14q-14 -47 -32.5 -119.5t-37 -156.5t-35 -171t-27.5 -162q88 19 151.5 25.5t108.5 4.5q6 0 19.5 -15.5t24 -34t13.5 -33.5t-11 -15
q-66 -2 -140.5 -9.5t-177.5 -24.5q-1 -11 -1.5 -21t-0.5 -19t-13 -9t-31 4t-37 11t-31 13l-7 -2q-12 -2 -26.5 9t-24.5 25t-14 27.5t5 15.5zM360 661q0 28 22 45t60 17q40 0 67 -20.5t27 -61.5q0 -19 -8.5 -38t-23 -34.5t-34 -27.5t-40.5 -17q-25 -6 -46.5 -4t-36 9.5
t-19.5 20.5t4 30q13 -1 28.5 0t29 4.5t24.5 9.5t15 16q-9 -1 -20.5 0.5t-22.5 7t-18.5 16t-7.5 27.5z" />
    <glyph glyph-name="lcaron" unicode="&#x13e;" horiz-adv-x="280" 
d="M24 0q-3 5 -3.5 15.5t0 23t2 26t2.5 25.5q3 39 9 90t14.5 109t19 119.5t22 120.5t23 113t22.5 97q2 6 8 7.5t11 1.5q11 0 29 -5.5t34.5 -13.5t27.5 -16.5t10 -15.5q-34 -159 -62.5 -325.5t-41.5 -331.5q-2 -20 -3.5 -40.5t-2.5 -40.5q-5 -6 -24 -3t-39.5 10.5t-38 17.5
t-19.5 16zM290 652q0 28 22 45.5t60 17.5q40 0 67 -21t27 -61q0 -20 -8.5 -38.5t-23 -34.5t-34 -28t-40.5 -17q-25 -6 -46.5 -4t-36 9.5t-19.5 20.5t4 30q13 -1 28.5 0t29 4.5t24.5 9.5t15 16q-9 -1 -20.5 0.5t-22.5 7t-18.5 16t-7.5 27.5z" />
    <glyph glyph-name="Ldot" unicode="&#x13f;" horiz-adv-x="457" 
d="M-17 22q17 5 32.5 8.5t30.5 8.5q7 46 16.5 105.5t20.5 124t23 130t24.5 125t25 108.5t23.5 80q10 6 29 3.5t38.5 -8.5t37 -14t24.5 -14q-14 -47 -32.5 -119.5t-37 -156.5t-35 -171t-27.5 -162q88 19 151.5 25.5t108.5 4.5q6 0 19.5 -15.5t24 -34t13.5 -33.5t-11 -15
q-66 -2 -140.5 -9.5t-177.5 -24.5q-1 -11 -1.5 -21t-0.5 -19t-13 -9t-31 4t-37 11t-31 13l-7 -2q-12 -2 -26.5 9t-24.5 25t-14 27.5t5 15.5zM347 290q-17 6 -29 17.5t-12 34.5q0 13 6 30t19.5 33t35.5 27t55 11q8 0 17.5 -4t18 -12.5t14.5 -21.5t6 -32q0 -12 -3.5 -33
t-13.5 -41.5t-26.5 -35.5t-41.5 -15q-26 0 -39.5 8t-6.5 34z" />
    <glyph glyph-name="ldot" unicode="&#x140;" horiz-adv-x="409" 
d="M24 0q-3 5 -3.5 15.5t0 23t2 26t2.5 25.5q3 39 9 90t14.5 109t19 119.5t22 120.5t23 113t22.5 97q2 6 8 7.5t11 1.5q11 0 29 -5.5t34.5 -13.5t27.5 -16.5t10 -15.5q-34 -159 -62.5 -325.5t-41.5 -331.5q-2 -20 -3.5 -40.5t-2.5 -40.5q-5 -6 -24 -3t-39.5 10.5t-38 17.5
t-19.5 16zM288 289q-17 6 -29 17.5t-12 34.5q0 13 6 30t19.5 33t35.5 27t55 11q8 0 17.5 -4t18 -12.5t14.5 -21.5t6 -32q0 -12 -3.5 -33t-13.5 -41.5t-26.5 -35.5t-41.5 -15q-26 0 -39.5 8t-6.5 34z" />
    <glyph glyph-name="Lslash" unicode="&#x141;" horiz-adv-x="395" 
d="M19 155q-10 -7 -22 -2t-20.5 15t-12 21.5t2.5 17.5q18 16 49.5 37.5t69.5 45.5q11 62 23 124.5t24 119t23.5 102.5t22.5 76q10 6 29 3.5t38.5 -8.5t37 -14t24.5 -14q-15 -51 -35 -130.5t-40 -171.5q38 22 67.5 37.5t43.5 20.5q6 2 17.5 -7t20.5 -21.5t11 -25.5t-11 -19
q-34 -16 -78.5 -40t-91.5 -51q-11 -53 -20 -104t-16 -97q88 19 151.5 25.5t108.5 4.5q6 0 19.5 -15.5t24 -34t13.5 -33.5t-11 -15q-66 -2 -140.5 -9.5t-177.5 -24.5q-1 -11 -1.5 -21t-0.5 -19t-13 -9t-31 4t-37 11t-31 13l-7 -2q-12 -2 -26.5 9t-24.5 25t-14 27.5t5 15.5
q17 5 32.5 8.5t30.5 8.5q5 32 10.5 69t12.5 79q-15 -9 -27.5 -17t-22.5 -15z" />
    <glyph glyph-name="lslash" unicode="&#x142;" horiz-adv-x="200" 
d="M17 214q-10 -7 -22 -2t-21 15t-12.5 21.5t3.5 17.5q17 14 40 31t50 35q8 54 18 109.5t20.5 109t21 101.5t20.5 87q2 6 8 7.5t11 1.5q11 0 29 -5.5t34.5 -13.5t27.5 -16.5t10 -15.5q-14 -68 -28 -137t-27 -141q46 25 68 34q6 2 17.5 -6.5t20.5 -21.5t11.5 -25.5
t-10.5 -18.5q-30 -14 -61 -30.5t-62 -33.5q-11 -70 -19.5 -139t-13.5 -138q-2 -20 -3.5 -40.5t-2.5 -40.5q-5 -6 -24 -3t-39.5 10.5t-38 17.5t-19.5 16q-3 5 -3.5 15.5t0 23t2 26t2.5 25.5q2 29 6 64t9 75z" />
    <glyph glyph-name="Nacute" unicode="&#x143;" horiz-adv-x="549" 
d="M372 207q10 49 22.5 109t27 121t30 119.5t30 103.5t27.5 72.5t24 27.5q19 0 38 -2.5t35 -6.5t27.5 -9.5t15.5 -11.5q-48 -117 -81 -222.5t-55 -200t-35 -177t-22 -154.5q-2 -7 -12 -8t-18 -1q-12 0 -28.5 3t-32 9t-28 14t-17.5 19q-17 59 -32.5 131.5t-29 142
t-23.5 128.5t-16 92l-7 5q-11 -27 -23 -75t-22.5 -110t-17 -134t-7.5 -148q0 -5 1.5 -6.5t4 -2t6 -1t8.5 -3.5q7 -4 2.5 -19.5t-12.5 -33.5t-16 -34.5t-9 -22.5q-2 -11 -20 -8.5t-40.5 11t-42 18t-23.5 13.5q2 59 10 132.5t20 150.5t27.5 153.5t34.5 142t40.5 116t44.5 75.5
q12 -2 27 -5.5t29.5 -8.5t26.5 -12t20 -14q3 -33 8.5 -75.5t12 -89.5t14.5 -94.5t15.5 -89.5t15.5 -76t14 -53h11zM407 757q-6 -6 -21 -2.5t-29.5 11t-24 16t-5.5 13.5q13 16 26.5 34.5t27 35.5t26.5 30.5t25 19.5q17 7 38 2.5t37.5 -13.5t25 -20.5t1.5 -17.5
q-42 -35 -74.5 -62.5t-52.5 -46.5z" />
    <glyph glyph-name="nacute" unicode="&#x144;" horiz-adv-x="413" 
d="M238 296q-16 -31 -32.5 -73t-30.5 -87t-23 -88t-9 -76q-6 -4 -15 -8q-8 -3 -18.5 -5.5t-23.5 -2.5q-22 0 -36 9.5t-22.5 27t-12 41t-3.5 52.5q0 80 7 156t20.5 135.5t33 96t43.5 36.5q9 0 20 -2t20.5 -6.5t15.5 -11t5 -15.5q-14 -68 -29 -133.5t-17 -135.5h4
q29 78 61 159t74 157q5 14 31 14q13 0 31.5 -4.5t35.5 -12t28 -18t10 -22.5q-4 -39 -15.5 -84t-24 -92t-22 -95t-9.5 -92q0 -71 39 -71q12 0 22.5 10.5t19 25t14.5 29.5t9 24q13 0 24 -4q9 -4 16.5 -12.5t7.5 -24.5t-10 -38.5t-29 -42.5t-45.5 -34.5t-60.5 -14.5
q-36 0 -60 13t-38 34t-19 48t-5 56q1 15 4 38.5t7.5 49.5t9.5 51t9 43h-12zM263 583q-6 -6 -21 -2.5t-29.5 11t-24 16t-5.5 13.5q13 16 26.5 34.5t27 35.5t26.5 30.5t25 19.5q17 7 38 2.5t37.5 -13.5t25 -20.5t1.5 -17.5q-42 -35 -74.5 -62.5t-52.5 -46.5z" />
    <glyph glyph-name="uni0145" unicode="&#x145;" horiz-adv-x="549" 
d="M372 207q10 49 22.5 109t27 121t30 119.5t30 103.5t27.5 72.5t24 27.5q19 0 38 -2.5t35 -6.5t27.5 -9.5t15.5 -11.5q-48 -117 -81 -222.5t-55 -200t-35 -177t-22 -154.5q-2 -7 -12 -8t-18 -1q-12 0 -28.5 3t-32 9t-28 14t-17.5 19q-17 59 -32.5 131.5t-29 142
t-23.5 128.5t-16 92l-7 5q-11 -27 -23 -75t-22.5 -110t-17 -134t-7.5 -148q0 -5 1.5 -6.5t4 -2t6 -1t8.5 -3.5q7 -4 2.5 -19.5t-12.5 -33.5t-16 -34.5t-9 -22.5q-2 -11 -20 -8.5t-40.5 11t-42 18t-23.5 13.5q2 59 10 132.5t20 150.5t27.5 153.5t34.5 142t40.5 116t44.5 75.5
q12 -2 27 -5.5t29.5 -8.5t26.5 -12t20 -14q3 -33 8.5 -75.5t12 -89.5t14.5 -94.5t15.5 -89.5t15.5 -76t14 -53h11zM149 -150q0 28 22 45.5t60 17.5q40 0 67 -21t27 -61q0 -20 -8.5 -38.5t-23 -34.5t-34 -28t-40.5 -17q-25 -6 -46.5 -4t-36 9.5t-19.5 20.5t4 30q13 -1 28.5 0
t29 4.5t24.5 9.5t15 16q-9 -1 -20.5 0.5t-22.5 7t-18.5 16t-7.5 27.5z" />
    <glyph glyph-name="uni0146" unicode="&#x146;" horiz-adv-x="413" 
d="M238 296q-16 -31 -32.5 -73t-30.5 -87t-23 -88t-9 -76q-6 -4 -15 -8q-8 -3 -18.5 -5.5t-23.5 -2.5q-22 0 -36 9.5t-22.5 27t-12 41t-3.5 52.5q0 80 7 156t20.5 135.5t33 96t43.5 36.5q9 0 20 -2t20.5 -6.5t15.5 -11t5 -15.5q-14 -68 -29 -133.5t-17 -135.5h4
q29 78 61 159t74 157q5 14 31 14q13 0 31.5 -4.5t35.5 -12t28 -18t10 -22.5q-4 -39 -15.5 -84t-24 -92t-22 -95t-9.5 -92q0 -71 39 -71q12 0 22.5 10.5t19 25t14.5 29.5t9 24q13 0 24 -4q9 -4 16.5 -12.5t7.5 -24.5t-10 -38.5t-29 -42.5t-45.5 -34.5t-60.5 -14.5
q-36 0 -60 13t-38 34t-19 48t-5 56q1 15 4 38.5t7.5 49.5t9.5 51t9 43h-12zM95 -150q0 28 22 45.5t60 17.5q40 0 67 -21t27 -61q0 -20 -8.5 -38.5t-23 -34.5t-34 -28t-40.5 -17q-25 -6 -46.5 -4t-36 9.5t-19.5 20.5t4 30q13 -1 28.5 0t29 4.5t24.5 9.5t15 16
q-9 -1 -20.5 0.5t-22.5 7t-18.5 16t-7.5 27.5z" />
    <glyph glyph-name="Ncaron" unicode="&#x147;" horiz-adv-x="549" 
d="M372 207q10 49 22.5 109t27 121t30 119.5t30 103.5t27.5 72.5t24 27.5q19 0 38 -2.5t35 -6.5t27.5 -9.5t15.5 -11.5q-48 -117 -81 -222.5t-55 -200t-35 -177t-22 -154.5q-2 -7 -12 -8t-18 -1q-12 0 -28.5 3t-32 9t-28 14t-17.5 19q-17 59 -32.5 131.5t-29 142
t-23.5 128.5t-16 92l-7 5q-11 -27 -23 -75t-22.5 -110t-17 -134t-7.5 -148q0 -5 1.5 -6.5t4 -2t6 -1t8.5 -3.5q7 -4 2.5 -19.5t-12.5 -33.5t-16 -34.5t-9 -22.5q-2 -11 -20 -8.5t-40.5 11t-42 18t-23.5 13.5q2 59 10 132.5t20 150.5t27.5 153.5t34.5 142t40.5 116t44.5 75.5
q12 -2 27 -5.5t29.5 -8.5t26.5 -12t20 -14q3 -33 8.5 -75.5t12 -89.5t14.5 -94.5t15.5 -89.5t15.5 -76t14 -53h11zM535 880q25 -15 -4 -37q-11 -9 -26.5 -21t-33 -25.5t-34.5 -26t-31 -22.5l-49 7q-11 13 -26.5 35t-31 43.5t-27.5 39t-14 20.5q-5 8 -0.5 16t12.5 10
q14 5 29 4.5t23 -9.5q5 -6 13.5 -16.5t17.5 -22.5t17 -23t13 -17q17 14 35 28t38 31q8 6 19.5 10.5t22.5 -2.5z" />
    <glyph glyph-name="ncaron" unicode="&#x148;" horiz-adv-x="413" 
d="M238 296q-16 -31 -32.5 -73t-30.5 -87t-23 -88t-9 -76q-6 -4 -15 -8q-8 -3 -18.5 -5.5t-23.5 -2.5q-22 0 -36 9.5t-22.5 27t-12 41t-3.5 52.5q0 80 7 156t20.5 135.5t33 96t43.5 36.5q9 0 20 -2t20.5 -6.5t15.5 -11t5 -15.5q-14 -68 -29 -133.5t-17 -135.5h4
q29 78 61 159t74 157q5 14 31 14q13 0 31.5 -4.5t35.5 -12t28 -18t10 -22.5q-4 -39 -15.5 -84t-24 -92t-22 -95t-9.5 -92q0 -71 39 -71q12 0 22.5 10.5t19 25t14.5 29.5t9 24q13 0 24 -4q9 -4 16.5 -12.5t7.5 -24.5t-10 -38.5t-29 -42.5t-45.5 -34.5t-60.5 -14.5
q-36 0 -60 13t-38 34t-19 48t-5 56q1 15 4 38.5t7.5 49.5t9.5 51t9 43h-12zM401 709q25 -15 -4 -37q-11 -9 -26.5 -21t-33 -25.5t-34.5 -26t-31 -22.5l-49 7q-11 13 -26.5 35t-31 43.5t-27.5 39t-14 20.5q-5 8 -0.5 16t12.5 10q14 5 29 4.5t23 -9.5q5 -6 13.5 -16.5
t17.5 -22.5t17 -23t13 -17q17 14 35 28t38 31q8 6 19.5 10.5t22.5 -2.5z" />
    <glyph glyph-name="napostrophe" unicode="&#x149;" horiz-adv-x="514" 
d="M338 296q-16 -31 -32.5 -73t-30.5 -87t-23 -88t-9 -76q-6 -4 -15 -8q-8 -3 -18.5 -5.5t-23.5 -2.5q-22 0 -36 9.5t-22.5 27t-12 41t-3.5 52.5q0 80 7 156t20.5 135.5t33 96t43.5 36.5q9 0 20 -2t20.5 -6.5t15.5 -11t5 -15.5q-14 -68 -29 -133.5t-17 -135.5h4
q29 78 61 159t74 157q5 14 31 14q13 0 31.5 -4.5t35.5 -12t28 -18t10 -22.5q-4 -39 -15.5 -84t-24 -92t-22 -95t-9.5 -92q0 -71 39 -71q12 0 22.5 10.5t19 25t14.5 29.5t9 24q13 0 24 -4q9 -4 16.5 -12.5t7.5 -24.5t-10 -38.5t-29 -42.5t-45.5 -34.5t-60.5 -14.5
q-36 0 -60 13t-38 34t-19 48t-5 56q1 15 4 38.5t7.5 49.5t9.5 51t9 43h-12zM98 671q0 28 21 45.5t57 17.5q38 0 64 -21t26 -61q0 -20 -8 -39t-22 -35t-32.5 -28t-38.5 -17q-24 -6 -44.5 -4t-34.5 9.5t-19 20.5t4 30q12 -1 26.5 0t28 4.5t24 10t14.5 16.5q-8 -1 -19.5 0.5
t-22 7t-17.5 16t-7 27.5z" />
    <glyph glyph-name="Eng" unicode="&#x14a;" horiz-adv-x="549" 
d="M372 207q10 49 22.5 109t27 121t30 119.5t30 103.5t27.5 72.5t24 27.5q19 0 38 -2.5t35 -6.5t27.5 -9.5t15.5 -11.5q-34 -84 -58.5 -161t-43 -148t-32 -136t-25.5 -125q-24 -105 -43.5 -181.5t-46 -125.5t-67.5 -70t-109 -14q-16 2 -34.5 5.5t-32.5 8.5q-21 7 -29 22
t-6.5 30.5t12 28t27.5 15.5q22 -12 47.5 -23t50.5 -17q45 44 66 168q-20 61 -36.5 132t-29.5 140t-23 129t-17 98l-7 5q-23 -54 -44 -162t-23 -260q0 -5 1.5 -6.5t4 -2t6 -1t8.5 -3.5q7 -5 3 -19.5t-12 -31.5t-15.5 -32.5t-8.5 -21.5q-2 -11 -20 -8.5t-40.5 10.5t-42 17.5
t-23.5 13.5q2 60 9.5 129.5t19 141t26.5 141.5t33.5 130t39.5 107t44 72q12 -2 27 -5.5t29.5 -8.5t26.5 -12t20 -14q3 -33 8.5 -75.5t12 -89.5t14.5 -94.5t15.5 -89.5t15.5 -76t14 -53h11z" />
    <glyph glyph-name="eng" unicode="&#x14b;" horiz-adv-x="396" 
d="M406 479q-2 -27 -9.5 -57t-13.5 -63q-14 -72 -23.5 -144t-19 -138t-21.5 -123t-31 -99t-47 -66t-69 -24q-32 0 -63 4.5t-52 12.5q-21 7 -29 22t-6.5 30.5t12 28t27.5 15.5q22 -12 46 -22.5t49 -16.5q13 14 27 56t27 102.5t23.5 136t18.5 155.5h-15q-16 -31 -33 -70
t-31.5 -79.5t-24.5 -80.5t-10 -73q-7 -4 -16 -8q-8 -3 -18 -5.5t-24 -2.5q-22 0 -35 8.5t-20.5 24.5t-10 38.5t-2.5 51.5q0 80 7 155t20.5 133.5t33 93.5t43.5 35q9 0 20 -2t20.5 -6.5t15.5 -11t5 -15.5q-14 -68 -29 -133.5t-17 -135.5h4q29 78 61 159t74 157q5 14 31 14
q13 0 31.5 -4.5t35.5 -12t28 -18t10 -22.5z" />
    <glyph glyph-name="Omacron" unicode="&#x14c;" horiz-adv-x="538" 
d="M12 271q0 73 20 146.5t53 134.5t74 103t83 52q16 -4 21.5 -10t13.5 -14q10 4 21 8q10 3 22.5 6t26.5 3q62 0 102.5 -20t64 -54t32.5 -79t9 -94q0 -33 -5.5 -83.5t-18 -106.5t-34.5 -112.5t-55 -101.5t-79 -73t-106 -28q-66 0 -112.5 29.5t-76 76.5t-43 104t-13.5 113z
M142 231q-1 -39 3.5 -73.5t15 -60t27 -40.5t39.5 -15q35 0 62.5 29t48 74.5t35 100.5t23 106.5t12.5 94t5 61.5q1 21 -1.5 42t-9 37t-17.5 26t-27 10q-28 0 -49 -18t-36 -45t-25 -59t-16 -60q-2 -8 -9 -6q-5 1 -17 6.5t-17 10.5l-6.5 -15.5t-15 -44t-16 -69.5t-9.5 -92z
M215 819q26 7 61.5 11t71.5 5.5t68.5 1t52.5 -1.5q6 0 17 -13t18.5 -28.5t8 -28t-13.5 -12.5q-66 0 -126 0.5t-106 -4.5q-12 -2 -25 8t-22 23t-11.5 25t6.5 14z" />
    <glyph glyph-name="omacron" unicode="&#x14d;" horiz-adv-x="407" 
d="M11 212q2 49 17.5 102t39 98.5t53 77.5t59.5 39q13 -5 22 -11.5t11 -13.5q6 3 13 6q6 2 14 4t19 2q51 0 81.5 -17t47 -45t21.5 -65t4 -76q-2 -28 -7 -64.5t-16 -75.5t-27.5 -77t-40.5 -67.5t-56.5 -48t-73.5 -18.5q-51 0 -86 23.5t-57 60t-31 80.5t-7 86zM124 177
q-2 -27 0.5 -50.5t9 -41t17 -27.5t24.5 -10q22 0 40 19t31.5 48t24 65t17 70t10 62t4.5 42q1 10 2 26t-1 31t-8.5 26t-20.5 11q-21 0 -39.5 -26.5t-34 -62.5t-26 -72.5t-14.5 -56.5q-1 -3 -12 1t-15 7q-2 -7 -4 -17q-2 -8 -3 -19.5t-2 -24.5zM131 658q26 7 61.5 11t71.5 5.5
t68.5 1t52.5 -1.5q6 0 17 -13t18.5 -28.5t8 -28t-13.5 -12.5q-66 0 -126 0.5t-106 -4.5q-12 -2 -25 8t-22 23t-11.5 25t6.5 14z" />
    <glyph glyph-name="Obreve" unicode="&#x14e;" horiz-adv-x="538" 
d="M12 271q0 73 20 146.5t53 134.5t74 103t83 52q16 -4 21.5 -10t13.5 -14q10 4 21 8q10 3 22.5 6t26.5 3q62 0 102.5 -20t64 -54t32.5 -79t9 -94q0 -33 -5.5 -83.5t-18 -106.5t-34.5 -112.5t-55 -101.5t-79 -73t-106 -28q-66 0 -112.5 29.5t-76 76.5t-43 104t-13.5 113z
M142 231q-1 -39 3.5 -73.5t15 -60t27 -40.5t39.5 -15q35 0 62.5 29t48 74.5t35 100.5t23 106.5t12.5 94t5 61.5q1 21 -1.5 42t-9 37t-17.5 26t-27 10q-28 0 -49 -18t-36 -45t-25 -59t-16 -60q-2 -8 -9 -6q-5 1 -17 6.5t-17 10.5l-6.5 -15.5t-15 -44t-16 -69.5t-9.5 -92z
M419 881q3 7 16 6.5t28.5 -5.5t28.5 -12.5t15 -15.5q-14 -44 -51.5 -73.5t-85.5 -29.5q-47 0 -76 23t-39 52q-4 10 -3 21t6 19t14 12t23 2q5 -22 18.5 -42t37.5 -20q27 0 42 18.5t26 44.5z" />
    <glyph glyph-name="obreve" unicode="&#x14f;" horiz-adv-x="407" 
d="M11 212q2 49 17.5 102t39 98.5t53 77.5t59.5 39q13 -5 22 -11.5t11 -13.5q6 3 13 6q6 2 14 4t19 2q51 0 81.5 -17t47 -45t21.5 -65t4 -76q-2 -28 -7 -64.5t-16 -75.5t-27.5 -77t-40.5 -67.5t-56.5 -48t-73.5 -18.5q-51 0 -86 23.5t-57 60t-31 80.5t-7 86zM124 177
q-2 -27 0.5 -50.5t9 -41t17 -27.5t24.5 -10q22 0 40 19t31.5 48t24 65t17 70t10 62t4.5 42q1 10 2 26t-1 31t-8.5 26t-20.5 11q-21 0 -39.5 -26.5t-34 -62.5t-26 -72.5t-14.5 -56.5q-1 -3 -12 1t-15 7q-2 -7 -4 -17q-2 -8 -3 -19.5t-2 -24.5zM336 714q3 7 16 6.5t28.5 -5.5
t28.5 -12.5t15 -15.5q-14 -44 -51.5 -73.5t-85.5 -29.5q-47 0 -76 23t-39 52q-4 10 -3 21t6 19t14 12t23 2q5 -22 18.5 -42t37.5 -20q27 0 42 18.5t26 44.5z" />
    <glyph glyph-name="Ohungarumlaut" unicode="&#x150;" horiz-adv-x="538" 
d="M12 271q0 73 20 146.5t53 134.5t74 103t83 52q16 -4 21.5 -10t13.5 -14q10 4 21 8q10 3 22.5 6t26.5 3q62 0 102.5 -20t64 -54t32.5 -79t9 -94q0 -33 -5.5 -83.5t-18 -106.5t-34.5 -112.5t-55 -101.5t-79 -73t-106 -28q-66 0 -112.5 29.5t-76 76.5t-43 104t-13.5 113z
M142 231q-1 -39 3.5 -73.5t15 -60t27 -40.5t39.5 -15q35 0 62.5 29t48 74.5t35 100.5t23 106.5t12.5 94t5 61.5q1 21 -1.5 42t-9 37t-17.5 26t-27 10q-28 0 -49 -18t-36 -45t-25 -59t-16 -60q-2 -8 -9 -6q-5 1 -17 6.5t-17 10.5l-6.5 -15.5t-15 -44t-16 -69.5t-9.5 -92z
M294 754q-6 -6 -16.5 -2.5t-19.5 10.5t-14.5 16t-2.5 14q11 16 23.5 34.5t24.5 35.5t24 30.5t23 19.5q10 6 26 2t29 -13t20 -20t0 -18q-30 -29 -63.5 -59.5t-53.5 -49.5zM460 754q-6 -6 -16 -2.5t-19 10.5t-14 16t-1 14q12 16 24.5 34.5t25 36t25 30.5t24.5 19q12 5 27 0
t27.5 -14.5t18 -20.5t-2.5 -18q-33 -28 -66 -57t-53 -48z" />
    <glyph glyph-name="ohungarumlaut" unicode="&#x151;" horiz-adv-x="407" 
d="M11 212q2 49 17.5 102t39 98.5t53 77.5t59.5 39q13 -5 22 -11.5t11 -13.5q6 3 13 6q6 2 14 4t19 2q51 0 81.5 -17t47 -45t21.5 -65t4 -76q-2 -28 -7 -64.5t-16 -75.5t-27.5 -77t-40.5 -67.5t-56.5 -48t-73.5 -18.5q-51 0 -86 23.5t-57 60t-31 80.5t-7 86zM124 177
q-2 -27 0.5 -50.5t9 -41t17 -27.5t24.5 -10q22 0 40 19t31.5 48t24 65t17 70t10 62t4.5 42q1 10 2 26t-1 31t-8.5 26t-20.5 11q-21 0 -39.5 -26.5t-34 -62.5t-26 -72.5t-14.5 -56.5q-1 -3 -12 1t-15 7q-2 -7 -4 -17q-2 -8 -3 -19.5t-2 -24.5zM203 583q-6 -6 -16.5 -2.5
t-19.5 10.5t-14.5 16t-2.5 14q11 16 23.5 34.5t24.5 35.5t24 30.5t23 19.5q10 6 26 2t29 -13t20 -20t0 -18q-30 -29 -63.5 -59.5t-53.5 -49.5zM369 583q-6 -6 -16 -2.5t-19 10.5t-14 16t-1 14q12 16 24.5 34.5t25 36t25 30.5t24.5 19q12 5 27 0t27.5 -14.5t18 -20.5
t-2.5 -18q-33 -28 -66 -57t-53 -48z" />
    </font>
</defs>
</svg>
